<?xml version="1.0" encoding="utf-8"?>
<!-- Generator: Adobe Illustrator 19.0.0, SVG Export Plug-In . SVG Version: 6.00 Build 0)  -->
<svg version="1.1" id="Layer_1" xmlns="http://www.w3.org/2000/svg" xmlns:xlink="http://www.w3.org/1999/xlink" x="0px" y="0px"
	 viewBox="270 500 300 160" style="enable-background:new 0 0 841.9 160;" xml:space="preserve">
<style type="text/css">
	.st0{clip-path:url(#SVGID_2_);fill:#061A38;}
</style>
<g>
	<defs>
		<rect id="SVGID_1_" x="297" y="537.8" width="247.3" height="115.8"/>
	</defs>
	<clipPath id="SVGID_2_">
		<use xlink:href="#SVGID_1_"  style="overflow:visible;"/>
	</clipPath>
	<path class="st0" d="M540.7,635.8l-0.1-0.2l-1.8,1c0.1,0.3,0.1,0.6,0.1,0.9c0,1.2-0.4,2.4-1,3.5l0.2,0.1c0.4-0.2,0.8-0.5,1.1-0.9
		c0.1-0.2,0.3-0.4,0.4-0.6C540.2,638.5,540.7,637,540.7,635.8 M543.8,635.8l-0.1-0.2l-1.8,1c0.1,0.3,0.1,0.6,0.1,0.9
		c0,1.2-0.4,2.4-1,3.5l0.2,0.1c0.4-0.2,0.8-0.5,1.1-0.9c0.1-0.2,0.3-0.4,0.4-0.6C543.3,638.6,543.8,637,543.8,635.8 M529.2,636.9
		c0-0.4-0.3-0.7-0.7-0.7c-0.4,0-0.7,0.3-0.7,0.7c0,0.4,0.3,0.7,0.7,0.7C528.9,637.6,529.2,637.3,529.2,636.9 M537.1,640.2
		c0-1.9-1-2.2-2.7-2.2h-1.7c-0.5,0-1.3,0.1-1.3-0.6c0-0.7,0.2-1.4,0.2-2c0-0.2-0.1-1.6-0.3-1.6h-0.3l-1.4,1.7c0,0.2,0.2,0.4,0.3,0.6
		c0.2,0.4,0.2,0.9,0.2,1.4c0,0.4,0,0.8,0,1.2c0,1,0.4,1.5,1.4,1.5c1,0,1.9,0,2.9,0c1,0,1.1,0.8,1.1,1.6v0.3
		c-0.1,1.6-2.4,3.2-3.8,3.9l-0.3,2l0.3,0.1c1.2-0.8,2.4-1.7,3.3-2.7C536.2,644.1,537.1,641.9,537.1,640.2 M528.6,646.5
		c-0.6-1-1.3-2-2.2-2.9c0.7-0.9,1.9-2.2,1.9-3.5c0-1.1-0.9-1.3-1.5-2c-0.2-0.3-0.3-0.6-0.4-0.9H526l-1.1,1.9
		c0.2,0.2,0.3,0.4,0.5,0.6c0.4,0.3,1,0.5,1,1.1s-0.6,1.5-0.9,1.9c-0.8-0.7-1.5-1.5-2.2-2.2c-0.7-0.7-1.4-1.5-2.1-2.3
		c-0.2-0.3-0.3-0.6-0.4-1h-0.4l-1,1.5c0.6,0.9,1.4,1.7,1.4,2.8c0,1.6-1.1,3.1-1.1,4.7c0,1.2,1,1.5,2,1.5c0.1,0,0.9,0,0.9-0.2
		l0.5-1.8c-0.2,0.1-0.4,0.1-0.6,0.1c-0.7,0-1.4-0.5-1.4-1.2c0-0.5,0.7-2.3,1-2.8c1.7,1.5,3.3,3,4.6,4.9c0.3,0.4,0.4,0.8,0.6,1.2h0.3
		L528.6,646.5z M510,650.7v-1.1h-4v1.1h1.6c0,0.6-0.1,1.3-0.1,1.9v0.9h1.1v-0.9c0-0.5-0.1-1.4-0.2-1.9H510z M512.5,646.5
		c-0.6-1-1.3-2-2.2-2.9c0.7-0.9,1.9-2.2,1.9-3.5c0-1.1-0.9-1.3-1.5-2c-0.2-0.3-0.3-0.6-0.4-0.9H510l-1.1,1.9
		c0.2,0.2,0.3,0.4,0.5,0.6c0.4,0.3,1,0.5,1,1.1s-0.6,1.5-0.9,1.9c-0.8-0.7-1.5-1.5-2.2-2.2c-0.7-0.7-1.4-1.5-2.1-2.3
		c-0.2-0.3-0.3-0.6-0.4-1h-0.4l-1,1.5c0.6,0.9,1.4,1.7,1.4,2.8c0,1.6-1.1,3.1-1.1,4.7c0,1.2,1,1.5,2,1.5c0.1,0,0.9,0,0.9-0.2
		l0.5-1.8c-0.2,0.1-0.4,0.1-0.6,0.1c-0.7,0-1.4-0.5-1.4-1.2c0-0.5,0.7-2.3,1-2.8c1.7,1.5,3.3,3,4.6,4.9c0.3,0.4,0.4,0.8,0.6,1.2h0.3
		L512.5,646.5z M502.1,643.2c0-0.4,0-0.8,0-1.2c-0.1-1.7-1-4.2-3.1-4.2c-0.9,0-1.8,0.3-2.3,1.1c-0.3,0.4-0.4,0.8-0.6,1.1
		c0,0-0.1,0.1-0.1,0.1c-0.1,0-0.2-0.4-0.2-0.4c-0.2-0.9-1-1.4-1.2-2.5h-0.4l-1.1,1.8c0.6,1.1,1.5,1.7,1.5,3c0,0.7-0.3,1.4-0.5,2.1
		c-0.2,0.6-0.3,1.3-0.4,1.9c-0.1,0.6-0.1,1.3-0.1,2h0.3l1.3-1.5c0,0,0-0.9,0-1c0-0.7,0.1-1.4,0.2-2.1c0.3-1.4,1.1-3.7,2.9-3.7
		c2.2,0,2.4,3,2.4,4.6c0,0.3,0,0.7,0,1c0,0,0,0.3-0.1,0.3c-1.1,0-2.5,0-3.6,0.1l-0.5,1.7l0.2,0.2c0.9-0.1,1.8-0.1,2.7-0.1h1.9
		l0.6-1.9C502,645.6,502.1,643.5,502.1,643.2 M498.4,652.1c0-0.4-0.3-0.7-0.7-0.7c-0.4,0-0.7,0.3-0.7,0.7c0,0.4,0.3,0.7,0.7,0.7
		C498.1,652.8,498.4,652.4,498.4,652.1 M498.3,650.2c0-0.4-0.3-0.7-0.7-0.7c-0.4,0-0.7,0.3-0.7,0.7c0,0.4,0.3,0.7,0.7,0.7
		C498,650.9,498.3,650.5,498.3,650.2 M491.3,646.3c0-1.1-0.2-2.3-0.2-3.4c0-0.7,0.1-1.5,0.1-2.2c0-1.5-0.4-2.7-2.2-2.7h-1.8
		c-0.6,0-1.6,0-1.7-0.8h-0.4l-0.9,2c0.1,0.2,0.3,0.5,0.6,0.6c0.4,0.2,2,0.2,2.5,0.2c2,0,2.5,0.1,2.5,2.3v3.3c0,0.8,0,1.6,0.1,2.3
		h0.3l1.1-1.2C491.3,646.7,491.3,646.5,491.3,646.3 M480.6,643.5c0-0.4-0.3-0.7-0.7-0.7c-0.4,0-0.7,0.3-0.7,0.7
		c0,0.4,0.3,0.7,0.7,0.7C480.3,644.2,480.6,643.9,480.6,643.5 M482.9,646.7v-0.2c0-0.4,0-0.7-0.1-1.1c-0.1-0.8-0.2-1.6-0.2-2.4
		c0-0.8,0.1-1.6,0.1-2.4c0-2-0.5-1.9-2.2-2.6c-0.3-0.1-0.5-0.3-0.6-0.5c0-0.1,0-0.1-0.1-0.2h-0.4l-0.9,2c0.1,0.1,0.1,0.1,0.2,0.2
		c0.2,0.2,0.4,0.3,0.6,0.4c0.4,0.2,0.9,0.4,1.3,0.6c0.8,0.4,0.8,2.4,0.8,3.2c0,0.8,0,1.7,0,2.5c0,0.6,0,1.3,0.1,1.9h0.3L482.9,646.7
		z M471.7,640.2c0-1.9-1-2.2-2.7-2.2h-1.7c-0.5,0-1.3,0.1-1.3-0.6c0-0.7,0.2-1.4,0.2-2c0-0.2-0.1-1.6-0.3-1.6h-0.3l-1.4,1.7
		c0,0.2,0.2,0.4,0.3,0.6c0.2,0.4,0.2,0.9,0.2,1.4c0,0.4,0,0.8,0,1.2c0,1,0.4,1.5,1.4,1.5c1,0,1.9,0,2.9,0c1,0,1.1,0.8,1.1,1.6v0.3
		c-0.1,1.6-2.4,3.2-3.8,3.9l-0.3,2l0.3,0.1c1.2-0.8,2.4-1.7,3.3-2.7C470.8,644.1,471.7,641.9,471.7,640.2 M468.8,652.1
		c0-0.4-0.3-0.7-0.7-0.7c-0.4,0-0.7,0.3-0.7,0.7c0,0.4,0.3,0.7,0.7,0.7C468.5,652.8,468.8,652.4,468.8,652.1 M468.8,650.2
		c0-0.4-0.3-0.7-0.7-0.7c-0.4,0-0.7,0.3-0.7,0.7c0,0.4,0.3,0.7,0.7,0.7C468.5,650.9,468.8,650.5,468.8,650.2 M459.9,643.6v-1.1h-4
		v1.1h1.6c0,0.6-0.1,1.3-0.1,1.9v0.9h1.1v-0.9c0-0.5-0.1-1.4-0.2-1.9H459.9z M463,639c0-0.7-0.6-1-1.3-1H459c-0.7,0-1.5,0.1-1.7-0.8
		h-0.4l-0.9,2.1c0.3,0.6,1,0.7,1.7,0.7h3.6c0.1,0,0.1,0,0.1,0.1c0,0.2-0.3,0.8-0.3,1.1c-0.1,0.6-0.1,1.3-0.1,2c0,2.7,0,5.3,0.2,8
		h0.4l1.2-1.4c0-0.5-0.1-1.1-0.1-1.6c-0.1-0.9-0.1-1.7-0.1-2.6c0-0.9-0.2-1.8-0.2-2.8c0-0.6,0-1.2,0.1-1.7
		C462.5,640.4,463,639.7,463,639 M455.3,646.9c0-0.4-0.1-0.7-0.4-0.9l-0.9-0.9h-0.2l-1.3,1.3v0.2c0.5,0.4,1,0.7,1,1.4
		c0,0.7-0.5,1.7-1,2.3l0.3,0.1c0.2-0.1,0.4-0.1,0.6-0.3C454.2,649.6,455.3,647.8,455.3,646.9 M445.5,640c0-1.5-1.1-1.5-2.1-2.1
		c-0.2-0.1-0.5-0.2-0.6-0.5c0-0.1-0.1-0.2-0.1-0.3h-0.4l-0.8,2c0.5,1,2.3,0.6,2.3,2c0,0.9-0.5,2.1-0.9,2.8c0,0.1-0.2,0.4-0.2,0.4
		l0.4,0.2c0.4-0.2,1.3-1.2,1.6-1.6C445,642.2,445.5,641,445.5,640 M443,650.2c0-0.4-0.3-0.7-0.7-0.7c-0.4,0-0.7,0.3-0.7,0.7
		c0,0.4,0.3,0.7,0.7,0.7C442.7,650.9,443,650.6,443,650.2 M445.3,650.2c0-0.4-0.3-0.7-0.7-0.7c-0.4,0-0.7,0.3-0.7,0.7
		c0,0.4,0.3,0.7,0.7,0.7C445,650.9,445.3,650.6,445.3,650.2 M444.2,652.1c0-0.4-0.3-0.7-0.7-0.7c-0.4,0-0.7,0.3-0.7,0.7
		c0,0.4,0.3,0.7,0.7,0.7C443.9,652.7,444.2,652.4,444.2,652.1 M440.1,640.2c0-1.9-1-2.2-2.7-2.2h-1.7c-0.5,0-1.3,0.1-1.3-0.6
		c0-0.7,0.2-1.4,0.2-2c0-0.2-0.1-1.6-0.3-1.6H434l-1.4,1.7c0,0.2,0.2,0.4,0.3,0.6c0.2,0.4,0.2,0.9,0.2,1.4c0,0.4,0,0.8,0,1.2
		c0,1,0.4,1.5,1.4,1.5c1,0,1.9,0,2.9,0s1.1,0.8,1.1,1.6v0.3c-0.1,1.6-2.4,3.2-3.8,3.9l-0.3,2l0.3,0.1c1.2-0.8,2.4-1.7,3.3-2.7
		C439.3,644.1,440.1,641.9,440.1,640.2 M436.1,650.2c0-0.4-0.3-0.7-0.7-0.7c-0.4,0-0.7,0.3-0.7,0.7c0,0.4,0.3,0.7,0.7,0.7
		C435.8,650.9,436.1,650.6,436.1,650.2 M438.4,650.2c0-0.4-0.3-0.7-0.7-0.7c-0.4,0-0.7,0.3-0.7,0.7c0,0.4,0.3,0.7,0.7,0.7
		C438.1,650.9,438.4,650.6,438.4,650.2 M437.3,652.1c0-0.4-0.3-0.7-0.7-0.7c-0.4,0-0.7,0.3-0.7,0.7c0,0.4,0.3,0.7,0.7,0.7
		C437,652.7,437.3,652.4,437.3,652.1 M431.8,640v-2h-4.7c-0.7,0-1.5,0-1.6-0.8h-0.3l-1,2.2c0.4,0.6,0.9,0.6,1.6,0.6h3.2c0,0,0,0,0,0
		c0,0.1,0,0.3,0,0.5c0,0.6,0.1,1.3,0.1,1.9c0,0.5,0,1,0,1.5c0,1.3-0.1,2.7,0.1,4.1h0.3l1.1-1.2v-0.2c0-0.4,0-0.8,0-1.1
		c-0.1-0.6-0.2-1.3-0.2-1.9v-1.8c0-0.7,0.1-1.7,1-1.7H431.8z M423.2,646.9c0-0.4-0.1-0.7-0.4-0.9l-0.9-0.9h-0.2l-1.3,1.3v0.2
		c0.5,0.4,1,0.7,1,1.4c0,0.7-0.5,1.7-1,2.3l0.3,0.1c0.2-0.1,0.4-0.1,0.6-0.3C422.1,649.6,423.2,647.8,423.2,646.9 M413.3,641
		c0-1.2-0.3-1.9-1.2-2.6c-0.6-0.5-0.5-0.6-0.7-1.2h-0.3l-1.1,1.9c0.2,0.5,0.7,0.9,1.1,1.2s0.5,0.9,0.5,1.4c0,1.9-1.3,4.5-3.5,4.5
		c-2.2,0-2.7-1.9-2.7-3.7c0-0.5,0-1.1,0-1.6c0-0.3,0-0.7-0.1-1c-0.3-1.6-1.7-1.3-1.9-2.7h-0.3l-0.9,1.9c0.1,0.1,0.2,0.2,0.3,0.3
		c0.3,0.3,0.6,0.5,0.9,0.7c1,0.7,0.8,2.3,0.9,3.3c0,0.6,0.1,1.2,0.2,1.9c0.3,1.7,1.6,2.8,3.4,2.8c2.6,0,4.4-2.7,5.2-4.9
		C413.1,642.6,413.3,641.7,413.3,641 M409.3,640.2c0-1.1-0.5-1.4-1.2-2.1c-0.4-0.4-0.3-0.5-0.4-0.9h-0.3l-1.1,2
		c0.4,0.6,1.4,0.9,1.4,1.7c0,0.3-0.1,0.6-0.1,0.8c-0.1,0.4-0.9,2.6-1.1,2.8l0.3,0.3c0.1-0.1,0.5-0.4,0.5-0.5c0.9-0.9,1.7-2.2,2-3.4
		C409.2,640.7,409.3,640.5,409.3,640.2 M408.6,652.1c0-0.4-0.3-0.7-0.7-0.7c-0.4,0-0.7,0.3-0.7,0.7c0,0.4,0.3,0.7,0.7,0.7
		C408.3,652.8,408.6,652.4,408.6,652.1 M408.5,650.2c0-0.4-0.3-0.7-0.7-0.7c-0.4,0-0.7,0.3-0.7,0.7c0,0.4,0.3,0.7,0.7,0.7
		C408.2,650.9,408.5,650.5,408.5,650.2 M414,635.1c0-0.4-0.3-0.7-0.7-0.7c-0.4,0-0.7,0.3-0.7,0.7c0,0.4,0.3,0.7,0.7,0.7
		C413.7,635.8,414,635.5,414,635.1 M400.6,646.8v-0.1c0-0.4,0-0.7-0.1-1.1c0-0.7,0-1.3,0-2c0-0.9,0.1-1.8,0.1-2.7c0-0.6,0-1.6-0.3-2
		c-0.5-0.7-1.1-0.9-1.9-0.9h-3.8c-0.7,0-1.5,0.1-1.8-0.8h-0.4l-1,2c0.2,0.2,0.8,0.7,1,0.9c0.4,0.4,0.4,1.8,0.4,2.3
		c0,1.1-0.1,2.2-0.1,3.2c0,0.8,0.1,1.6,0.1,2.3h0.3l1.2-1.3v-0.1c0-0.4,0-0.8-0.1-1.2c-0.1-0.8-0.1-1.6-0.1-2.4c0-1,0-2,0.1-3h2.8
		c2,0,2.1,0.9,2.1,2.6c0,1-0.1,2.1-0.1,3.1c0,0.8,0.1,1.5,0.1,2.3h0.3L400.6,646.8z M398.3,650.7v-1.1h-4v1.1h1.6
		c0,0.6-0.1,1.3-0.1,1.9v0.9h1.1v-0.9c0-0.5-0.1-1.4-0.2-1.9H398.3z M390.5,645.7c-0.1,0-0.2,0-0.3,0c-0.9,0-1.1-0.9-1.1-1.6
		c0-0.5,0.1-1,0.1-1.5c0-0.7,0.1-1.4,0.1-2.1c0-0.6-0.1-1.2-0.4-1.7c-0.6-0.7-1.3-0.7-2.2-0.7c-0.6,0-2.2,0.1-2.7-0.3
		c-0.2-0.1-0.3-0.3-0.3-0.5h-0.3l-0.8,2.1c0.1,0.2,0.3,0.4,0.5,0.5c0.4,0.2,1,0.2,1.5,0.2h1.7c1.1,0,1.5,0.6,1.5,1.6v4h-1.5
		c-0.5,0-1,0-1.5,0c-0.6,0-1.1,0-1.7,0.1l-0.5,1.9l0.2,0.1c0.3-0.1,1.6-0.1,1.9-0.1c1.8,0,3.7,0,5.5,0L390.5,645.7z M388.6,649.6h-4
		v1.1h4V649.6z M381.5,640.2c0-1.9-1-2.2-2.7-2.2h-1.7c-0.5,0-1.3,0.1-1.3-0.6c0-0.7,0.2-1.4,0.2-2c0-0.2-0.1-1.6-0.3-1.6h-0.3
		l-1.4,1.7c0,0.2,0.2,0.4,0.3,0.6c0.2,0.4,0.2,0.9,0.2,1.4c0,0.4,0,0.8,0,1.2c0,1,0.4,1.5,1.4,1.5c1,0,1.9,0,2.9,0
		c1,0,1.1,0.8,1.1,1.6v0.3c-0.1,1.6-2.4,3.2-3.8,3.9l-0.3,2l0.3,0.1c1.2-0.8,2.4-1.7,3.3-2.7C380.6,644.1,381.5,641.9,381.5,640.2
		 M363.7,642.7c0-0.4-0.3-0.7-0.7-0.7c-0.4,0-0.7,0.3-0.7,0.7c0,0.4,0.3,0.7,0.7,0.7C363.4,643.4,363.7,643.1,363.7,642.7
		 M367.2,642.5c0-2.3-1-4.5-3.6-4.5c-0.6,0-1.6,0.1-2.1-0.3c-0.2-0.1-0.3-0.4-0.3-0.6h-0.4l-0.8,2.2c-0.1,0.1,0.4,0.4,0.5,0.5
		c0.5,0.3,1.3,0.2,1.8,0.2c2,0,3.3,0.4,3.3,2.6c0,0.6,0,3.1-0.9,3.1H364c-0.6,0-1.3,0-1.9,0c-0.5,0-1.1,0-1.6,0.1l-0.5,1.9l0.2,0.1
		c0.6-0.1,1.2-0.1,1.8-0.1c1,0,1.9,0,2.9,0c0.4,0,0.7-0.3,0.9-0.6C366.6,645.9,367.2,644,367.2,642.5 M360.3,635.2
		c0-0.4-0.3-0.7-0.7-0.7c-0.4,0-0.7,0.3-0.7,0.7c0,0.4,0.3,0.7,0.7,0.7C360,635.8,360.3,635.5,360.3,635.2 M358.9,640.2
		c0-1.9-1-2.2-2.7-2.2h-1.7c-0.5,0-1.3,0.1-1.3-0.6c0-0.7,0.2-1.4,0.2-2c0-0.2-0.1-1.6-0.3-1.6h-0.3l-1.4,1.7c0,0.2,0.2,0.4,0.3,0.6
		c0.2,0.4,0.2,0.9,0.2,1.4c0,0.4,0,0.8,0,1.2c0,1,0.4,1.5,1.4,1.5c1,0,1.9,0,2.9,0c1,0,1.1,0.8,1.1,1.6v0.3
		c-0.1,1.6-2.4,3.2-3.8,3.9l-0.3,2l0.3,0.1c1.2-0.8,2.4-1.7,3.3-2.7C358.1,644.1,358.9,641.9,358.9,640.2 M344.8,641.6
		c0-1.9-0.8-4-3-4c-0.4,0-0.8,0.1-1.2,0.3c-0.7,0.4-0.9,1.5-1.1,2.3l0.4,0.2c0.4-0.5,0.8-0.8,1.4-0.8c1.5,0,1.8,1.5,1.8,2.7
		c0,1.8-0.8,3.5-2.8,3.5c-2,0-2.4-2.2-2.4-3.8c0-0.7,0-1.4,0-2.1c0-0.5,0-1.1-0.4-1.5c-0.3-0.3-0.8-0.5-1-0.7
		c-0.2-0.2-0.3-0.5-0.3-0.7h-0.3l-1.1,1.9c0.3,0.8,1.4,0.8,1.6,1.8c0.1,0.5,0.1,1.1,0.2,1.7c0.1,0.9,0.1,1.8,0.2,2.6
		c0.2,1.6,1.5,2.9,3.2,2.9c1.9,0,3-1.4,3.8-2.9C344.5,644,344.8,642.9,344.8,641.6 M340.5,650.3c0-0.4-0.3-0.7-0.7-0.7
		c-0.4,0-0.7,0.3-0.7,0.7c0,0.4,0.3,0.7,0.7,0.7C340.2,650.9,340.5,650.6,340.5,650.3 M333.6,640c0-1.5-1.1-1.5-2.1-2.1
		c-0.2-0.1-0.5-0.2-0.6-0.5c0-0.1-0.1-0.2-0.1-0.3h-0.4l-0.8,2c0.5,1,2.3,0.6,2.3,2c0,0.9-0.5,2.1-0.9,2.8c0,0.1-0.2,0.4-0.2,0.4
		l0.4,0.2c0.4-0.2,1.3-1.2,1.6-1.6C333.1,642.2,333.6,641,333.6,640 M325.6,643.1c0-0.4-0.3-0.7-0.7-0.7c-0.4,0-0.7,0.3-0.7,0.7
		c0,0.4,0.3,0.7,0.7,0.7C325.3,643.8,325.6,643.4,325.6,643.1 M328.1,643.5c0-1.2-0.1-4-1.3-4.7c-0.8-0.5-1.5-0.6-2.3-0.7
		c-0.2,0-0.5-0.1-0.7-0.2c-0.3-0.1-0.5-0.3-0.6-0.6h-0.4c-0.7,1.1-2,3.5-2,4.8c0,1.3,0.9,1.8,1.9,2.2l0.8-1.8
		c-0.1,0-0.2-0.1-0.3-0.1c-0.4-0.3-0.8-0.6-0.9-1.1c0-0.1,0-0.3,0-0.4c0-0.5,0.2-1,0.8-1c0.1,0,0.1,0,0.2,0l1.9,0.3
		c1.4,0.3,1.5,2.8,1.5,4c0,0.2,0,1.4-0.1,1.6c-1.2,0-2.5,0-3.7,0c-0.5,0-1,0-1.4,0.1l-0.7,1.8l0.2,0.1c0.6-0.1,1.3-0.1,1.9-0.1
		c0.8,0,1.6,0,2.5,0c0.7,0,1.3,0,2-0.1c0,0,0.1,0,0.1,0C327.9,645.8,328.1,645.4,328.1,643.5 M326.5,650.7v-1.1h-4v1.1h1.6
		c0,0.6-0.1,1.3-0.1,1.9v0.9h1.1v-0.9c0-0.5-0.1-1.4-0.2-1.9H326.5z M313,641.6h-0.3l-1.1,1.2c-0.1,0.9-0.1,1.7-0.1,2.6
		c0,0.9,0,1.7,0.1,2.6h0.3l1-1.1c0-0.9,0-1.9,0-2.8C312.9,643.3,313,642.4,313,641.6 M318.9,646.8c0-1.2-0.2-2.2-0.2-3.3
		c0-1,0.1-1.9,0.1-2.9c0-0.5,0-1.2-0.3-1.6c-0.5-0.6-1.1-0.9-1.8-0.9h-2.7c-0.7,0-1.7,0.1-1.8-0.8h-0.3l-0.9,2.1
		c0.4,0.6,0.9,0.7,1.6,0.7h3.4c1.4,0,1.5,0.9,1.6,2.1c0,0.9,0.1,1.7,0.1,2.6c0,0.5,0,0.9,0,1.4c0,0.6,0.1,1.3,0.2,1.9h0.2
		L318.9,646.8z M308.3,646.9v-0.1c-0.6-0.4-1-0.7-1.4-1.3h-0.1l-1.3,1.4v0.1c0.5,0.6,0.7,0.8,1.4,1.2h0.2L308.3,646.9z M309.2,638.7
		c0-1.4-1.2-2-2.4-2c-0.5,0-1,0.1-1.5,0.2l-0.9,1.6l0.3,0.2c0.4-0.2,0.9-0.4,1.4-0.4c0.7,0,1.5,0.2,1.5,1c0,1.5-1.9,2.1-1.9,3.3
		c0,0.5,0.2,1,0.6,1.4h0.1l1.3-1c-0.2-0.2-0.4-0.6-0.4-0.9C307.3,641,309.2,640.5,309.2,638.7 M299.8,635.8l-0.1-0.2l-1.8,1
		c0.1,0.3,0.1,0.6,0.1,0.9c0,1.2-0.4,2.4-1,3.5l0.2,0.1c0.4-0.2,0.8-0.5,1.1-0.9c0.1-0.2,0.3-0.4,0.4-0.6
		C299.3,638.5,299.8,637,299.8,635.8 M302.9,635.8l-0.1-0.2l-1.8,1c0.1,0.3,0.1,0.6,0.1,0.9c0,1.2-0.4,2.4-1,3.5l0.2,0.1
		c0.4-0.2,0.8-0.5,1.1-0.9c0.1-0.2,0.3-0.4,0.4-0.6C302.4,638.6,302.9,637,302.9,635.8"/>
	<path class="st0" d="M537.4,609.6h-0.3l-1.1,1.2c-0.1,0.9-0.1,1.7-0.1,2.6c0,0.9,0,1.7,0.1,2.6h0.3l1-1.1c0-0.9,0-1.9,0-2.8
		C537.3,611.3,537.4,610.4,537.4,609.6 M543.3,614.8c0-1.2-0.2-2.2-0.2-3.3c0-1,0.1-1.9,0.1-2.9c0-0.5,0-1.2-0.3-1.6
		c-0.5-0.6-1.1-0.9-1.8-0.9h-2.7c-0.7,0-1.7,0.1-1.8-0.8h-0.3l-0.9,2.1c0.4,0.6,0.9,0.7,1.6,0.7h3.4c1.4,0,1.5,0.9,1.6,2.1
		c0,0.9,0.1,1.7,0.1,2.6c0,0.5,0,0.9,0,1.4c0,0.6,0.1,1.3,0.2,1.9h0.2L543.3,614.8z M531.1,611.5c0-0.4-0.3-0.7-0.7-0.7
		c-0.4,0-0.7,0.3-0.7,0.7c0,0.4,0.3,0.7,0.7,0.7C530.8,612.2,531.1,611.9,531.1,611.5 M533.5,614.7v-0.2c0-0.4,0-0.7-0.1-1.1
		c-0.1-0.8-0.2-1.6-0.2-2.4c0-0.8,0.1-1.6,0.1-2.4c0-2-0.5-1.9-2.2-2.6c-0.3-0.1-0.5-0.3-0.6-0.5c0-0.1,0-0.1-0.1-0.2H530l-0.9,2
		c0.1,0.1,0.1,0.1,0.2,0.2c0.2,0.2,0.4,0.3,0.6,0.4c0.4,0.2,0.9,0.4,1.3,0.6c0.8,0.4,0.8,2.4,0.8,3.2c0,0.8,0,1.7,0,2.5
		c0,0.6,0,1.3,0.1,1.9h0.3L533.5,614.7z M528,614.5c-0.6-1-1.3-2-2.2-2.9c0.7-0.9,1.9-2.2,1.9-3.5c0-1.1-0.9-1.3-1.5-2
		c-0.2-0.3-0.3-0.6-0.4-0.9h-0.4l-1.1,1.9c0.2,0.2,0.3,0.4,0.5,0.6c0.4,0.3,1,0.5,1,1.1s-0.6,1.5-0.9,1.9c-0.8-0.7-1.5-1.5-2.2-2.2
		c-0.7-0.7-1.4-1.5-2.1-2.3c-0.2-0.3-0.3-0.6-0.4-1H520l-1,1.5c0.6,0.9,1.4,1.7,1.4,2.8c0,1.6-1.1,3.1-1.1,4.7c0,1.2,1,1.5,2,1.5
		c0.1,0,0.9,0,0.9-0.2l0.5-1.8c-0.2,0.1-0.4,0.1-0.6,0.1c-0.7,0-1.4-0.5-1.4-1.2c0-0.5,0.7-2.3,1-2.8c1.7,1.5,3.3,3,4.6,4.9
		c0.3,0.4,0.4,0.8,0.6,1.2h0.3L528,614.5z M512,608.5c0-0.3,0-0.7-0.2-1.1c-0.3-0.9-1-0.9-1.7-1.3c-0.4-0.2-0.4-0.5-0.6-0.9h-0.3
		l-1,1.9c0.3,0.8,2.3,1,2.3,2.5c0,1.5-1.7,2.9-2.9,3.6c-0.1-0.9-0.3-1.7-0.4-2.6c-0.2-1.1-0.3-2.3-0.6-3.4c-0.1-0.6-0.9-0.8-1.4-1.1
		c-0.5-0.3-0.6-0.4-0.8-0.9h-0.4l-1,1.8c0.4,0.7,1.1,0.9,1.7,1.3c0.5,0.3,0.8,2,0.9,2.5l0.5,3.4c-0.7,0.5-1.4,0.9-2.2,1.3l-0.2,1.8
		l0.2,0.1c0.2-0.1,1-0.5,1.3-0.7c1.6-0.9,4.3-2.7,5.3-4.1C511.4,611.6,512,609.8,512,608.5 M509.7,618.7v-1.1h-4v1.1h1.6
		c0,0.6-0.1,1.3-0.1,1.9v0.9h1.1v-0.9c0-0.5-0.1-1.4-0.2-1.9H509.7z M501.7,614.1c0-0.3-0.1-0.6-0.1-0.8c0-0.6-0.1-1.1-0.1-1.7
		c0-1.1,0.1-2.1,0.1-3.2c0-1.6-0.6-1.7-1.9-2.3c-0.3-0.1-0.5-0.3-0.7-0.5c-0.1-0.1-0.2-0.3-0.2-0.3h-0.4l-0.9,2
		c0.1,0.2,0.5,0.5,0.7,0.6c1.1,0.7,1.9,0.4,1.9,2.1l0.1,4h-2.6l-0.4,1.9h4.2C501.4,615.6,501.7,614.2,501.7,614.1 M501.8,617.6h-4
		v1.1h4V617.6z M489.9,609.6h-0.3l-1.1,1.2c-0.1,0.9-0.1,1.7-0.1,2.6c0,0.9,0,1.7,0.1,2.6h0.3l1-1.1c0-0.9,0-1.9,0-2.8
		C489.8,611.3,489.8,610.4,489.9,609.6 M495.7,614.8c0-1.2-0.2-2.2-0.2-3.3c0-1,0.1-1.9,0.1-2.9c0-0.5,0-1.2-0.3-1.6
		c-0.5-0.6-1.1-0.9-1.8-0.9h-2.7c-0.7,0-1.7,0.1-1.8-0.8h-0.3l-0.9,2.1c0.4,0.6,0.9,0.7,1.6,0.7h3.4c1.4,0,1.5,0.9,1.6,2.1
		c0,0.9,0.1,1.7,0.1,2.6c0,0.5,0,0.9,0,1.4c0,0.6,0.1,1.3,0.2,1.9h0.2L495.7,614.8z M480.6,608.2c0-1.9-1-2.2-2.7-2.2h-1.7
		c-0.5,0-1.3,0.1-1.3-0.6c0-0.7,0.2-1.4,0.2-2c0-0.2-0.1-1.6-0.3-1.6h-0.3l-1.4,1.7c0,0.2,0.2,0.4,0.3,0.6c0.2,0.4,0.2,0.9,0.2,1.4
		c0,0.4,0,0.8,0,1.2c0,1,0.4,1.5,1.4,1.5c1,0,1.9,0,2.9,0c1,0,1.1,0.8,1.1,1.6v0.3c-0.1,1.6-2.4,3.2-3.8,3.9l-0.3,2l0.3,0.1
		c1.2-0.8,2.4-1.7,3.3-2.7C479.7,612.1,480.6,609.9,480.6,608.2 M477.7,618.3c0-0.4-0.3-0.7-0.7-0.7c-0.4,0-0.7,0.3-0.7,0.7
		c0,0.4,0.3,0.7,0.7,0.7C477.4,618.9,477.7,618.6,477.7,618.3 M472.1,608c0-1.5-1.1-1.5-2.1-2.1c-0.2-0.1-0.5-0.2-0.6-0.5
		c0-0.1-0.1-0.2-0.1-0.3h-0.4l-0.8,2c0.5,1,2.3,0.6,2.3,2c0,0.9-0.5,2.1-0.9,2.8c0,0.1-0.2,0.4-0.2,0.4l0.4,0.2
		c0.4-0.2,1.3-1.2,1.6-1.6C471.6,610.2,472.1,609,472.1,608 M456.9,610.8c0-0.4-0.3-0.7-0.7-0.7c-0.4,0-0.7,0.3-0.7,0.7
		c0,0.4,0.3,0.7,0.7,0.7C456.6,611.4,456.9,611.1,456.9,610.8 M461.3,613.7c-0.1,0-0.2,0-0.3,0c-0.9,0-1.1-0.9-1.1-1.6
		c0-0.5,0.1-1,0.1-1.5c0-0.7,0.1-1.4,0.1-2.1c0-0.6-0.1-1.2-0.4-1.7c-0.6-0.7-1.3-0.7-2.2-0.7c-0.6,0-2.2,0.1-2.7-0.3
		c-0.2-0.1-0.3-0.3-0.3-0.5h-0.3l-0.8,2.1c0.1,0.2,0.3,0.4,0.5,0.5c0.4,0.2,1,0.2,1.5,0.2h1.7c1.1,0,1.5,0.6,1.5,1.6v4H457
		c-0.5,0-1,0-1.5,0c-0.6,0-1.1,0-1.7,0.1l-0.5,1.9l0.2,0.1c0.3-0.1,1.6-0.1,1.9-0.1c1.8,0,3.7,0,5.5,0L461.3,613.7z M458,620.1
		c0-0.4-0.3-0.7-0.7-0.7c-0.4,0-0.7,0.3-0.7,0.7c0,0.4,0.3,0.7,0.7,0.7C457.7,620.8,458,620.4,458,620.1 M458,618.2
		c0-0.4-0.3-0.7-0.7-0.7c-0.4,0-0.7,0.3-0.7,0.7c0,0.4,0.3,0.7,0.7,0.7C457.7,618.9,458,618.5,458,618.2 M449.6,603.7
		c0-0.4-0.3-0.7-0.7-0.7c-0.4,0-0.7,0.3-0.7,0.7c0,0.4,0.3,0.7,0.7,0.7C449.3,604.4,449.6,604.1,449.6,603.7 M452.2,609
		c0-1.2-0.3-1.9-1.2-2.6c-0.6-0.5-0.5-0.6-0.7-1.2H450l-1.1,1.9c0.2,0.5,0.7,0.9,1.1,1.2s0.5,0.9,0.5,1.4c0,1.9-1.3,4.5-3.5,4.5
		c-2.2,0-2.7-1.9-2.7-3.7c0-0.5,0-1.1,0-1.6c0-0.3,0-0.7-0.1-1c-0.3-1.6-1.7-1.3-1.9-2.7h-0.3l-0.9,1.9c0.1,0.1,0.2,0.2,0.3,0.3
		c0.3,0.3,0.6,0.5,0.9,0.7c1,0.7,0.8,2.3,0.9,3.3c0,0.6,0.1,1.2,0.2,1.9c0.3,1.7,1.6,2.8,3.4,2.8c2.6,0,4.4-2.7,5.2-4.9
		C452,610.6,452.2,609.7,452.2,609 M448.1,608.2c0-1.1-0.5-1.4-1.2-2.1c-0.4-0.4-0.3-0.5-0.4-0.9h-0.3l-1.1,2
		c0.4,0.6,1.4,0.9,1.4,1.7c0,0.3-0.1,0.6-0.1,0.8c-0.1,0.4-0.9,2.6-1.1,2.8l0.3,0.3c0.1-0.1,0.5-0.4,0.5-0.5c0.9-0.9,1.7-2.2,2-3.4
		C448.1,608.7,448.1,608.5,448.1,608.2 M446.3,618.2c0-0.4-0.3-0.7-0.7-0.7c-0.4,0-0.7,0.3-0.7,0.7c0,0.4,0.3,0.7,0.7,0.7
		C446,618.9,446.3,618.6,446.3,618.2 M448.6,618.2c0-0.4-0.3-0.7-0.7-0.7c-0.4,0-0.7,0.3-0.7,0.7c0,0.4,0.3,0.7,0.7,0.7
		C448.3,618.9,448.6,618.6,448.6,618.2 M447.5,620.1c0-0.4-0.3-0.7-0.7-0.7c-0.4,0-0.7,0.3-0.7,0.7c0,0.4,0.3,0.7,0.7,0.7
		C447.2,620.7,447.5,620.4,447.5,620.1 M433.9,617.8c0-1.9-0.2-3.8-0.2-5.8c0-0.8,0-1.6,0.1-2.4h-0.4l-1.1,1.2
		c0,0.8-0.1,1.7-0.1,2.5c0,2,0,3.9,0.2,5.9h0.4L433.9,617.8z M439.9,608.5c0-1.8-0.6-2.5-2.4-2.5h-3.2c-0.6,0-1.5,0-1.7-0.8h-0.4
		l-0.9,2c0.4,0.7,0.9,0.8,1.7,0.8h4.3c0.9,0,1,1.1,1,1.8c0,0.2,0,0.3,0,0.5c0,1-0.3,1.4-1.1,2c-0.6,0.5-1.3,1-1.9,1.5l-0.2,2
		l0.2,0.2c1-0.7,2.5-1.8,3.2-2.8C439.4,612,439.9,610.1,439.9,608.5 M435,618.2c0-0.4-0.3-0.7-0.7-0.7c-0.4,0-0.7,0.3-0.7,0.7
		c0,0.4,0.3,0.7,0.7,0.7C434.7,618.9,435,618.6,435,618.2 M437.3,618.2c0-0.4-0.3-0.7-0.7-0.7c-0.4,0-0.7,0.3-0.7,0.7
		c0,0.4,0.3,0.7,0.7,0.7C437,618.9,437.3,618.6,437.3,618.2 M436.2,620.1c0-0.4-0.3-0.7-0.7-0.7c-0.4,0-0.7,0.3-0.7,0.7
		c0,0.4,0.3,0.7,0.7,0.7C435.9,620.7,436.2,620.4,436.2,620.1 M429.8,609.6c0-1.9-0.8-4-3-4c-0.4,0-0.8,0.1-1.2,0.3
		c-0.7,0.4-0.9,1.5-1.1,2.3l0.4,0.2c0.4-0.5,0.8-0.8,1.4-0.8c1.5,0,1.8,1.5,1.8,2.7c0,1.8-0.8,3.5-2.8,3.5c-2,0-2.4-2.2-2.4-3.8
		c0-0.7,0-1.4,0-2.1c0-0.5,0-1.1-0.4-1.5c-0.3-0.3-0.8-0.5-1-0.7c-0.2-0.2-0.3-0.5-0.3-0.7h-0.3l-1.1,1.9c0.3,0.8,1.4,0.8,1.6,1.8
		c0.1,0.5,0.1,1.1,0.2,1.7c0.1,0.9,0.1,1.8,0.2,2.6c0.2,1.6,1.5,2.9,3.2,2.9c1.9,0,3-1.4,3.8-2.9C429.5,612,429.8,610.9,429.8,609.6
		 M418.6,614.9c0-0.4-0.1-0.7-0.4-0.9l-0.9-0.9h-0.2l-1.3,1.3v0.2c0.5,0.4,1,0.7,1,1.4c0,0.7-0.5,1.7-1,2.3l0.3,0.1
		c0.2-0.1,0.4-0.1,0.6-0.3C417.5,617.6,418.6,615.8,418.6,614.9 M408.4,614.7v-0.2c0-0.4,0-0.7-0.1-1.1c-0.1-0.8-0.2-1.6-0.2-2.4
		c0-0.8,0.1-1.6,0.1-2.4c0-2-0.5-1.9-2.2-2.6c-0.3-0.1-0.5-0.3-0.6-0.5c0-0.1,0-0.1-0.1-0.2h-0.4l-0.9,2c0.1,0.1,0.1,0.1,0.2,0.2
		c0.2,0.2,0.4,0.3,0.6,0.4c0.4,0.2,0.9,0.4,1.3,0.6c0.8,0.4,0.8,2.4,0.8,3.2c0,0.8,0,1.7,0,2.5c0,0.6,0,1.3,0.1,1.9h0.3L408.4,614.7
		z M407.2,620.1c0-0.4-0.3-0.7-0.7-0.7c-0.4,0-0.7,0.3-0.7,0.7c0,0.4,0.3,0.7,0.7,0.7C406.9,620.8,407.2,620.4,407.2,620.1
		 M407.2,618.2c0-0.4-0.3-0.7-0.7-0.7c-0.4,0-0.7,0.3-0.7,0.7c0,0.4,0.3,0.7,0.7,0.7C406.9,618.9,407.2,618.5,407.2,618.2
		 M396.6,609.6h-0.3l-1.1,1.2c-0.1,0.9-0.1,1.7-0.1,2.6c0,0.9,0,1.7,0.1,2.6h0.3l1-1.1c0-0.9,0-1.9,0-2.8
		C396.5,611.3,396.6,610.4,396.6,609.6 M402.5,614.8c0-1.2-0.2-2.2-0.2-3.3c0-1,0.1-1.9,0.1-2.9c0-0.5,0-1.2-0.3-1.6
		c-0.5-0.6-1.1-0.9-1.8-0.9h-2.7c-0.7,0-1.7,0.1-1.8-0.8h-0.3l-0.9,2.1c0.4,0.6,0.9,0.7,1.6,0.7h3.4c1.4,0,1.5,0.9,1.6,2.1
		c0,0.9,0.1,1.7,0.1,2.6c0,0.5,0,0.9,0,1.4c0,0.6,0.1,1.3,0.2,1.9h0.2L402.5,614.8z M391.8,603.7c0-0.4-0.3-0.7-0.7-0.7
		c-0.4,0-0.7,0.3-0.7,0.7c0,0.4,0.3,0.7,0.7,0.7C391.5,604.4,391.8,604.1,391.8,603.7 M392.7,614.7v-0.2c0-0.4,0-0.7-0.1-1.1
		c-0.1-0.8-0.2-1.6-0.2-2.4c0-0.8,0.1-1.6,0.1-2.4c0-2-0.5-1.9-2.2-2.6c-0.3-0.1-0.5-0.3-0.6-0.5c0-0.1,0-0.1-0.1-0.2h-0.4l-0.9,2
		c0.1,0.1,0.1,0.1,0.2,0.2c0.2,0.2,0.4,0.3,0.6,0.4c0.4,0.2,0.9,0.4,1.3,0.6c0.8,0.4,0.8,2.4,0.8,3.2c0,0.8,0,1.7,0,2.5
		c0,0.6,0,1.3,0.1,1.9h0.3L392.7,614.7z M385.7,610.5c0,1.8-0.9,3.6-2.9,3.6c-1.8,0-2.4-1.6-2.4-3.2V608h3.6
		C385.4,608,385.7,609.2,385.7,610.5 M387.2,609.4c0-2.7-1.4-3.4-3.9-3.4h-2.5c-0.8,0-1.9,0.2-2.1-0.8h-0.4l-1,1.9
		c0,0.3,0.6,0.7,0.8,0.8c0.8,0.5,0.7,2.5,0.8,3.4c0.1,2.2,0.8,4.7,3.5,4.7c2.9,0,4.6-3.6,4.7-6.1
		C387.2,609.8,387.2,609.6,387.2,609.4 M383.2,618.3c0-0.4-0.3-0.7-0.7-0.7c-0.4,0-0.7,0.3-0.7,0.7c0,0.4,0.3,0.7,0.7,0.7
		C382.9,618.9,383.2,618.6,383.2,618.3 M376.4,608c0-1.5-1.1-1.5-2.1-2.1c-0.2-0.1-0.5-0.2-0.6-0.5c0-0.1-0.1-0.2-0.1-0.3h-0.4
		l-0.8,2c0.5,1,2.3,0.6,2.3,2c0,0.9-0.5,2.1-0.9,2.8c0,0.1-0.2,0.4-0.2,0.4l0.4,0.2c0.4-0.2,1.3-1.2,1.6-1.6
		C375.8,610.2,376.4,609,376.4,608 M370.7,616.8c0-0.8-0.1-1.5-0.2-2.2c-0.1-0.5-0.1-1-0.1-1.5c0-1,0.1-2,0.1-3
		c0-1.1-0.1-2.6-1.1-3.3c-0.6-0.3-1.1-0.5-1.8-0.6c-0.3,0-0.8-0.1-1-0.2c-0.3-0.1-0.5-0.4-0.5-0.7h-0.4c-0.7,1.2-2.2,3.9-2.2,5.2
		c0,1.3,1.2,2,2.2,2.4l0.8-1.8c-1-0.1-1.3-0.9-1.3-1.8c0-0.5,0.2-1.3,0.8-1.3c0.3,0,1.6,0.3,2,0.4c0.4,0.1,0.7,0.4,0.8,0.8
		c0.3,0.9,0.4,2.8,0.4,3.7c0,1.1-0.1,2.1-0.1,3.2c0,1,0.1,2.1,0.2,3.1h0.3l1.2-1.5C370.7,617.7,370.7,616.9,370.7,616.8
		 M356.9,608.2c0-1.9-1-2.2-2.7-2.2h-1.7c-0.5,0-1.3,0.1-1.3-0.6c0-0.7,0.2-1.4,0.2-2c0-0.2-0.1-1.6-0.3-1.6h-0.3l-1.4,1.7
		c0,0.2,0.2,0.4,0.3,0.6c0.2,0.4,0.2,0.9,0.2,1.4c0,0.4,0,0.8,0,1.2c0,1,0.4,1.5,1.4,1.5c1,0,1.9,0,2.9,0c1,0,1.1,0.8,1.1,1.6v0.3
		c-0.1,1.6-2.4,3.2-3.8,3.9l-0.3,2l0.3,0.1c1.2-0.8,2.4-1.7,3.3-2.7C356,612.1,356.9,609.9,356.9,608.2 M352.8,618.2
		c0-0.4-0.3-0.7-0.7-0.7c-0.4,0-0.7,0.3-0.7,0.7c0,0.4,0.3,0.7,0.7,0.7C352.5,618.9,352.8,618.6,352.8,618.2 M355.2,618.2
		c0-0.4-0.3-0.7-0.7-0.7c-0.4,0-0.7,0.3-0.7,0.7c0,0.4,0.3,0.7,0.7,0.7C354.9,618.9,355.2,618.6,355.2,618.2 M354.1,620.1
		c0-0.4-0.3-0.7-0.7-0.7c-0.4,0-0.7,0.3-0.7,0.7c0,0.4,0.3,0.7,0.7,0.7C353.8,620.7,354.1,620.4,354.1,620.1 M348.4,609.6
		c0-1.9-0.8-4-3-4c-0.4,0-0.8,0.1-1.2,0.3c-0.7,0.4-0.9,1.5-1.1,2.3l0.4,0.2c0.4-0.5,0.8-0.8,1.4-0.8c1.5,0,1.8,1.5,1.8,2.7
		c0,1.8-0.8,3.5-2.8,3.5c-2,0-2.4-2.2-2.4-3.8c0-0.7,0-1.4,0-2.1c0-0.5,0-1.1-0.4-1.5c-0.3-0.3-0.8-0.5-1-0.7
		c-0.2-0.2-0.3-0.5-0.3-0.7h-0.3l-1.1,1.9c0.3,0.8,1.4,0.8,1.6,1.8c0.1,0.5,0.1,1.1,0.2,1.7c0.1,0.9,0.1,1.8,0.2,2.6
		c0.2,1.6,1.5,2.9,3.2,2.9c1.9,0,3-1.4,3.8-2.9C348.1,612,348.4,610.9,348.4,609.6 M344.2,618.3c0-0.4-0.3-0.7-0.7-0.7
		c-0.4,0-0.7,0.3-0.7,0.7c0,0.4,0.3,0.7,0.7,0.7C343.9,618.9,344.2,618.6,344.2,618.3 M337.3,608c0-1.5-1.1-1.5-2.1-2.1
		c-0.2-0.1-0.5-0.2-0.6-0.5c0-0.1-0.1-0.2-0.1-0.3H334l-0.8,2c0.5,1,2.3,0.6,2.3,2c0,0.9-0.5,2.1-0.9,2.8c0,0.1-0.2,0.4-0.2,0.4
		l0.4,0.2c0.4-0.2,1.3-1.2,1.6-1.6C336.8,610.2,337.3,609,337.3,608 M331.7,611.5c0-1.2-0.1-4-1.3-4.7c-0.8-0.5-1.5-0.6-2.3-0.7
		c-0.2,0-0.5-0.1-0.7-0.2c-0.3-0.1-0.5-0.3-0.6-0.6h-0.4c-0.7,1.1-2,3.5-2,4.8c0,1.3,0.9,1.8,1.9,2.2l0.8-1.8
		c-0.1,0-0.2-0.1-0.3-0.1c-0.4-0.3-0.8-0.6-0.9-1.1c0-0.1,0-0.3,0-0.4c0-0.5,0.2-1,0.8-1c0.1,0,0.1,0,0.2,0l1.9,0.3
		c1.4,0.3,1.5,2.8,1.5,4c0,0.2,0,1.4-0.1,1.6c-1.2,0-2.5,0-3.7,0c-0.5,0-1,0-1.4,0.1l-0.7,1.8l0.2,0.1c0.6-0.1,1.3-0.1,1.9-0.1
		c0.8,0,1.6,0,2.5,0c0.7,0,1.3,0,2-0.1c0,0,0.1,0,0.1,0C331.6,613.8,331.7,613.4,331.7,611.5 M330.1,617.6h-4v1.1h4V617.6z
		 M316.7,609.6h-0.3l-1.1,1.2c-0.1,0.9-0.1,1.7-0.1,2.6c0,0.9,0,1.7,0.1,2.6h0.3l1-1.1c0-0.9,0-1.9,0-2.8
		C316.6,611.3,316.6,610.4,316.7,609.6 M322.6,614.8c0-1.2-0.2-2.2-0.2-3.3c0-1,0.1-1.9,0.1-2.9c0-0.5,0-1.2-0.3-1.6
		c-0.5-0.6-1.1-0.9-1.8-0.9h-2.7c-0.7,0-1.7,0.1-1.8-0.8h-0.3l-0.9,2.1c0.4,0.6,0.9,0.7,1.6,0.7h3.4c1.4,0,1.5,0.9,1.6,2.1
		c0,0.9,0.1,1.7,0.1,2.6c0,0.5,0,0.9,0,1.4c0,0.6,0.1,1.3,0.2,1.9h0.2L322.6,614.8z"/>
	<path class="st0" d="M543.7,582.5c-0.6-1-1.3-2-2.2-2.9c0.7-0.9,1.9-2.2,1.9-3.5c0-1.1-0.9-1.3-1.5-2c-0.2-0.3-0.3-0.6-0.4-0.9
		h-0.4l-1.1,1.9c0.2,0.2,0.3,0.4,0.5,0.6c0.4,0.3,1,0.5,1,1.1s-0.6,1.5-0.9,1.9c-0.8-0.7-1.5-1.5-2.2-2.2c-0.7-0.7-1.4-1.5-2.1-2.3
		c-0.2-0.3-0.3-0.6-0.4-1h-0.4l-1,1.5c0.6,0.9,1.4,1.7,1.4,2.8c0,1.6-1.1,3.1-1.1,4.7c0,1.2,1,1.5,2,1.5c0.1,0,0.9,0,0.9-0.2
		l0.5-1.8c-0.2,0.1-0.4,0.1-0.6,0.1c-0.7,0-1.4-0.5-1.4-1.2c0-0.5,0.7-2.3,1-2.8c1.7,1.5,3.3,3,4.6,4.9c0.3,0.4,0.4,0.8,0.6,1.2h0.3
		L543.7,582.5z M538.7,586.2c0-0.4-0.3-0.7-0.7-0.7c-0.4,0-0.7,0.3-0.7,0.7c0,0.4,0.3,0.7,0.7,0.7
		C538.4,586.9,538.7,586.6,538.7,586.2 M541,586.2c0-0.4-0.3-0.7-0.7-0.7c-0.4,0-0.7,0.3-0.7,0.7c0,0.4,0.3,0.7,0.7,0.7
		C540.7,586.9,541,586.6,541,586.2 M539.9,588.1c0-0.4-0.3-0.7-0.7-0.7c-0.4,0-0.7,0.3-0.7,0.7c0,0.4,0.3,0.7,0.7,0.7
		C539.6,588.7,539.9,588.4,539.9,588.1 M533,582.1c0-1.3-0.3-2.7-0.3-4c0-0.6,0.1-1.2,0.1-1.8c0-0.4,0-1-0.3-1.4
		c-0.5-0.6-1.1-0.9-1.8-0.9h-4c-0.7,0-1.6,0.1-1.8-0.8h-0.3l-0.9,2.2c0.2,0.3,0.5,0.5,0.9,0.7c0.6,0.2,0.7,1.3,0.8,1.9
		c0.2,1.3,0.3,2.5,0.3,3.8c-0.6,0-1.1,0-1.7,0.1l-0.5,1.9c1.1-0.1,2.2,0,3.3-0.1l0.4-1.7c0,0-0.1-0.8-0.1-0.8
		c-0.1-0.7-0.2-1.4-0.3-2.1c-0.1-1-0.1-2.1-0.1-3.1h2.6c0.7,0,1.4,0.1,1.8,0.7c0.3,0.4,0.3,1.5,0.3,2.1v2.9c0,0.8,0,1.6,0.2,2.3h0.3
		l1.2-1.3C532.9,582.5,533,582.3,533,582.1 M513.9,579.1c0-0.4-0.3-0.7-0.7-0.7c-0.4,0-0.7,0.3-0.7,0.7c0,0.4,0.3,0.7,0.7,0.7
		C513.6,579.8,513.9,579.4,513.9,579.1 M516.4,579.5c0-1.2-0.1-4-1.3-4.7c-0.8-0.5-1.5-0.6-2.3-0.7c-0.2,0-0.5-0.1-0.7-0.2
		c-0.3-0.1-0.5-0.3-0.6-0.6h-0.4c-0.7,1.1-2,3.5-2,4.8c0,1.3,0.9,1.8,1.9,2.2l0.8-1.8c-0.1,0-0.2-0.1-0.3-0.1
		c-0.4-0.3-0.8-0.6-0.9-1.1c0-0.1,0-0.3,0-0.4c0-0.5,0.2-1,0.8-1c0.1,0,0.1,0,0.2,0l1.9,0.3c1.4,0.3,1.5,2.8,1.5,4
		c0,0.2,0,1.4-0.1,1.6c-1.2,0-2.5,0-3.7,0c-0.5,0-1,0-1.4,0.1l-0.7,1.8l0.2,0.1c0.6-0.1,1.3-0.1,1.9-0.1c0.8,0,1.6,0,2.5,0
		c0.7,0,1.3,0,2-0.1c0,0,0.1,0,0.1,0C516.2,581.8,516.4,581.4,516.4,579.5 M513.5,586.3c0-0.4-0.3-0.7-0.7-0.7
		c-0.4,0-0.7,0.3-0.7,0.7c0,0.4,0.3,0.7,0.7,0.7C513.2,586.9,513.5,586.6,513.5,586.3 M507.6,576c0-1.5-1.1-1.5-2.1-2.1
		c-0.2-0.1-0.5-0.2-0.6-0.5c0-0.1-0.1-0.2-0.1-0.3h-0.4l-0.8,2c0.5,1,2.3,0.6,2.3,2c0,0.9-0.5,2.1-0.9,2.8c0,0.1-0.2,0.4-0.2,0.4
		l0.4,0.2c0.4-0.2,1.3-1.2,1.6-1.6C507.1,578.2,507.6,577,507.6,576 M501.9,582.1c0-0.3-0.1-0.6-0.1-0.8c0-0.6-0.1-1.1-0.1-1.7
		c0-1.1,0.1-2.1,0.1-3.2c0-1.6-0.6-1.7-1.9-2.3c-0.3-0.1-0.5-0.3-0.7-0.5c-0.1-0.1-0.2-0.3-0.2-0.3h-0.4l-0.9,2
		c0.1,0.2,0.5,0.5,0.7,0.6c1.1,0.7,1.9,0.4,1.9,2.1l0.1,4h-2.6l-0.4,1.9h4.2C501.6,583.6,501.9,582.2,501.9,582.1 M502,586.7v-1.1
		h-4v1.1h1.6c0,0.6-0.1,1.3-0.1,1.9v0.9h1.1v-0.9c0-0.5-0.1-1.4-0.2-1.9H502z M490,577.6h-0.3l-1.1,1.2c-0.1,0.9-0.1,1.7-0.1,2.6
		c0,0.9,0,1.7,0.1,2.6h0.3l1-1.1c0-0.9,0-1.9,0-2.8C489.9,579.3,490,578.4,490,577.6 M495.9,582.8c0-1.2-0.2-2.2-0.2-3.3
		c0-1,0.1-1.9,0.1-2.9c0-0.5,0-1.2-0.3-1.6c-0.5-0.6-1.1-0.9-1.8-0.9h-2.7c-0.7,0-1.7,0.1-1.8-0.8h-0.3l-0.9,2.1
		c0.4,0.6,0.9,0.7,1.6,0.7h3.4c1.4,0,1.5,0.9,1.6,2.1c0,0.9,0.1,1.7,0.1,2.6c0,0.5,0,0.9,0,1.4c0,0.6,0.1,1.3,0.2,1.9h0.2
		L495.9,582.8z M481,574.6c-0.6-0.1-2.4-0.4-2.8-0.6c-0.3-0.2-0.4-0.4-0.6-0.7h-0.4l-0.9,1.9c0.2,0.2,0.4,0.5,0.7,0.6
		c0.5,0.3,1.1,0.5,1.1,1.1c0,0.7-0.7,1.5-0.7,2.6c0,1.1,0.5,3.5,0.9,4.5h0.4l1-1.3c-0.3-1-0.8-2.8-0.8-3.8c0-0.9,0.3-1.7,0.6-2.5
		c0.2,0,0.4,0.1,0.6,0.1c0.2,0,0.3,0,0.5,0.1L481,574.6z M473.7,571.7c0-0.4-0.3-0.7-0.7-0.7c-0.4,0-0.7,0.3-0.7,0.7
		c0,0.4,0.3,0.7,0.7,0.7C473.4,572.4,473.7,572.1,473.7,571.7 M474.6,582.7v-0.2c0-0.4,0-0.7-0.1-1.1c-0.1-0.8-0.2-1.6-0.2-2.4
		c0-0.8,0.1-1.6,0.1-2.4c0-2-0.5-1.9-2.2-2.6c-0.3-0.1-0.5-0.3-0.6-0.5c0-0.1,0-0.1-0.1-0.2h-0.4l-0.9,2c0.1,0.1,0.1,0.1,0.2,0.2
		c0.2,0.2,0.4,0.3,0.6,0.4c0.4,0.2,0.9,0.4,1.3,0.6c0.8,0.4,0.8,2.4,0.8,3.2c0,0.8,0,1.7,0,2.5c0,0.6,0,1.3,0.1,1.9h0.3L474.6,582.7
		z M460.8,571.7c0-0.4-0.3-0.7-0.7-0.7c-0.4,0-0.7,0.3-0.7,0.7c0,0.4,0.3,0.7,0.7,0.7C460.5,572.4,460.8,572.1,460.8,571.7
		 M463.4,577c0-1.2-0.3-1.9-1.2-2.6c-0.6-0.5-0.5-0.6-0.7-1.2h-0.3l-1.1,1.9c0.2,0.5,0.7,0.9,1.1,1.2c0.4,0.3,0.5,0.9,0.5,1.4
		c0,1.9-1.3,4.5-3.5,4.5c-2.2,0-2.7-1.9-2.7-3.7c0-0.5,0-1.1,0-1.6c0-0.3,0-0.7-0.1-1c-0.3-1.6-1.7-1.3-1.9-2.7h-0.3l-0.9,1.9
		c0.1,0.1,0.2,0.2,0.3,0.3c0.3,0.3,0.6,0.5,0.9,0.7c1,0.7,0.8,2.3,0.9,3.3c0,0.6,0.1,1.2,0.2,1.9c0.3,1.7,1.6,2.8,3.4,2.8
		c2.6,0,4.4-2.7,5.2-4.9C463.2,578.6,463.4,577.7,463.4,577 M459.4,576.2c0-1.1-0.5-1.4-1.2-2.1c-0.4-0.4-0.3-0.5-0.4-0.9h-0.3
		l-1.1,2c0.4,0.6,1.4,0.9,1.4,1.7c0,0.3-0.1,0.6-0.1,0.8c-0.1,0.4-0.9,2.6-1.1,2.8l0.3,0.3c0.1-0.1,0.5-0.4,0.5-0.5
		c0.9-0.9,1.7-2.2,2-3.4C459.3,576.7,459.4,576.5,459.4,576.2 M457.5,586.2c0-0.4-0.3-0.7-0.7-0.7c-0.4,0-0.7,0.3-0.7,0.7
		c0,0.4,0.3,0.7,0.7,0.7C457.2,586.9,457.5,586.6,457.5,586.2 M459.8,586.2c0-0.4-0.3-0.7-0.7-0.7c-0.4,0-0.7,0.3-0.7,0.7
		c0,0.4,0.3,0.7,0.7,0.7C459.5,586.9,459.8,586.6,459.8,586.2 M458.7,588.1c0-0.4-0.3-0.7-0.7-0.7c-0.4,0-0.7,0.3-0.7,0.7
		c0,0.4,0.3,0.7,0.7,0.7C458.4,588.7,458.7,588.4,458.7,588.1 M451.1,576.2c0-1.9-1-2.2-2.7-2.2h-1.7c-0.5,0-1.3,0.1-1.3-0.6
		c0-0.7,0.2-1.4,0.2-2c0-0.2-0.1-1.6-0.3-1.6H445l-1.4,1.7c0,0.2,0.2,0.4,0.3,0.6c0.2,0.4,0.2,0.9,0.2,1.4c0,0.4,0,0.8,0,1.2
		c0,1,0.4,1.5,1.4,1.5c1,0,1.9,0,2.9,0c1,0,1.1,0.8,1.1,1.6v0.3c-0.1,1.6-2.4,3.2-3.8,3.9l-0.3,2l0.3,0.1c1.2-0.8,2.4-1.7,3.3-2.7
		C450.3,580.1,451.1,577.9,451.1,576.2 M436.5,582.8v-0.1c0-0.4,0-0.7-0.1-1.1c0-0.7,0-1.3,0-2c0-0.9,0.1-1.8,0.1-2.7
		c0-0.6,0-1.6-0.3-2c-0.5-0.7-1.1-0.9-1.9-0.9h-3.8c-0.7,0-1.5,0.1-1.8-0.8h-0.4l-1,2c0.2,0.2,0.8,0.7,1,0.9
		c0.4,0.4,0.4,1.8,0.4,2.3c0,1.1-0.1,2.2-0.1,3.2c0,0.8,0.1,1.6,0.1,2.3h0.3l1.2-1.3v-0.1c0-0.4,0-0.8-0.1-1.2
		c-0.1-0.8-0.1-1.6-0.1-2.4c0-1,0-2,0.1-3h2.8c2,0,2.1,0.9,2.1,2.6c0,1-0.1,2.1-0.1,3.1c0,0.8,0.1,1.5,0.1,2.3h0.3L436.5,582.8z
		 M431.7,586.2c0-0.4-0.3-0.7-0.7-0.7c-0.4,0-0.7,0.3-0.7,0.7c0,0.4,0.3,0.7,0.7,0.7C431.4,586.9,431.7,586.6,431.7,586.2
		 M434.1,586.2c0-0.4-0.3-0.7-0.7-0.7c-0.4,0-0.7,0.3-0.7,0.7c0,0.4,0.3,0.7,0.7,0.7C433.8,586.9,434.1,586.6,434.1,586.2
		 M433,588.1c0-0.4-0.3-0.7-0.7-0.7c-0.4,0-0.7,0.3-0.7,0.7c0,0.4,0.3,0.7,0.7,0.7C432.7,588.7,433,588.4,433,588.1 M426,579.2
		c0-0.4,0-0.8,0-1.2c-0.1-1.7-1-4.2-3.1-4.2c-0.9,0-1.8,0.3-2.3,1.1c-0.3,0.4-0.4,0.8-0.6,1.1c0,0-0.1,0.1-0.1,0.1
		c-0.1,0-0.2-0.4-0.2-0.4c-0.2-0.9-1-1.4-1.2-2.5h-0.4L417,575c0.6,1.1,1.5,1.7,1.5,3c0,0.7-0.3,1.4-0.5,2.1
		c-0.2,0.6-0.3,1.3-0.4,1.9c-0.1,0.6-0.1,1.3-0.1,2h0.3l1.3-1.5c0,0,0-0.9,0-1c0-0.7,0.1-1.4,0.2-2.1c0.3-1.4,1.1-3.7,2.9-3.7
		c2.2,0,2.4,3,2.4,4.6c0,0.3,0,0.7,0,1c0,0,0,0.3-0.1,0.3c-1.1,0-2.5,0-3.6,0.1l-0.5,1.7l0.2,0.2c0.9-0.1,1.8-0.1,2.7-0.1h1.9
		l0.6-1.9C426,581.6,426,579.5,426,579.2 M421.1,586.2c0-0.4-0.3-0.7-0.7-0.7c-0.4,0-0.7,0.3-0.7,0.7c0,0.4,0.3,0.7,0.7,0.7
		C420.8,586.9,421.1,586.6,421.1,586.2 M423.4,586.2c0-0.4-0.3-0.7-0.7-0.7c-0.4,0-0.7,0.3-0.7,0.7c0,0.4,0.3,0.7,0.7,0.7
		C423.1,586.9,423.4,586.6,423.4,586.2 M422.3,588.1c0-0.4-0.3-0.7-0.7-0.7c-0.4,0-0.7,0.3-0.7,0.7c0,0.4,0.3,0.7,0.7,0.7
		C422,588.7,422.3,588.4,422.3,588.1 M415.8,576v-2h-4.7c-0.7,0-1.5,0-1.6-0.8h-0.3l-1,2.2c0.4,0.6,0.9,0.6,1.6,0.6h3.2c0,0,0,0,0,0
		c0,0.1,0,0.3,0,0.5c0,0.6,0.1,1.3,0.1,1.9c0,0.5,0,1,0,1.5c0,1.3-0.1,2.7,0.1,4.1h0.3l1.1-1.2v-0.2c0-0.4,0-0.8,0-1.1
		c-0.1-0.6-0.2-1.3-0.2-1.9v-1.8c0-0.7,0.1-1.7,1-1.7H415.8z M407.2,582.9c0-0.4-0.1-0.7-0.4-0.9l-0.9-0.9h-0.2l-1.3,1.3v0.2
		c0.5,0.4,1,0.7,1,1.4c0,0.7-0.5,1.7-1,2.3l0.3,0.1c0.2-0.1,0.4-0.1,0.6-0.3C406.1,585.6,407.2,583.8,407.2,582.9 M391.1,577.6h-0.3
		l-1.1,1.2c-0.1,0.9-0.1,1.7-0.1,2.6c0,0.9,0,1.7,0.1,2.6h0.3l1-1.1c0-0.9,0-1.9,0-2.8C391,579.3,391.1,578.4,391.1,577.6
		 M397,582.8c0-1.2-0.2-2.2-0.2-3.3c0-1,0.1-1.9,0.1-2.9c0-0.5,0-1.2-0.3-1.6c-0.5-0.6-1.1-0.9-1.8-0.9H392c-0.7,0-1.7,0.1-1.8-0.8
		h-0.3l-0.9,2.1c0.4,0.6,0.9,0.7,1.6,0.7h3.4c1.4,0,1.5,0.9,1.6,2.1c0,0.9,0.1,1.7,0.1,2.6c0,0.5,0,0.9,0,1.4c0,0.6,0.1,1.3,0.2,1.9
		h0.2L397,582.8z M395.2,585.6h-4v1.1h4V585.6z M387.5,576c0-1.5-1.1-1.5-2.1-2.1c-0.2-0.1-0.5-0.2-0.6-0.5c0-0.1-0.1-0.2-0.1-0.3
		h-0.4l-0.8,2c0.5,1,2.3,0.6,2.3,2c0,0.9-0.5,2.1-0.9,2.8c0,0.1-0.2,0.4-0.2,0.4l0.4,0.2c0.4-0.2,1.3-1.2,1.6-1.6
		C387,578.2,387.5,577,387.5,576 M387.6,586.7v-1.1h-4v1.1h1.6c0,0.6-0.1,1.3-0.1,1.9v0.9h1.1v-0.9c0-0.5-0.1-1.4-0.2-1.9H387.6z
		 M382,579.5c0-1.2-0.1-4-1.3-4.7c-0.8-0.5-1.5-0.6-2.3-0.7c-0.2,0-0.5-0.1-0.7-0.2c-0.3-0.1-0.5-0.3-0.6-0.6h-0.4
		c-0.7,1.1-2,3.5-2,4.8c0,1.3,0.9,1.8,1.9,2.2l0.8-1.8c-0.1,0-0.2-0.1-0.3-0.1c-0.4-0.3-0.8-0.6-0.9-1.1c0-0.1,0-0.3,0-0.4
		c0-0.5,0.2-1,0.8-1c0.1,0,0.1,0,0.2,0l1.9,0.3c1.4,0.3,1.5,2.8,1.5,4c0,0.2,0,1.4-0.1,1.6c-1.2,0-2.5,0-3.7,0c-0.5,0-1,0-1.4,0.1
		l-0.7,1.8l0.2,0.1c0.6-0.1,1.3-0.1,1.9-0.1c0.8,0,1.6,0,2.5,0c0.7,0,1.3,0,2-0.1c0,0,0.1,0,0.1,0C381.8,581.8,382,581.4,382,579.5
		 M380.4,585.6h-4v1.1h4V585.6z M366.9,577.6h-0.3l-1.1,1.2c-0.1,0.9-0.1,1.7-0.1,2.6c0,0.9,0,1.7,0.1,2.6h0.3l1-1.1
		c0-0.9,0-1.9,0-2.8C366.8,579.3,366.9,578.4,366.9,577.6 M372.8,582.8c0-1.2-0.2-2.2-0.2-3.3c0-1,0.1-1.9,0.1-2.9
		c0-0.5,0-1.2-0.3-1.6c-0.5-0.6-1.1-0.9-1.8-0.9h-2.7c-0.7,0-1.7,0.1-1.8-0.8h-0.3l-0.9,2.1c0.4,0.6,0.9,0.7,1.6,0.7h3.4
		c1.4,0,1.5,0.9,1.6,2.1c0,0.9,0.1,1.7,0.1,2.6c0,0.5,0,0.9,0,1.4c0,0.6,0.1,1.3,0.2,1.9h0.2L372.8,582.8z M353.6,578.8
		c0-0.4-0.3-0.7-0.7-0.7c-0.4,0-0.7,0.3-0.7,0.7c0,0.4,0.3,0.7,0.7,0.7C353.3,579.4,353.6,579.1,353.6,578.8 M357.9,581.7
		c-0.1,0-0.2,0-0.3,0c-0.9,0-1.1-0.9-1.1-1.6c0-0.5,0.1-1,0.1-1.5c0-0.7,0.1-1.4,0.1-2.1c0-0.6-0.1-1.2-0.4-1.7
		c-0.6-0.7-1.3-0.7-2.2-0.7c-0.6,0-2.2,0.1-2.7-0.3c-0.2-0.1-0.3-0.3-0.3-0.5h-0.3l-0.8,2.1c0.1,0.2,0.3,0.4,0.5,0.5
		c0.4,0.2,1,0.2,1.5,0.2h1.7c1.1,0,1.5,0.6,1.5,1.6v4h-1.5c-0.5,0-1,0-1.5,0c-0.6,0-1.1,0-1.7,0.1l-0.5,1.9l0.2,0.1
		c0.3-0.1,1.6-0.1,1.9-0.1c1.8,0,3.7,0,5.5,0L357.9,581.7z M356,585.6h-4v1.1h4V585.6z M348.5,582.1c0-1.3-0.3-2.7-0.3-4
		c0-0.6,0.1-1.2,0.1-1.8c0-0.4,0-1-0.3-1.4c-0.5-0.6-1.1-0.9-1.8-0.9h-4c-0.7,0-1.6,0.1-1.8-0.8H340l-0.9,2.2
		c0.2,0.3,0.5,0.5,0.9,0.7c0.6,0.2,0.7,1.3,0.8,1.9c0.2,1.3,0.3,2.5,0.3,3.8c-0.6,0-1.1,0-1.7,0.1l-0.5,1.9c1.1-0.1,2.2,0,3.3-0.1
		l0.4-1.7c0,0-0.1-0.8-0.1-0.8c-0.1-0.7-0.2-1.4-0.3-2.1c-0.1-1-0.1-2.1-0.1-3.1h2.6c0.7,0,1.4,0.1,1.8,0.7c0.3,0.4,0.3,1.5,0.3,2.1
		v2.9c0,0.8,0,1.6,0.2,2.3h0.3l1.2-1.3C348.5,582.5,348.5,582.3,348.5,582.1 M343.5,586.2c0-0.4-0.3-0.7-0.7-0.7
		c-0.4,0-0.7,0.3-0.7,0.7c0,0.4,0.3,0.7,0.7,0.7C343.2,586.9,343.5,586.6,343.5,586.2 M345.9,586.2c0-0.4-0.3-0.7-0.7-0.7
		c-0.4,0-0.7,0.3-0.7,0.7c0,0.4,0.3,0.7,0.7,0.7C345.6,586.9,345.9,586.6,345.9,586.2 M344.8,588.1c0-0.4-0.3-0.7-0.7-0.7
		c-0.4,0-0.7,0.3-0.7,0.7c0,0.4,0.3,0.7,0.7,0.7C344.5,588.7,344.8,588.4,344.8,588.1 M338,581.7c-0.1,0-0.2,0-0.3,0
		c-0.9,0-1.1-0.9-1.1-1.6c0-0.5,0.1-1,0.1-1.5c0-0.7,0.1-1.4,0.1-2.1c0-0.6-0.1-1.2-0.4-1.7c-0.6-0.7-1.3-0.7-2.2-0.7
		c-0.6,0-2.2,0.1-2.7-0.3c-0.2-0.1-0.3-0.3-0.3-0.5h-0.3l-0.8,2.1c0.1,0.2,0.3,0.4,0.5,0.5c0.4,0.2,1,0.2,1.5,0.2h1.7
		c1.1,0,1.5,0.6,1.5,1.6v4h-1.5c-0.5,0-1,0-1.5,0c-0.6,0-1.1,0-1.7,0.1l-0.5,1.9l0.2,0.1c0.3-0.1,1.6-0.1,1.9-0.1c1.8,0,3.7,0,5.5,0
		L338,581.7z M333.6,586.2c0-0.4-0.3-0.7-0.7-0.7c-0.4,0-0.7,0.3-0.7,0.7c0,0.4,0.3,0.7,0.7,0.7
		C333.3,586.9,333.6,586.6,333.6,586.2 M335.9,586.2c0-0.4-0.3-0.7-0.7-0.7c-0.4,0-0.7,0.3-0.7,0.7c0,0.4,0.3,0.7,0.7,0.7
		C335.6,586.9,335.9,586.6,335.9,586.2 M334.8,588.1c0-0.4-0.3-0.7-0.7-0.7c-0.4,0-0.7,0.3-0.7,0.7c0,0.4,0.3,0.7,0.7,0.7
		C334.5,588.7,334.8,588.4,334.8,588.1 M329,576.2c0-1.9-1-2.2-2.7-2.2h-1.7c-0.5,0-1.3,0.1-1.3-0.6c0-0.7,0.2-1.4,0.2-2
		c0-0.2-0.1-1.6-0.3-1.6h-0.3l-1.4,1.7c0,0.2,0.2,0.4,0.3,0.6c0.2,0.4,0.2,0.9,0.2,1.4c0,0.4,0,0.8,0,1.2c0,1,0.4,1.5,1.4,1.5
		c1,0,1.9,0,2.9,0c1,0,1.1,0.8,1.1,1.6v0.3c-0.1,1.6-2.4,3.2-3.8,3.9l-0.3,2l0.3,0.1c1.2-0.8,2.4-1.7,3.3-2.7
		C328.1,580.1,329,577.9,329,576.2 M319.3,582.9v-0.1c-0.6-0.4-1-0.7-1.4-1.3h-0.1l-1.3,1.4v0.1c0.5,0.6,0.7,0.8,1.4,1.2h0.2
		L319.3,582.9z M320.2,574.7c0-1.4-1.2-2-2.4-2c-0.5,0-1,0.1-1.5,0.2l-0.9,1.6l0.3,0.2c0.4-0.2,0.9-0.4,1.4-0.4c0.7,0,1.5,0.2,1.5,1
		c0,1.5-1.9,2.1-1.9,3.3c0,0.5,0.2,1,0.6,1.4h0.1l1.3-1c-0.2-0.2-0.4-0.6-0.4-0.9C318.3,577,320.2,576.5,320.2,574.7 M310.9,571.8
		l-0.1-0.2l-1.8,1c0.1,0.3,0.1,0.6,0.1,0.9c0,1.2-0.4,2.4-1,3.5l0.2,0.1c0.4-0.2,0.8-0.5,1.1-0.9c0.1-0.2,0.3-0.4,0.4-0.6
		C310.3,574.5,310.9,573,310.9,571.8 M314,571.8l-0.1-0.2l-1.8,1c0.1,0.3,0.1,0.6,0.1,0.9c0,1.2-0.4,2.4-1,3.5l0.2,0.1
		c0.4-0.2,0.8-0.5,1.1-0.9c0.1-0.2,0.3-0.4,0.4-0.6C313.4,574.6,314,573,314,571.8"/>
	<path class="st0" d="M543.7,545c0-1.2-0.3-1.9-1.2-2.6c-0.6-0.5-0.5-0.6-0.7-1.2h-0.3l-1.1,1.9c0.2,0.5,0.7,0.9,1.1,1.2
		s0.5,0.9,0.5,1.4c0,1.9-1.3,4.5-3.5,4.5c-2.2,0-2.7-1.9-2.7-3.7c0-0.5,0-1.1,0-1.6c0-0.3,0-0.7-0.1-1c-0.3-1.6-1.7-1.3-1.9-2.7
		h-0.3l-0.9,1.9c0.1,0.1,0.2,0.2,0.3,0.3c0.3,0.3,0.6,0.5,0.9,0.7c1,0.7,0.8,2.3,0.9,3.3c0,0.6,0.1,1.2,0.2,1.9
		c0.3,1.7,1.6,2.8,3.4,2.8c2.6,0,4.4-2.7,5.2-4.9C543.4,546.6,543.7,545.7,543.7,545 M539.6,544.2c0-1.1-0.5-1.4-1.2-2.1
		c-0.4-0.4-0.3-0.5-0.4-0.9h-0.3l-1.1,2c0.4,0.6,1.4,0.9,1.4,1.7c0,0.3-0.1,0.6-0.1,0.8c-0.1,0.4-0.9,2.6-1.1,2.8l0.3,0.3
		c0.1-0.1,0.5-0.4,0.5-0.5c0.9-0.9,1.7-2.2,2-3.4C539.6,544.7,539.6,544.5,539.6,544.2 M540.2,554.7v-1.1h-4v1.1h1.6
		c0,0.6-0.1,1.3-0.1,1.9v0.9h1.1v-0.9c0-0.5-0.1-1.4-0.2-1.9H540.2z M544.3,539.1c0-0.4-0.3-0.7-0.7-0.7c-0.4,0-0.7,0.3-0.7,0.7
		c0,0.4,0.3,0.7,0.7,0.7C544,539.8,544.3,539.5,544.3,539.1 M528.8,554.7v-1.1h-4v1.1h1.6c0,0.6-0.1,1.3-0.1,1.9v0.9h1.1v-0.9
		c0-0.5-0.1-1.4-0.2-1.9H528.8z M531.3,550.5c-0.6-1-1.3-2-2.2-2.9c0.7-0.9,1.9-2.2,1.9-3.5c0-1.1-0.9-1.3-1.5-2
		c-0.2-0.3-0.3-0.6-0.4-0.9h-0.4l-1.1,1.9c0.2,0.2,0.3,0.4,0.5,0.6c0.4,0.3,1,0.5,1,1.1s-0.6,1.5-0.9,1.9c-0.8-0.7-1.5-1.5-2.2-2.2
		s-1.4-1.5-2.1-2.3c-0.2-0.3-0.3-0.6-0.4-1h-0.4l-1,1.5c0.6,0.9,1.4,1.7,1.4,2.8c0,1.6-1.1,3.1-1.1,4.7c0,1.2,1,1.5,2,1.5
		c0.1,0,0.9,0,0.9-0.2l0.5-1.8c-0.2,0.1-0.4,0.1-0.6,0.1c-0.7,0-1.4-0.5-1.4-1.2c0-0.5,0.7-2.3,1-2.8c1.7,1.5,3.3,3,4.6,4.9
		c0.3,0.4,0.4,0.8,0.6,1.2h0.3L531.3,550.5z M517.4,546.2c0-0.4-0.3-0.7-0.7-0.7c-0.4,0-0.7,0.3-0.7,0.7c0,0.4,0.3,0.7,0.7,0.7
		C517.1,546.8,517.4,546.5,517.4,546.2 M521,544.2c0-1.9-1-2.2-2.7-2.2h-1.7c-0.5,0-1.3,0.1-1.3-0.6c0-0.7,0.2-1.4,0.2-2
		c0-0.2-0.1-1.6-0.3-1.6h-0.3l-1.4,1.7c0,0.2,0.2,0.4,0.3,0.6c0.2,0.4,0.2,0.9,0.2,1.4c0,0.4,0,0.8,0,1.2c0,1,0.4,1.5,1.4,1.5
		c1,0,1.9,0,2.9,0c1,0,1.1,0.8,1.1,1.6v0.3c-0.1,1.6-2.4,3.2-3.8,3.9l-0.3,2l0.3,0.1c1.2-0.8,2.4-1.7,3.3-2.7
		C520.2,548.1,521,545.9,521,544.2 M518.2,556.1c0-0.4-0.3-0.7-0.7-0.7c-0.4,0-0.7,0.3-0.7,0.7c0,0.4,0.3,0.7,0.7,0.7
		C517.9,556.8,518.2,556.4,518.2,556.1 M518.1,554.2c0-0.4-0.3-0.7-0.7-0.7c-0.4,0-0.7,0.3-0.7,0.7c0,0.4,0.3,0.7,0.7,0.7
		C517.8,554.8,518.1,554.5,518.1,554.2 M512.1,550.1c0-1.3-0.3-2.7-0.3-4c0-0.6,0.1-1.2,0.1-1.8c0-0.4,0-1-0.3-1.4
		c-0.5-0.6-1.1-0.9-1.8-0.9h-4c-0.7,0-1.6,0.1-1.8-0.8h-0.3l-0.9,2.2c0.2,0.3,0.5,0.5,0.9,0.7c0.6,0.2,0.7,1.3,0.8,1.9
		c0.2,1.3,0.3,2.5,0.3,3.8c-0.6,0-1.1,0-1.7,0.1l-0.5,1.9c1.1-0.1,2.2,0,3.3-0.1l0.4-1.7c0,0-0.1-0.8-0.1-0.8
		c-0.1-0.7-0.2-1.4-0.3-2.1c-0.1-1-0.1-2.1-0.1-3.1h2.6c0.7,0,1.4,0.1,1.8,0.7c0.3,0.4,0.3,1.5,0.3,2.1v2.9c0,0.8,0,1.6,0.2,2.3h0.3
		l1.2-1.3C512.1,550.5,512.1,550.3,512.1,550.1 M508.4,554.2c0-0.4-0.3-0.7-0.7-0.7c-0.4,0-0.7,0.3-0.7,0.7c0,0.4,0.3,0.7,0.7,0.7
		C508.1,554.9,508.4,554.6,508.4,554.2 M501.5,544c0-1.5-1.1-1.5-2.1-2.1c-0.2-0.1-0.5-0.2-0.6-0.5c0-0.1-0.1-0.2-0.1-0.3h-0.4
		l-0.8,2c0.5,1,2.3,0.6,2.3,2c0,0.9-0.5,2.1-0.9,2.8c0,0.1-0.2,0.4-0.2,0.4l0.4,0.2c0.4-0.2,1.3-1.2,1.6-1.6
		C500.9,546.2,501.5,545,501.5,544 M487.4,539.8l-0.1-0.2l-1.8,1c0.1,0.3,0.1,0.6,0.1,0.9c0,1.2-0.4,2.4-1,3.5l0.2,0.1
		c0.4-0.2,0.8-0.5,1.1-0.9c0.1-0.2,0.3-0.4,0.4-0.6C486.9,542.5,487.4,541,487.4,539.8 M490.6,539.8l-0.1-0.2l-1.8,1
		c0.1,0.3,0.1,0.6,0.1,0.9c0,1.2-0.4,2.4-1,3.5l0.2,0.1c0.4-0.2,0.8-0.5,1.1-0.9c0.1-0.2,0.3-0.4,0.4-0.6
		C490,542.5,490.6,541,490.6,539.8 M483.6,547.2c0-0.4,0-0.8,0-1.2c-0.1-1.7-1-4.2-3.1-4.2c-0.9,0-1.8,0.3-2.3,1.1
		c-0.3,0.4-0.4,0.8-0.6,1.1c0,0-0.1,0.1-0.1,0.1c-0.1,0-0.2-0.4-0.2-0.4c-0.2-0.9-1-1.4-1.2-2.5h-0.4l-1.1,1.8
		c0.6,1.1,1.5,1.7,1.5,3c0,0.7-0.3,1.4-0.5,2.1c-0.2,0.6-0.3,1.3-0.4,1.9c-0.1,0.6-0.1,1.3-0.1,2h0.3l1.3-1.5c0,0,0-0.9,0-1
		c0-0.7,0.1-1.4,0.2-2.1c0.3-1.4,1.1-3.7,2.9-3.7c2.2,0,2.4,3,2.4,4.6c0,0.3,0,0.7,0,1c0,0,0,0.3-0.1,0.3c-1.1,0-2.5,0-3.6,0.1
		l-0.5,1.7l0.2,0.2c0.9-0.1,1.8-0.1,2.7-0.1h1.9l0.6-1.9C483.6,549.6,483.6,547.5,483.6,547.2 M481.2,554.7v-1.1h-4v1.1h1.6
		c0,0.6-0.1,1.3-0.1,1.9v0.9h1.1v-0.9c0-0.5-0.1-1.4-0.2-1.9H481.2z M473.5,544v-2h-4.7c-0.7,0-1.5,0-1.6-0.8h-0.3l-1,2.2
		c0.4,0.6,0.9,0.6,1.6,0.6h3.2c0,0,0,0,0,0c0,0.1,0,0.3,0,0.5c0,0.6,0.1,1.3,0.1,1.9c0,0.5,0,1,0,1.5c0,1.3-0.1,2.7,0.1,4.1h0.3
		l1.1-1.2v-0.2c0-0.4,0-0.8,0-1.1c-0.1-0.6-0.2-1.3-0.2-1.9v-1.8c0-0.7,0.1-1.7,1-1.7H473.5z M462.2,547.5c0-0.4-0.3-0.7-0.7-0.7
		c-0.4,0-0.7,0.3-0.7,0.7c0,0.4,0.3,0.7,0.7,0.7C461.9,548.2,462.2,547.8,462.2,547.5 M464.5,550.7v-0.2c0-0.4,0-0.7-0.1-1.1
		c-0.1-0.8-0.2-1.6-0.2-2.4c0-0.8,0.1-1.6,0.1-2.4c0-2-0.5-1.9-2.2-2.6c-0.3-0.1-0.5-0.3-0.6-0.5c0-0.1,0-0.1-0.1-0.2h-0.4l-0.9,2
		c0.1,0.1,0.1,0.1,0.2,0.2c0.2,0.2,0.4,0.3,0.6,0.4c0.4,0.2,0.9,0.4,1.3,0.6c0.8,0.4,0.8,2.4,0.8,3.2c0,0.8,0,1.7,0,2.5
		c0,0.6,0,1.3,0.1,1.9h0.3L464.5,550.7z M459.1,544.5c0-0.3,0-0.7-0.2-1.1c-0.3-0.9-1-0.9-1.7-1.3c-0.4-0.2-0.4-0.5-0.6-0.9h-0.3
		l-1,1.9c0.3,0.8,2.3,1,2.3,2.5c0,1.5-1.7,2.9-2.9,3.6c-0.1-0.9-0.3-1.7-0.4-2.6c-0.2-1.1-0.3-2.3-0.6-3.4c-0.1-0.6-0.9-0.8-1.4-1.1
		c-0.5-0.3-0.6-0.4-0.8-0.9h-0.4l-1,1.8c0.4,0.7,1.1,0.9,1.7,1.3c0.5,0.3,0.8,2,0.9,2.5l0.5,3.4c-0.7,0.5-1.4,0.9-2.2,1.3l-0.2,1.8
		l0.2,0.1c0.2-0.1,1-0.5,1.3-0.7c1.6-0.9,4.3-2.7,5.3-4.1C458.5,547.6,459.1,545.8,459.1,544.5 M456.8,554.7v-1.1h-4v1.1h1.6
		c0,0.6-0.1,1.3-0.1,1.9v0.9h1.1v-0.9c0-0.5-0.1-1.4-0.2-1.9H456.8z M448,550.9v-0.1c-0.6-0.4-1-0.7-1.4-1.3h-0.1l-1.3,1.4v0.1
		c0.5,0.6,0.7,0.8,1.4,1.2h0.2L448,550.9z M448.9,542.7c0-1.4-1.2-2-2.4-2c-0.5,0-1,0.1-1.5,0.2l-0.9,1.6l0.3,0.2
		c0.4-0.2,0.9-0.4,1.4-0.4c0.7,0,1.5,0.2,1.5,1c0,1.5-1.9,2.1-1.9,3.3c0,0.5,0.2,1,0.6,1.4h0.1l1.3-1c-0.2-0.2-0.4-0.6-0.4-0.9
		C447,545,448.9,544.5,448.9,542.7 M436.8,544.2c0-1.9-1-2.2-2.7-2.2h-1.7c-0.5,0-1.3,0.1-1.3-0.6c0-0.7,0.2-1.4,0.2-2
		c0-0.2-0.1-1.6-0.3-1.6h-0.3l-1.4,1.7c0,0.2,0.2,0.4,0.3,0.6c0.2,0.4,0.2,0.9,0.2,1.4c0,0.4,0,0.8,0,1.2c0,1,0.4,1.5,1.4,1.5
		c1,0,1.9,0,2.9,0c1,0,1.1,0.8,1.1,1.6v0.3c-0.1,1.6-2.4,3.2-3.8,3.9l-0.3,2l0.3,0.1c1.2-0.8,2.4-1.7,3.3-2.7
		C435.9,548.1,436.8,545.9,436.8,544.2 M435.2,554.7v-1.1h-4v1.1h1.6c0,0.6-0.1,1.3-0.1,1.9v0.9h1.1v-0.9c0-0.5-0.1-1.4-0.2-1.9
		H435.2z M428.1,547.2c0-0.4,0-0.8,0-1.2c-0.1-1.7-1-4.2-3.1-4.2c-0.9,0-1.8,0.3-2.3,1.1c-0.3,0.4-0.4,0.8-0.6,1.1
		c0,0-0.1,0.1-0.1,0.1c-0.1,0-0.2-0.4-0.2-0.4c-0.2-0.9-1-1.4-1.2-2.5h-0.4l-1.1,1.8c0.6,1.1,1.5,1.7,1.5,3c0,0.7-0.3,1.4-0.5,2.1
		c-0.2,0.6-0.3,1.3-0.4,1.9c-0.1,0.6-0.1,1.3-0.1,2h0.3l1.3-1.5c0,0,0-0.9,0-1c0-0.7,0.1-1.4,0.2-2.1c0.3-1.4,1.1-3.7,2.9-3.7
		c2.2,0,2.4,3,2.4,4.6c0,0.3,0,0.7,0,1c0,0,0,0.3-0.1,0.3c-1.1,0-2.5,0-3.6,0.1l-0.5,1.7l0.2,0.2c0.9-0.1,1.8-0.1,2.7-0.1h1.9
		l0.6-1.9C428.1,549.6,428.1,547.5,428.1,547.2 M425.7,553.6h-4v1.1h4V553.6z M411.5,545.6h-0.3l-1.1,1.2c-0.1,0.9-0.1,1.7-0.1,2.6
		c0,0.9,0,1.7,0.1,2.6h0.3l1-1.1c0-0.9,0-1.9,0-2.8C411.4,547.2,411.5,546.4,411.5,545.6 M417.4,550.8c0-1.2-0.2-2.2-0.2-3.3
		c0-1,0.1-1.9,0.1-2.9c0-0.5,0-1.2-0.3-1.6c-0.5-0.6-1.1-0.9-1.8-0.9h-2.7c-0.7,0-1.7,0.1-1.8-0.8h-0.3l-0.9,2.1
		c0.4,0.6,0.9,0.7,1.6,0.7h3.4c1.4,0,1.5,0.9,1.6,2.1c0,0.9,0.1,1.7,0.1,2.6c0,0.5,0,0.9,0,1.4c0,0.6,0.1,1.3,0.2,1.9h0.2
		L417.4,550.8z M398.7,546.7c0-0.4-0.3-0.7-0.7-0.7c-0.4,0-0.7,0.3-0.7,0.7c0,0.4,0.3,0.7,0.7,0.7
		C398.4,547.4,398.7,547.1,398.7,546.7 M402.2,546.5c0-2.3-1-4.5-3.6-4.5c-0.6,0-1.6,0.1-2.1-0.3c-0.2-0.1-0.3-0.4-0.3-0.6h-0.4
		l-0.8,2.2c-0.1,0.1,0.4,0.4,0.5,0.5c0.5,0.3,1.3,0.2,1.8,0.2c2,0,3.3,0.4,3.3,2.6c0,0.6,0,3.1-0.9,3.1H399c-0.6,0-1.3,0-1.9,0
		c-0.5,0-1.1,0-1.6,0.1l-0.5,1.9l0.2,0.1c0.6-0.1,1.2-0.1,1.8-0.1c1,0,1.9,0,2.9,0c0.4,0,0.7-0.3,0.9-0.6
		C401.6,549.8,402.2,548,402.2,546.5 M400.8,554.7v-1.1h-4v1.1h1.6c0,0.6-0.1,1.3-0.1,1.9v0.9h1.1v-0.9c0-0.5-0.1-1.4-0.2-1.9H400.8
		z M390,548.4c0-0.4-0.3-0.7-0.7-0.7c-0.4,0-0.7,0.3-0.7,0.7c0,0.4,0.3,0.7,0.7,0.7C389.7,549,390,548.7,390,548.4 M390,546.5
		c0-0.4-0.3-0.7-0.7-0.7c-0.4,0-0.7,0.3-0.7,0.7c0,0.4,0.3,0.7,0.7,0.7C389.7,547.2,390,546.8,390,546.5 M393.7,543
		c0-0.7-0.6-1-1.3-1h-2.8c-0.7,0-1.5,0.1-1.7-0.8h-0.4l-0.9,2.1c0.3,0.6,1,0.7,1.7,0.7h3.6c0.1,0,0.1,0,0.1,0.1
		c0,0.2-0.3,0.8-0.3,1.1c-0.1,0.6-0.1,1.3-0.1,2c0,2.7,0,5.3,0.2,8h0.4l1.2-1.4c0-0.5-0.1-1.1-0.1-1.6c-0.1-0.9-0.1-1.7-0.1-2.6
		c0-0.9-0.2-1.8-0.2-2.8c0-0.6,0-1.2,0.1-1.7C393.2,544.4,393.7,543.7,393.7,543 M380.4,544.2c0-1.9-1-2.2-2.7-2.2H376
		c-0.5,0-1.3,0.1-1.3-0.6c0-0.7,0.2-1.4,0.2-2c0-0.2-0.1-1.6-0.3-1.6h-0.3l-1.4,1.7c0,0.2,0.2,0.4,0.3,0.6c0.2,0.4,0.2,0.9,0.2,1.4
		c0,0.4,0,0.8,0,1.2c0,1,0.4,1.5,1.4,1.5c1,0,1.9,0,2.9,0c1,0,1.1,0.8,1.1,1.6v0.3c-0.1,1.6-2.4,3.2-3.8,3.9l-0.3,2l0.3,0.1
		c1.2-0.8,2.4-1.7,3.3-2.7C379.5,548.1,380.4,545.9,380.4,544.2 M377.5,556.1c0-0.4-0.3-0.7-0.7-0.7c-0.4,0-0.7,0.3-0.7,0.7
		c0,0.4,0.3,0.7,0.7,0.7C377.2,556.8,377.5,556.4,377.5,556.1 M377.5,554.2c0-0.4-0.3-0.7-0.7-0.7c-0.4,0-0.7,0.3-0.7,0.7
		c0,0.4,0.3,0.7,0.7,0.7C377.2,554.8,377.5,554.5,377.5,554.2 M365.8,553.8c0-1.9-0.2-3.8-0.2-5.8c0-0.8,0-1.6,0.1-2.4h-0.4
		l-1.1,1.2c0,0.8-0.1,1.7-0.1,2.5c0,2,0,3.9,0.2,5.9h0.4L365.8,553.8z M371.8,544.5c0-1.8-0.6-2.5-2.4-2.5h-3.2
		c-0.6,0-1.5,0-1.7-0.8h-0.4l-0.9,2c0.4,0.7,0.9,0.8,1.7,0.8h4.3c0.9,0,1,1.1,1,1.8c0,0.2,0,0.3,0,0.5c0,1-0.3,1.4-1.1,2
		c-0.6,0.5-1.3,1-1.9,1.5l-0.2,2l0.2,0.2c1-0.7,2.5-1.8,3.2-2.8C371.3,548,371.8,546.1,371.8,544.5 M369.5,554.7v-1.1h-4v1.1h1.6
		c0,0.6-0.1,1.3-0.1,1.9v0.9h1.1v-0.9c0-0.5-0.1-1.4-0.2-1.9H369.5z M361.7,544.2c0-1.9-1-2.2-2.7-2.2h-1.7c-0.5,0-1.3,0.1-1.3-0.6
		c0-0.7,0.2-1.4,0.2-2c0-0.2-0.1-1.6-0.3-1.6h-0.3l-1.4,1.7c0,0.2,0.2,0.4,0.3,0.6c0.2,0.4,0.2,0.9,0.2,1.4c0,0.4,0,0.8,0,1.2
		c0,1,0.4,1.5,1.4,1.5c1,0,1.9,0,2.9,0c1,0,1.1,0.8,1.1,1.6v0.3c-0.1,1.6-2.4,3.2-3.8,3.9l-0.3,2l0.3,0.1c1.2-0.8,2.4-1.7,3.3-2.7
		C360.8,548.1,361.7,545.9,361.7,544.2 M358.8,556.1c0-0.4-0.3-0.7-0.7-0.7c-0.4,0-0.7,0.3-0.7,0.7c0,0.4,0.3,0.7,0.7,0.7
		C358.5,556.8,358.8,556.4,358.8,556.1 M358.8,554.2c0-0.4-0.3-0.7-0.7-0.7c-0.4,0-0.7,0.3-0.7,0.7c0,0.4,0.3,0.7,0.7,0.7
		C358.5,554.8,358.8,554.5,358.8,554.2 M347.1,553.8c0-1.9-0.2-3.8-0.2-5.8c0-0.8,0-1.6,0.1-2.4h-0.4l-1.1,1.2
		c0,0.8-0.1,1.7-0.1,2.5c0,2,0,3.9,0.2,5.9h0.4L347.1,553.8z M353.2,544.5c0-1.8-0.6-2.5-2.4-2.5h-3.2c-0.6,0-1.5,0-1.7-0.8h-0.4
		l-0.9,2c0.4,0.7,0.9,0.8,1.7,0.8h4.3c0.9,0,1,1.1,1,1.8c0,0.2,0,0.3,0,0.5c0,1-0.3,1.4-1.1,2c-0.6,0.5-1.3,1-1.9,1.5l-0.2,2
		l0.2,0.2c1-0.7,2.5-1.8,3.2-2.8C352.7,548,353.2,546.1,353.2,544.5 M348.3,554.2c0-0.4-0.3-0.7-0.7-0.7c-0.4,0-0.7,0.3-0.7,0.7
		c0,0.4,0.3,0.7,0.7,0.7C348,554.9,348.3,554.5,348.3,554.2 M350.6,554.2c0-0.4-0.3-0.7-0.7-0.7c-0.4,0-0.7,0.3-0.7,0.7
		c0,0.4,0.3,0.7,0.7,0.7C350.3,554.9,350.6,554.5,350.6,554.2 M349.5,556c0-0.4-0.3-0.7-0.7-0.7c-0.4,0-0.7,0.3-0.7,0.7
		c0,0.4,0.3,0.7,0.7,0.7C349.2,556.7,349.5,556.4,349.5,556 M343,544.2c0-1.9-1-2.2-2.7-2.2h-1.7c-0.5,0-1.3,0.1-1.3-0.6
		c0-0.7,0.2-1.4,0.2-2c0-0.2-0.1-1.6-0.3-1.6h-0.3l-1.4,1.7c0,0.2,0.2,0.4,0.3,0.6c0.2,0.4,0.2,0.9,0.2,1.4c0,0.4,0,0.8,0,1.2
		c0,1,0.4,1.5,1.4,1.5c1,0,1.9,0,2.9,0s1.1,0.8,1.1,1.6v0.3c-0.1,1.6-2.4,3.2-3.8,3.9l-0.3,2l0.3,0.1c1.2-0.8,2.4-1.7,3.3-2.7
		C342.1,548.1,343,545.9,343,544.2"/>
</g>
</svg>
