<?xml version="1.0" encoding="utf-8"?>
<!-- Generator: Adobe Illustrator 19.0.0, SVG Export Plug-In . SVG Version: 6.00 Build 0)  -->
<svg version="1.1" id="Layer_1" xmlns="http://www.w3.org/2000/svg" xmlns:xlink="http://www.w3.org/1999/xlink" x="0px" y="0px"
	 viewBox="270 500 300 160" style="enable-background:new 0 0 841.9 160;" xml:space="preserve">
<style type="text/css">
	.st0{clip-path:url(#SVGID_2_);fill:#061A38;}
</style>
<g>
	<defs>
		<rect id="SVGID_1_" x="300" y="537.8" width="243.2" height="115.8"/>
	</defs>
	<clipPath id="SVGID_2_">
		<use xlink:href="#SVGID_1_"  style="overflow:visible;"/>
	</clipPath>
	<path class="st0" d="M540.7,643.5c0-0.4-0.3-0.7-0.7-0.7c-0.4,0-0.7,0.3-0.7,0.7c0,0.4,0.3,0.7,0.7,0.7
		C540.4,644.2,540.7,643.9,540.7,643.5 M543,646.7v-0.2c0-0.4,0-0.7-0.1-1.1c-0.1-0.8-0.2-1.6-0.2-2.4c0-0.8,0.1-1.6,0.1-2.4
		c0-2-0.5-1.9-2.2-2.6c-0.3-0.1-0.5-0.3-0.6-0.5c0-0.1,0-0.1-0.1-0.2h-0.4l-0.9,2c0.1,0.1,0.1,0.1,0.2,0.2c0.2,0.2,0.4,0.3,0.6,0.4
		c0.4,0.2,0.9,0.4,1.3,0.6c0.8,0.4,0.8,2.4,0.8,3.2c0,0.8,0,1.7,0,2.5c0,0.6,0,1.3,0.1,1.9h0.3L543,646.7z M537.3,643.2
		c0-0.4,0-0.8,0-1.2c-0.1-1.7-1-4.2-3.1-4.2c-0.9,0-1.8,0.3-2.3,1.1c-0.3,0.4-0.4,0.8-0.6,1.1c0,0-0.1,0.1-0.1,0.1
		c-0.1,0-0.2-0.4-0.2-0.4c-0.2-0.9-1-1.4-1.2-2.5h-0.4l-1.1,1.8c0.6,1.1,1.5,1.7,1.5,3c0,0.7-0.3,1.4-0.5,2.1
		c-0.2,0.6-0.3,1.3-0.4,1.9c-0.1,0.6-0.1,1.3-0.1,2h0.3l1.3-1.5c0,0,0-0.9,0-1c0-0.7,0.1-1.4,0.2-2.1c0.3-1.4,1.1-3.7,2.9-3.7
		c2.2,0,2.4,3,2.4,4.6c0,0.3,0,0.7,0,1c0,0,0,0.3-0.1,0.3c-1.1,0-2.5,0-3.6,0.1l-0.5,1.7l0.2,0.2c0.9-0.1,1.8-0.1,2.7-0.1h1.9
		l0.6-1.9C537.3,645.6,537.3,643.5,537.3,643.2 M533.6,650.3c0-0.4-0.3-0.7-0.7-0.7c-0.4,0-0.7,0.3-0.7,0.7c0,0.4,0.3,0.7,0.7,0.7
		C533.3,650.9,533.6,650.6,533.6,650.3 M526.6,646.1c0-1.3-0.3-2.7-0.3-4c0-0.6,0.1-1.2,0.1-1.8c0-0.4,0-1-0.3-1.4
		c-0.5-0.6-1.1-0.9-1.8-0.9h-4c-0.7,0-1.6,0.1-1.8-0.8h-0.3l-0.9,2.2c0.2,0.3,0.5,0.5,0.9,0.7c0.6,0.2,0.7,1.3,0.8,1.9
		c0.2,1.3,0.3,2.5,0.3,3.8c-0.6,0-1.1,0-1.7,0.1l-0.5,1.9c1.1-0.1,2.2,0,3.3-0.1l0.4-1.7c0,0-0.1-0.8-0.1-0.8
		c-0.1-0.7-0.2-1.4-0.3-2.1c-0.1-1-0.1-2.1-0.1-3.1h2.6c0.7,0,1.4,0.1,1.8,0.7c0.3,0.4,0.3,1.5,0.3,2.1v2.9c0,0.8,0,1.6,0.2,2.3h0.3
		l1.2-1.3C526.6,646.5,526.6,646.3,526.6,646.1 M524.2,650.7v-1.1h-4v1.1h1.6c0,0.6-0.1,1.3-0.1,1.9v0.9h1.1v-0.9
		c0-0.5-0.1-1.4-0.2-1.9H524.2z M515.6,646.8v-0.1c0-0.4,0-0.7-0.1-1.1c0-0.7,0-1.3,0-2c0-0.9,0.1-1.8,0.1-2.7c0-0.6,0-1.6-0.3-2
		c-0.5-0.7-1.1-0.9-1.9-0.9h-3.8c-0.7,0-1.5,0.1-1.8-0.8h-0.4l-1,2c0.2,0.2,0.8,0.7,1,0.9c0.4,0.4,0.4,1.8,0.4,2.3
		c0,1.1-0.1,2.2-0.1,3.2c0,0.8,0.1,1.6,0.1,2.3h0.3l1.2-1.3v-0.1c0-0.4,0-0.8-0.1-1.2c-0.1-0.8-0.1-1.6-0.1-2.4c0-1,0-2,0.1-3h2.8
		c2,0,2.1,0.9,2.1,2.6c0,1-0.1,2.1-0.1,3.1c0,0.8,0.1,1.5,0.1,2.3h0.3L515.6,646.8z M513.3,649.6h-4v1.1h4V649.6z M504.8,646.1
		c0-1.3-0.3-2.7-0.3-4c0-0.6,0.1-1.2,0.1-1.8c0-0.4,0-1-0.3-1.4c-0.5-0.6-1.1-0.9-1.8-0.9h-4c-0.7,0-1.6,0.1-1.8-0.8h-0.3l-0.9,2.2
		c0.2,0.3,0.5,0.5,0.9,0.7c0.6,0.2,0.7,1.3,0.8,1.9c0.2,1.3,0.3,2.5,0.3,3.8c-0.6,0-1.1,0-1.7,0.1l-0.5,1.9c1.1-0.1,2.2,0,3.3-0.1
		l0.4-1.7c0,0-0.1-0.8-0.1-0.8c-0.1-0.7-0.2-1.4-0.3-2.1c-0.1-1-0.1-2.1-0.1-3.1h2.6c0.7,0,1.4,0.1,1.8,0.7c0.3,0.4,0.3,1.5,0.3,2.1
		v2.9c0,0.8,0,1.6,0.2,2.3h0.3l1.2-1.3C504.8,646.5,504.8,646.3,504.8,646.1 M488,646.3c0-1.1-0.2-2.3-0.2-3.4
		c0-0.7,0.1-1.5,0.1-2.2c0-1.5-0.4-2.7-2.2-2.7h-1.8c-0.6,0-1.6,0-1.7-0.8h-0.4l-0.9,2c0.1,0.2,0.3,0.5,0.6,0.6
		c0.4,0.2,2,0.2,2.5,0.2c2,0,2.5,0.1,2.5,2.3v3.3c0,0.8,0,1.6,0.1,2.3h0.3l1.1-1.2C488,646.7,488,646.5,488,646.3 M486.9,650.7v-1.1
		h-4v1.1h1.6c0,0.6-0.1,1.3-0.1,1.9v0.9h1.1v-0.9c0-0.5-0.1-1.4-0.2-1.9H486.9z M473.9,649.8c0-1.9-0.2-3.8-0.2-5.8
		c0-0.8,0-1.6,0.1-2.4h-0.4l-1.1,1.2c0,0.8-0.1,1.7-0.1,2.5c0,2,0,3.9,0.2,5.9h0.4L473.9,649.8z M479.9,640.5c0-1.8-0.6-2.5-2.4-2.5
		h-3.2c-0.6,0-1.5,0-1.7-0.8h-0.4l-0.9,2c0.4,0.7,0.9,0.8,1.7,0.8h4.3c0.9,0,1,1.1,1,1.8c0,0.2,0,0.3,0,0.5c0,1-0.3,1.4-1.1,2
		c-0.6,0.5-1.3,1-1.9,1.5l-0.2,2l0.2,0.2c1-0.7,2.5-1.8,3.2-2.8C479.4,644,479.9,642.1,479.9,640.5 M476.2,652.1
		c0-0.4-0.3-0.7-0.7-0.7c-0.4,0-0.7,0.3-0.7,0.7c0,0.4,0.3,0.7,0.7,0.7C475.9,652.8,476.2,652.4,476.2,652.1 M476.2,650.2
		c0-0.4-0.3-0.7-0.7-0.7c-0.4,0-0.7,0.3-0.7,0.7c0,0.4,0.3,0.7,0.7,0.7C475.9,650.9,476.2,650.5,476.2,650.2 M466,642.7
		c0-0.4-0.3-0.7-0.7-0.7c-0.4,0-0.7,0.3-0.7,0.7c0,0.4,0.3,0.7,0.7,0.7C465.7,643.4,466,643.1,466,642.7 M469.9,640v-2h-4.7
		c-0.7,0-1.5,0-1.6-0.8h-0.3l-1,2.2c0.4,0.6,0.9,0.6,1.6,0.6h3.2c0,0,0,0,0,0c0,0.1,0,0.3,0,0.5c0,0.6,0.1,1.3,0.1,1.9
		c0,0.5,0,1,0,1.5c0,1.3-0.1,2.7,0.1,4.1h0.3l1.1-1.2v-0.2c0-0.4,0-0.8,0-1.1c-0.1-0.6-0.2-1.3-0.2-1.9v-1.8c0-0.7,0.1-1.7,1-1.7
		H469.9z M458.7,643.5c0-0.4-0.3-0.7-0.7-0.7c-0.4,0-0.7,0.3-0.7,0.7c0,0.4,0.3,0.7,0.7,0.7C458.4,644.2,458.7,643.9,458.7,643.5
		 M461,646.7v-0.2c0-0.4,0-0.7-0.1-1.1c-0.1-0.8-0.2-1.6-0.2-2.4c0-0.8,0.1-1.6,0.1-2.4c0-2-0.5-1.9-2.2-2.6
		c-0.3-0.1-0.5-0.3-0.6-0.5c0-0.1,0-0.1-0.1-0.2h-0.4l-0.9,2c0.1,0.1,0.1,0.1,0.2,0.2c0.2,0.2,0.4,0.3,0.6,0.4
		c0.4,0.2,0.9,0.4,1.3,0.6c0.8,0.4,0.8,2.4,0.8,3.2c0,0.8,0,1.7,0,2.5c0,0.6,0,1.3,0.1,1.9h0.3L461,646.7z M450,638.6
		c-0.6-0.1-2.4-0.4-2.8-0.6c-0.3-0.2-0.4-0.4-0.6-0.7h-0.4l-0.9,1.9c0.2,0.2,0.4,0.5,0.7,0.6c0.5,0.3,1.1,0.5,1.1,1.1
		c0,0.7-0.7,1.5-0.7,2.6c0,1.1,0.5,3.5,0.9,4.5h0.4l1-1.3c-0.3-1-0.8-2.8-0.8-3.8c0-0.9,0.3-1.7,0.6-2.5c0.2,0,0.4,0.1,0.6,0.1
		c0.2,0,0.3,0,0.5,0.1L450,638.6z M449.6,650.7v-1.1h-4v1.1h1.6c0,0.6-0.1,1.3-0.1,1.9v0.9h1.1v-0.9c0-0.5-0.1-1.4-0.2-1.9H449.6z
		 M443.7,646.8v-0.1c0-0.4,0-0.7-0.1-1.1c0-0.7,0-1.3,0-2c0-0.9,0.1-1.8,0.1-2.7c0-0.6,0-1.6-0.3-2c-0.5-0.7-1.1-0.9-1.9-0.9h-3.8
		c-0.7,0-1.5,0.1-1.8-0.8h-0.4l-1,2c0.2,0.2,0.8,0.7,1,0.9c0.4,0.4,0.4,1.8,0.4,2.3c0,1.1-0.1,2.2-0.1,3.2c0,0.8,0.1,1.6,0.1,2.3
		h0.3l1.2-1.3v-0.1c0-0.4,0-0.8-0.1-1.2c-0.1-0.8-0.1-1.6-0.1-2.4c0-1,0-2,0.1-3h2.8c2,0,2.1,0.9,2.1,2.6c0,1-0.1,2.1-0.1,3.1
		c0,0.8,0.1,1.5,0.1,2.3h0.3L443.7,646.8z M440,652.1c0-0.4-0.3-0.7-0.7-0.7c-0.4,0-0.7,0.3-0.7,0.7c0,0.4,0.3,0.7,0.7,0.7
		C439.7,652.8,440,652.4,440,652.1 M440,650.2c0-0.4-0.3-0.7-0.7-0.7c-0.4,0-0.7,0.3-0.7,0.7c0,0.4,0.3,0.7,0.7,0.7
		C439.7,650.9,440,650.5,440,650.2 M433.3,640.2c0-1.9-1-2.2-2.7-2.2h-1.7c-0.5,0-1.3,0.1-1.3-0.6c0-0.7,0.2-1.4,0.2-2
		c0-0.2-0.1-1.6-0.3-1.6h-0.3l-1.4,1.7c0,0.2,0.2,0.4,0.3,0.6c0.2,0.4,0.2,0.9,0.2,1.4c0,0.4,0,0.8,0,1.2c0,1,0.4,1.5,1.4,1.5
		c1,0,1.9,0,2.9,0c1,0,1.1,0.8,1.1,1.6v0.3c-0.1,1.6-2.4,3.2-3.8,3.9l-0.3,2l0.3,0.1c1.2-0.8,2.4-1.7,3.3-2.7
		C432.4,644.1,433.3,641.9,433.3,640.2 M430.4,650.3c0-0.4-0.3-0.7-0.7-0.7c-0.4,0-0.7,0.3-0.7,0.7c0,0.4,0.3,0.7,0.7,0.7
		C430.1,650.9,430.4,650.6,430.4,650.3 M424.8,640c0-1.5-1.1-1.5-2.1-2.1c-0.2-0.1-0.5-0.2-0.6-0.5c0-0.1-0.1-0.2-0.1-0.3h-0.4
		l-0.8,2c0.5,1,2.3,0.6,2.3,2c0,0.9-0.5,2.1-0.9,2.8c0,0.1-0.2,0.4-0.2,0.4l0.4,0.2c0.4-0.2,1.3-1.2,1.6-1.6
		C424.3,642.2,424.8,641,424.8,640 M415.8,642.2c0-0.4-0.3-0.7-0.7-0.7c-0.4,0-0.7,0.3-0.7,0.7c0,0.4,0.3,0.7,0.7,0.7
		C415.5,642.8,415.8,642.5,415.8,642.2 M419.4,640.2c0-1.9-1-2.2-2.7-2.2H415c-0.5,0-1.3,0.1-1.3-0.6c0-0.7,0.2-1.4,0.2-2
		c0-0.2-0.1-1.6-0.3-1.6h-0.3l-1.4,1.7c0,0.2,0.2,0.4,0.3,0.6c0.2,0.4,0.2,0.9,0.2,1.4c0,0.4,0,0.8,0,1.2c0,1,0.4,1.5,1.4,1.5
		c1,0,1.9,0,2.9,0c1,0,1.1,0.8,1.1,1.6v0.3c-0.1,1.6-2.4,3.2-3.8,3.9l-0.3,2l0.3,0.1c1.2-0.8,2.4-1.7,3.3-2.7
		C418.6,644.1,419.4,641.9,419.4,640.2 M415.4,650.2c0-0.4-0.3-0.7-0.7-0.7c-0.4,0-0.7,0.3-0.7,0.7c0,0.4,0.3,0.7,0.7,0.7
		C415.1,650.9,415.4,650.6,415.4,650.2 M417.7,650.2c0-0.4-0.3-0.7-0.7-0.7c-0.4,0-0.7,0.3-0.7,0.7c0,0.4,0.3,0.7,0.7,0.7
		C417.4,650.9,417.7,650.6,417.7,650.2 M410.9,640c0-1.5-1.1-1.5-2.1-2.1c-0.2-0.1-0.5-0.2-0.6-0.5c0-0.1-0.1-0.2-0.1-0.3h-0.4
		l-0.8,2c0.5,1,2.3,0.6,2.3,2c0,0.9-0.5,2.1-0.9,2.8c0,0.1-0.2,0.4-0.2,0.4l0.4,0.2c0.4-0.2,1.3-1.2,1.6-1.6
		C410.4,642.2,410.9,641,410.9,640 M399.9,640c0-1.5-1.1-1.5-2.1-2.1c-0.2-0.1-0.5-0.2-0.6-0.5c0-0.1-0.1-0.2-0.1-0.3h-0.4l-0.8,2
		c0.5,1,2.3,0.6,2.3,2c0,0.9-0.5,2.1-0.9,2.8c0,0.1-0.2,0.4-0.2,0.4l0.4,0.2c0.4-0.2,1.3-1.2,1.6-1.6
		C399.3,642.2,399.9,641,399.9,640 M398.6,652.1c0-0.4-0.3-0.7-0.7-0.7c-0.4,0-0.7,0.3-0.7,0.7c0,0.4,0.3,0.7,0.7,0.7
		C398.3,652.8,398.6,652.4,398.6,652.1 M398.5,650.2c0-0.4-0.3-0.7-0.7-0.7c-0.4,0-0.7,0.3-0.7,0.7c0,0.4,0.3,0.7,0.7,0.7
		C398.2,650.9,398.5,650.5,398.5,650.2 M394.1,646.1c0-1.3-0.3-2.7-0.3-4c0-0.6,0.1-1.2,0.1-1.8c0-0.4,0-1-0.3-1.4
		c-0.5-0.6-1.1-0.9-1.8-0.9h-4c-0.7,0-1.6,0.1-1.8-0.8h-0.3l-0.9,2.2c0.2,0.3,0.5,0.5,0.9,0.7c0.6,0.2,0.7,1.3,0.8,1.9
		c0.2,1.3,0.3,2.5,0.3,3.8c-0.6,0-1.1,0-1.7,0.1l-0.5,1.9c1.1-0.1,2.2,0,3.3-0.1l0.4-1.7c0,0-0.1-0.8-0.1-0.8
		c-0.1-0.7-0.2-1.4-0.3-2.1c-0.1-1-0.1-2.1-0.1-3.1h2.6c0.7,0,1.4,0.1,1.8,0.7c0.3,0.4,0.3,1.5,0.3,2.1v2.9c0,0.8,0,1.6,0.2,2.3h0.3
		l1.2-1.3C394.1,646.5,394.1,646.3,394.1,646.1 M380.8,643.5c0-0.4-0.3-0.7-0.7-0.7c-0.4,0-0.7,0.3-0.7,0.7c0,0.4,0.3,0.7,0.7,0.7
		C380.5,644.2,380.8,643.9,380.8,643.5 M383.1,646.7v-0.2c0-0.4,0-0.7-0.1-1.1c-0.1-0.8-0.2-1.6-0.2-2.4c0-0.8,0.1-1.6,0.1-2.4
		c0-2-0.5-1.9-2.2-2.6c-0.3-0.1-0.5-0.3-0.6-0.5c0-0.1,0-0.1-0.1-0.2h-0.4l-0.9,2c0.1,0.1,0.1,0.1,0.2,0.2c0.2,0.2,0.4,0.3,0.6,0.4
		c0.4,0.2,0.9,0.4,1.3,0.6c0.8,0.4,0.8,2.4,0.8,3.2c0,0.8,0,1.7,0,2.5c0,0.6,0,1.3,0.1,1.9h0.3L383.1,646.7z M375,635.7
		c0-0.4-0.3-0.7-0.7-0.7c-0.4,0-0.7,0.3-0.7,0.7c0,0.4,0.3,0.7,0.7,0.7C374.7,636.4,375,636.1,375,635.7 M377.6,641
		c0-1.2-0.3-1.9-1.2-2.6c-0.6-0.5-0.5-0.6-0.7-1.2h-0.3l-1.1,1.9c0.2,0.5,0.7,0.9,1.1,1.2c0.4,0.3,0.5,0.9,0.5,1.4
		c0,1.9-1.3,4.5-3.5,4.5c-2.2,0-2.7-1.9-2.7-3.7c0-0.5,0-1.1,0-1.6c0-0.3,0-0.7-0.1-1c-0.3-1.6-1.7-1.3-1.9-2.7h-0.3l-0.9,1.9
		c0.1,0.1,0.2,0.2,0.3,0.3c0.3,0.3,0.6,0.5,0.9,0.7c1,0.7,0.8,2.3,0.9,3.3c0,0.6,0.1,1.2,0.2,1.9c0.3,1.7,1.6,2.8,3.4,2.8
		c2.6,0,4.4-2.7,5.2-4.9C377.3,642.6,377.6,641.7,377.6,641 M373.5,640.2c0-1.1-0.5-1.4-1.2-2.1c-0.4-0.4-0.3-0.5-0.4-0.9h-0.3
		l-1.1,2c0.4,0.6,1.4,0.9,1.4,1.7c0,0.3-0.1,0.6-0.1,0.8c-0.1,0.4-0.9,2.6-1.1,2.8l0.3,0.3c0.1-0.1,0.5-0.4,0.5-0.5
		c0.9-0.9,1.7-2.2,2-3.4C373.5,640.7,373.5,640.5,373.5,640.2 M374.1,650.7v-1.1h-4v1.1h1.6c0,0.6-0.1,1.3-0.1,1.9v0.9h1.1v-0.9
		c0-0.5-0.1-1.4-0.2-1.9H374.1z M359,641.6h-0.3l-1.1,1.2c-0.1,0.9-0.1,1.7-0.1,2.6c0,0.9,0,1.7,0.1,2.6h0.3l1-1.1
		c0-0.9,0-1.9,0-2.8C358.9,643.3,359,642.4,359,641.6 M364.9,646.8c0-1.2-0.2-2.2-0.2-3.3c0-1,0.1-1.9,0.1-2.9c0-0.5,0-1.2-0.3-1.6
		c-0.5-0.6-1.1-0.9-1.8-0.9h-2.7c-0.7,0-1.7,0.1-1.8-0.8h-0.3l-0.9,2.1c0.4,0.6,0.9,0.7,1.6,0.7h3.4c1.4,0,1.5,0.9,1.6,2.1
		c0,0.9,0.1,1.7,0.1,2.6c0,0.5,0,0.9,0,1.4c0,0.6,0.1,1.3,0.2,1.9h0.2L364.9,646.8z"/>
	<path class="st0" d="M540.7,611.1c0-0.4-0.3-0.7-0.7-0.7c-0.4,0-0.7,0.3-0.7,0.7c0,0.4,0.3,0.7,0.7,0.7
		C540.4,611.8,540.7,611.4,540.7,611.1 M543.1,611.5c0-1.2-0.1-4-1.3-4.7c-0.8-0.5-1.5-0.6-2.3-0.7c-0.2,0-0.5-0.1-0.7-0.2
		c-0.3-0.1-0.5-0.3-0.6-0.6h-0.4c-0.7,1.1-2,3.5-2,4.8c0,1.3,0.9,1.8,1.9,2.2l0.8-1.8c-0.1,0-0.2-0.1-0.3-0.1
		c-0.4-0.3-0.8-0.6-0.9-1.1c0-0.1,0-0.3,0-0.4c0-0.5,0.2-1,0.8-1c0.1,0,0.1,0,0.2,0l1.9,0.3c1.4,0.3,1.5,2.8,1.5,4
		c0,0.2,0,1.4-0.1,1.6c-1.2,0-2.5,0-3.7,0c-0.5,0-1,0-1.4,0.1l-0.7,1.8l0.2,0.1c0.6-0.1,1.3-0.1,1.9-0.1c0.8,0,1.6,0,2.5,0
		c0.7,0,1.3,0,2-0.1c0,0,0.1,0,0.1,0C543,613.8,543.1,613.4,543.1,611.5 M540.2,618.2c0-0.4-0.3-0.7-0.7-0.7c-0.4,0-0.7,0.3-0.7,0.7
		c0,0.4,0.3,0.7,0.7,0.7C539.9,618.9,540.2,618.6,540.2,618.2 M531.8,603.7c0-0.4-0.3-0.7-0.7-0.7c-0.4,0-0.7,0.3-0.7,0.7
		c0,0.4,0.3,0.7,0.7,0.7C531.5,604.4,531.8,604.1,531.8,603.7 M534.4,609c0-1.2-0.3-1.9-1.2-2.6c-0.6-0.5-0.5-0.6-0.7-1.2h-0.3
		l-1.1,1.9c0.2,0.5,0.7,0.9,1.1,1.2c0.4,0.3,0.5,0.9,0.5,1.4c0,1.9-1.3,4.5-3.5,4.5c-2.2,0-2.7-1.9-2.7-3.7c0-0.5,0-1.1,0-1.6
		c0-0.3,0-0.7-0.1-1c-0.3-1.6-1.7-1.3-1.9-2.7h-0.3l-0.9,1.9c0.1,0.1,0.2,0.2,0.3,0.3c0.3,0.3,0.6,0.5,0.9,0.7
		c1,0.7,0.8,2.3,0.9,3.3c0,0.6,0.1,1.2,0.2,1.9c0.3,1.7,1.6,2.8,3.4,2.8c2.6,0,4.4-2.7,5.2-4.9C534.1,610.6,534.4,609.7,534.4,609
		 M530.3,608.2c0-1.1-0.5-1.4-1.2-2.1c-0.4-0.4-0.3-0.5-0.4-0.9h-0.3l-1.1,2c0.4,0.6,1.4,0.9,1.4,1.7c0,0.3-0.1,0.6-0.1,0.8
		c-0.1,0.4-0.9,2.6-1.1,2.8l0.3,0.3c0.1-0.1,0.5-0.4,0.5-0.5c0.9-0.9,1.7-2.2,2-3.4C530.3,608.6,530.3,608.5,530.3,608.2
		 M529.6,620.1c0-0.4-0.3-0.7-0.7-0.7c-0.4,0-0.7,0.3-0.7,0.7c0,0.4,0.3,0.7,0.7,0.7C529.3,620.8,529.6,620.4,529.6,620.1
		 M529.5,618.2c0-0.4-0.3-0.7-0.7-0.7c-0.4,0-0.7,0.3-0.7,0.7c0,0.4,0.3,0.7,0.7,0.7C529.2,618.8,529.5,618.5,529.5,618.2
		 M519.4,611.1c0-0.4-0.3-0.7-0.7-0.7c-0.4,0-0.7,0.3-0.7,0.7c0,0.4,0.3,0.7,0.7,0.7C519.1,611.8,519.4,611.4,519.4,611.1
		 M521.8,611.5c0-1.2-0.1-4-1.3-4.7c-0.8-0.5-1.5-0.6-2.3-0.7c-0.2,0-0.5-0.1-0.7-0.2c-0.3-0.1-0.5-0.3-0.6-0.6h-0.4
		c-0.7,1.1-2,3.5-2,4.8c0,1.3,0.9,1.8,1.9,2.2l0.8-1.8c-0.1,0-0.2-0.1-0.3-0.1c-0.4-0.3-0.8-0.6-0.9-1.1c0-0.1,0-0.3,0-0.4
		c0-0.5,0.2-1,0.8-1c0.1,0,0.1,0,0.2,0l1.9,0.3c1.4,0.3,1.5,2.8,1.5,4c0,0.2,0,1.4-0.1,1.6c-1.2,0-2.5,0-3.7,0c-0.5,0-1,0-1.4,0.1
		l-0.7,1.8l0.2,0.1c0.6-0.1,1.3-0.1,1.9-0.1c0.8,0,1.6,0,2.5,0c0.7,0,1.3,0,2-0.1c0,0,0.1,0,0.1,0
		C521.7,613.8,521.8,613.4,521.8,611.5 M517.8,618.2c0-0.4-0.3-0.7-0.7-0.7c-0.4,0-0.7,0.3-0.7,0.7c0,0.4,0.3,0.7,0.7,0.7
		C517.5,618.9,517.8,618.5,517.8,618.2 M520.1,618.2c0-0.4-0.3-0.7-0.7-0.7c-0.4,0-0.7,0.3-0.7,0.7c0,0.4,0.3,0.7,0.7,0.7
		C519.8,618.9,520.1,618.5,520.1,618.2 M519,620c0-0.4-0.3-0.7-0.7-0.7c-0.4,0-0.7,0.3-0.7,0.7c0,0.4,0.3,0.7,0.7,0.7
		C518.7,620.7,519,620.4,519,620 M510.5,603.7c0-0.4-0.3-0.7-0.7-0.7c-0.4,0-0.7,0.3-0.7,0.7c0,0.4,0.3,0.7,0.7,0.7
		C510.2,604.4,510.5,604.1,510.5,603.7 M513.1,609c0-1.2-0.3-1.9-1.2-2.6c-0.6-0.5-0.5-0.6-0.7-1.2h-0.3l-1.1,1.9
		c0.2,0.5,0.7,0.9,1.1,1.2c0.4,0.3,0.5,0.9,0.5,1.4c0,1.9-1.3,4.5-3.5,4.5c-2.2,0-2.7-1.9-2.7-3.7c0-0.5,0-1.1,0-1.6
		c0-0.3,0-0.7-0.1-1c-0.3-1.6-1.7-1.3-1.9-2.7h-0.3l-0.9,1.9c0.1,0.1,0.2,0.2,0.3,0.3c0.3,0.3,0.6,0.5,0.9,0.7
		c1,0.7,0.8,2.3,0.9,3.3c0,0.6,0.1,1.2,0.2,1.9c0.3,1.7,1.6,2.8,3.4,2.8c2.6,0,4.4-2.7,5.2-4.9C512.8,610.6,513.1,609.7,513.1,609
		 M509,608.2c0-1.1-0.5-1.4-1.2-2.1c-0.4-0.4-0.3-0.5-0.4-0.9h-0.3l-1.1,2c0.4,0.6,1.4,0.9,1.4,1.7c0,0.3-0.1,0.6-0.1,0.8
		c-0.1,0.4-0.9,2.6-1.1,2.8l0.3,0.3c0.1-0.1,0.5-0.4,0.5-0.5c0.9-0.9,1.7-2.2,2-3.4C509,608.6,509,608.5,509,608.2 M492.5,618.7
		v-1.1h-4v1.1h1.6c0,0.6-0.1,1.3-0.1,1.9v0.9h1.1v-0.9c0-0.5-0.1-1.4-0.2-1.9H492.5z M495,614.5c-0.6-1-1.3-2-2.2-2.9
		c0.7-0.9,1.9-2.2,1.9-3.5c0-1.1-0.9-1.3-1.5-2c-0.2-0.3-0.3-0.6-0.4-0.9h-0.4l-1.1,1.9c0.2,0.2,0.3,0.4,0.5,0.6
		c0.4,0.3,1,0.5,1,1.1s-0.6,1.5-0.9,1.9c-0.8-0.7-1.5-1.5-2.2-2.2s-1.4-1.5-2.1-2.3c-0.2-0.3-0.3-0.6-0.4-1H487l-1,1.5
		c0.6,0.9,1.4,1.7,1.4,2.8c0,1.6-1.1,3.1-1.1,4.7c0,1.2,1,1.5,2,1.5c0.1,0,0.9,0,0.9-0.2l0.5-1.8c-0.2,0.1-0.4,0.1-0.6,0.1
		c-0.7,0-1.4-0.5-1.4-1.2c0-0.5,0.7-2.3,1-2.8c1.7,1.5,3.3,3,4.6,4.9c0.3,0.4,0.4,0.8,0.6,1.2h0.3L495,614.5z M484.3,614.3
		c0-1.1-0.2-2.3-0.2-3.4c0-0.7,0.1-1.5,0.1-2.2c0-1.5-0.4-2.7-2.2-2.7h-1.8c-0.6,0-1.6,0-1.7-0.8h-0.4l-0.9,2
		c0.1,0.2,0.3,0.5,0.6,0.6c0.4,0.2,2,0.2,2.5,0.2c2,0,2.5,0.1,2.5,2.3v3.3c0,0.8,0,1.6,0.1,2.3h0.3l1.1-1.2
		C484.3,614.7,484.3,614.5,484.3,614.3 M474.9,603.7c0-0.4-0.3-0.7-0.7-0.7c-0.4,0-0.7,0.3-0.7,0.7c0,0.4,0.3,0.7,0.7,0.7
		C474.6,604.4,474.9,604.1,474.9,603.7 M475.9,614.7v-0.2c0-0.4,0-0.7-0.1-1.1c-0.1-0.8-0.2-1.6-0.2-2.4c0-0.8,0.1-1.6,0.1-2.4
		c0-2-0.5-1.9-2.2-2.6c-0.3-0.1-0.5-0.3-0.6-0.5c0-0.1,0-0.1-0.1-0.2h-0.4l-0.9,2c0.1,0.1,0.1,0.1,0.2,0.2c0.2,0.2,0.4,0.3,0.6,0.4
		c0.4,0.2,0.9,0.4,1.3,0.6c0.8,0.4,0.8,2.4,0.8,3.2c0,0.8,0,1.7,0,2.5c0,0.6,0,1.3,0.1,1.9h0.3L475.9,614.7z M466.5,612.4
		c0-0.4-0.3-0.7-0.7-0.7c-0.4,0-0.7,0.3-0.7,0.7c0,0.4,0.3,0.7,0.7,0.7C466.2,613,466.5,612.7,466.5,612.4 M466.5,610.5
		c0-0.4-0.3-0.7-0.7-0.7c-0.4,0-0.7,0.3-0.7,0.7c0,0.4,0.3,0.7,0.7,0.7C466.2,611.2,466.5,610.8,466.5,610.5 M470.2,607
		c0-0.7-0.6-1-1.3-1h-2.8c-0.7,0-1.5,0.1-1.7-0.8h-0.4l-0.9,2.1c0.3,0.6,1,0.7,1.7,0.7h3.6c0.1,0,0.1,0,0.1,0.1
		c0,0.2-0.3,0.8-0.3,1.1c-0.1,0.6-0.1,1.3-0.1,2c0,2.7,0,5.3,0.2,8h0.4l1.2-1.4c0-0.5-0.1-1.1-0.1-1.6c-0.1-0.9-0.1-1.7-0.1-2.6
		c0-0.9-0.2-1.8-0.2-2.8c0-0.6,0-1.2,0.1-1.7C469.7,608.4,470.2,607.7,470.2,607 M456.5,614.3c0-1.1-0.2-2.3-0.2-3.4
		c0-0.7,0.1-1.5,0.1-2.2c0-1.5-0.4-2.7-2.2-2.7h-1.8c-0.6,0-1.6,0-1.7-0.8h-0.4l-0.9,2c0.1,0.2,0.3,0.5,0.6,0.6
		c0.4,0.2,2,0.2,2.5,0.2c2,0,2.5,0.1,2.5,2.3v3.3c0,0.8,0,1.6,0.1,2.3h0.3l1.1-1.2C456.5,614.7,456.5,614.5,456.5,614.3
		 M452.8,618.2c0-0.4-0.3-0.7-0.7-0.7c-0.4,0-0.7,0.3-0.7,0.7c0,0.4,0.3,0.7,0.7,0.7C452.5,618.9,452.8,618.5,452.8,618.2
		 M455.1,618.2c0-0.4-0.3-0.7-0.7-0.7c-0.4,0-0.7,0.3-0.7,0.7c0,0.4,0.3,0.7,0.7,0.7C454.8,618.9,455.1,618.5,455.1,618.2 M454,620
		c0-0.4-0.3-0.7-0.7-0.7c-0.4,0-0.7,0.3-0.7,0.7c0,0.4,0.3,0.7,0.7,0.7C453.7,620.7,454,620.4,454,620 M448.5,614.6
		c-0.1-0.6-0.2-1.2-0.4-1.7c-0.2-0.8-0.3-1.6-0.3-2.4c0-0.6,0-1.2,0-1.7c0-0.3,0-1.1-0.1-1.4c-0.3-0.7-1.6-1-2.3-1.4
		c-0.2-0.1-0.5-0.3-0.5-0.6c0-0.1,0-0.1-0.1-0.2h-0.4l-0.9,1.9c0.1,0.2,0.6,0.5,0.8,0.6c0.5,0.3,1.2,0.4,1.6,0.8
		c0.4,0.4,0.5,1,0.5,1.6c0,0.2,0,0.5,0,0.7c-0.1,1.2-1.3,2-2.2,2.5c-0.1,0.1-0.6,0.3-0.7,0.3l-0.2,2.2c0,0,0.1,0,0.1,0
		c0.6,0,1.6-0.6,2-1.1c0.3-0.4,0.5-0.8,0.7-1.3c0.1-0.2,0.2-0.5,0.3-0.7c0,0,0.1-0.1,0.1-0.1c0.4,0,0.3,1.5,0.3,1.8
		c0,0.4,0.1,0.9,0.3,1.3h0.2L448.5,614.6z M445.4,618.2c0-0.4-0.3-0.7-0.7-0.7c-0.4,0-0.7,0.3-0.7,0.7c0,0.4,0.3,0.7,0.7,0.7
		C445.1,618.9,445.4,618.5,445.4,618.2 M447.8,618.2c0-0.4-0.3-0.7-0.7-0.7c-0.4,0-0.7,0.3-0.7,0.7c0,0.4,0.3,0.7,0.7,0.7
		C447.5,618.9,447.8,618.5,447.8,618.2 M446.7,620c0-0.4-0.3-0.7-0.7-0.7c-0.4,0-0.7,0.3-0.7,0.7c0,0.4,0.3,0.7,0.7,0.7
		C446.4,620.7,446.7,620.4,446.7,620 M442.1,608.2c0-1.9-1-2.2-2.7-2.2h-1.7c-0.5,0-1.3,0.1-1.3-0.6c0-0.7,0.2-1.4,0.2-2
		c0-0.2-0.1-1.6-0.3-1.6H436l-1.4,1.7c0,0.2,0.2,0.4,0.3,0.6c0.2,0.4,0.2,0.9,0.2,1.4c0,0.4,0,0.8,0,1.2c0,1,0.4,1.5,1.4,1.5
		c1,0,1.9,0,2.9,0c1,0,1.1,0.8,1.1,1.6v0.3c-0.1,1.6-2.4,3.2-3.8,3.9l-0.3,2l0.3,0.1c1.2-0.8,2.4-1.7,3.3-2.7
		C441.2,612.1,442.1,609.9,442.1,608.2 M427.9,608.5c0-0.3,0-0.7-0.2-1.1c-0.3-0.9-1-0.9-1.7-1.3c-0.4-0.2-0.4-0.5-0.6-0.9h-0.3
		l-1,1.9c0.3,0.8,2.3,1,2.3,2.5c0,1.5-1.7,2.9-2.9,3.6c-0.1-0.9-0.3-1.7-0.4-2.6c-0.2-1.1-0.3-2.3-0.6-3.4c-0.1-0.6-0.9-0.8-1.4-1.1
		c-0.5-0.3-0.6-0.4-0.8-0.9h-0.4l-1,1.8c0.4,0.7,1.1,0.9,1.7,1.3c0.5,0.3,0.8,2,0.9,2.5l0.5,3.4c-0.7,0.5-1.4,0.9-2.2,1.3l-0.2,1.8
		l0.2,0.1c0.2-0.1,1-0.5,1.3-0.7c1.6-0.9,4.3-2.7,5.3-4.1C427.4,611.6,427.9,609.8,427.9,608.5 M425.6,618.7v-1.1h-4v1.1h1.6
		c0,0.6-0.1,1.3-0.1,1.9v0.9h1.1v-0.9c0-0.5-0.1-1.4-0.2-1.9H425.6z M418,608.2c0-1.9-1-2.2-2.7-2.2h-1.7c-0.5,0-1.3,0.1-1.3-0.6
		c0-0.7,0.2-1.4,0.2-2c0-0.2-0.1-1.6-0.3-1.6h-0.3l-1.4,1.7c0,0.2,0.2,0.4,0.3,0.6c0.2,0.4,0.2,0.9,0.2,1.4c0,0.4,0,0.8,0,1.2
		c0,1,0.4,1.5,1.4,1.5c1,0,1.9,0,2.9,0s1.1,0.8,1.1,1.6v0.3c-0.1,1.6-2.4,3.2-3.8,3.9l-0.3,2l0.3,0.1c1.2-0.8,2.4-1.7,3.3-2.7
		C417.1,612.1,418,609.9,418,608.2 M401.1,611.1c0-0.4-0.3-0.7-0.7-0.7c-0.4,0-0.7,0.3-0.7,0.7c0,0.4,0.3,0.7,0.7,0.7
		C400.8,611.8,401.1,611.4,401.1,611.1 M403.6,611.5c0-1.2-0.1-4-1.3-4.7c-0.8-0.5-1.5-0.6-2.3-0.7c-0.2,0-0.5-0.1-0.7-0.2
		c-0.3-0.1-0.5-0.3-0.6-0.6h-0.4c-0.7,1.1-2,3.5-2,4.8c0,1.3,0.9,1.8,1.9,2.2l0.8-1.8c-0.1,0-0.2-0.1-0.3-0.1
		c-0.4-0.3-0.8-0.6-0.9-1.1c0-0.1,0-0.3,0-0.4c0-0.5,0.2-1,0.8-1c0.1,0,0.1,0,0.2,0l1.9,0.3c1.4,0.3,1.5,2.8,1.5,4
		c0,0.2,0,1.4-0.1,1.6c-1.2,0-2.5,0-3.7,0c-0.5,0-1,0-1.4,0.1l-0.7,1.8l0.2,0.1c0.6-0.1,1.3-0.1,1.9-0.1c0.8,0,1.6,0,2.5,0
		c0.7,0,1.3,0,2-0.1c0,0,0.1,0,0.1,0C403.4,613.8,403.6,613.4,403.6,611.5 M400.7,620.1c0-0.4-0.3-0.7-0.7-0.7
		c-0.4,0-0.7,0.3-0.7,0.7c0,0.4,0.3,0.7,0.7,0.7C400.4,620.8,400.7,620.4,400.7,620.1 M400.7,618.2c0-0.4-0.3-0.7-0.7-0.7
		c-0.4,0-0.7,0.3-0.7,0.7c0,0.4,0.3,0.7,0.7,0.7C400.4,618.8,400.7,618.5,400.7,618.2 M394.4,614.1c0-0.3-0.1-0.6-0.1-0.8
		c0-0.6-0.1-1.1-0.1-1.7c0-1.1,0.1-2.1,0.1-3.2c0-1.6-0.6-1.7-1.9-2.3c-0.3-0.1-0.5-0.3-0.7-0.5c-0.1-0.1-0.2-0.3-0.2-0.3h-0.4
		l-0.9,2c0.1,0.2,0.5,0.5,0.7,0.6c1.1,0.7,1.9,0.4,1.9,2.1l0.1,4h-2.6l-0.4,1.9h4.2C394.2,615.5,394.4,614.2,394.4,614.1
		 M392.1,618.2c0-0.4-0.3-0.7-0.7-0.7c-0.4,0-0.7,0.3-0.7,0.7c0,0.4,0.3,0.7,0.7,0.7C391.8,618.9,392.1,618.5,392.1,618.2
		 M394.4,618.2c0-0.4-0.3-0.7-0.7-0.7c-0.4,0-0.7,0.3-0.7,0.7c0,0.4,0.3,0.7,0.7,0.7C394.1,618.9,394.4,618.5,394.4,618.2
		 M393.3,620c0-0.4-0.3-0.7-0.7-0.7c-0.4,0-0.7,0.3-0.7,0.7c0,0.4,0.3,0.7,0.7,0.7C393,620.7,393.3,620.4,393.3,620 M385.9,609.9
		c0-0.4-0.3-0.7-0.7-0.7c-0.4,0-0.7,0.3-0.7,0.7c0,0.4,0.3,0.7,0.7,0.7C385.6,610.6,385.9,610.2,385.9,609.9 M388.9,608
		c0-1.5-1.1-1.5-2.1-2.1c-0.2-0.1-0.5-0.2-0.6-0.5c0-0.1-0.1-0.2-0.1-0.3h-0.4l-0.8,2c0.5,1,2.3,0.6,2.3,2c0,0.9-0.5,2.1-0.9,2.8
		c0,0.1-0.2,0.4-0.2,0.4l0.4,0.2c0.4-0.2,1.3-1.2,1.6-1.6C388.4,610.2,388.9,609,388.9,608 M377.7,611.2c0-0.4,0-0.8,0-1.2
		c-0.1-1.7-1-4.2-3.1-4.2c-0.9,0-1.8,0.3-2.3,1.1c-0.3,0.4-0.4,0.8-0.6,1.1c0,0-0.1,0.1-0.1,0.1c-0.1,0-0.2-0.4-0.2-0.4
		c-0.2-0.9-1-1.4-1.2-2.5h-0.4l-1.1,1.8c0.6,1.1,1.5,1.7,1.5,3c0,0.7-0.3,1.4-0.5,2.1c-0.2,0.6-0.3,1.3-0.4,1.9
		c-0.1,0.6-0.1,1.3-0.1,2h0.3l1.3-1.5c0,0,0-0.9,0-1c0-0.7,0.1-1.4,0.2-2.1c0.3-1.4,1.1-3.7,2.9-3.7c2.2,0,2.4,3,2.4,4.6
		c0,0.3,0,0.7,0,1c0,0,0,0.3-0.1,0.3c-1.1,0-2.5,0-3.6,0.1l-0.5,1.7l0.2,0.2c0.9-0.1,1.8-0.1,2.7-0.1h1.9l0.6-1.9
		C377.6,613.6,377.7,611.5,377.7,611.2 M375.3,618.7v-1.1h-4v1.1h1.6c0,0.6-0.1,1.3-0.1,1.9v0.9h1.1v-0.9c0-0.5-0.1-1.4-0.2-1.9
		H375.3z M367.3,608c0-1.5-1.1-1.5-2.1-2.1c-0.2-0.1-0.5-0.2-0.6-0.5c0-0.1-0.1-0.2-0.1-0.3h-0.4l-0.8,2c0.5,1,2.3,0.6,2.3,2
		c0,0.9-0.5,2.1-0.9,2.8c0,0.1-0.2,0.4-0.2,0.4l0.4,0.2c0.4-0.2,1.3-1.2,1.6-1.6C366.8,610.2,367.3,609,367.3,608 M366,618.2
		c0-0.4-0.3-0.7-0.7-0.7c-0.4,0-0.7,0.3-0.7,0.7c0,0.4,0.3,0.7,0.7,0.7C365.7,618.9,366,618.6,366,618.2 M360.2,610.4
		c0,1.1,0,2.3-0.1,3.4h-4.8c0-0.6-0.1-1.3-0.1-1.9c0-1.3,0-2.6,0.1-3.9h3.5C360,608,360.2,609.4,360.2,610.4 M361.6,613.7
		c0-0.8-0.1-1.7-0.1-2.5c0-0.7,0-1.4,0-2.1c0-2.3-0.6-3.1-3-3.1h-0.4h-2.6c-0.7,0-1.7,0-1.9-0.9h-0.4l-0.9,2.1
		c0.2,0.4,0.5,0.7,0.9,1c0.5,0.4,0.5,1.5,0.5,2.2c0,1.1-0.1,2.2-0.1,3.3c0,0.7,0.1,1.3,0.1,2h7.2
		C361.2,615.3,361.6,614.1,361.6,613.7 M342.5,611.1c0-0.4-0.3-0.7-0.7-0.7c-0.4,0-0.7,0.3-0.7,0.7c0,0.4,0.3,0.7,0.7,0.7
		C342.2,611.8,342.5,611.4,342.5,611.1 M345,611.5c0-1.2-0.1-4-1.3-4.7c-0.8-0.5-1.5-0.6-2.3-0.7c-0.2,0-0.5-0.1-0.7-0.2
		c-0.3-0.1-0.5-0.3-0.6-0.6h-0.4c-0.7,1.1-2,3.5-2,4.8c0,1.3,0.9,1.8,1.9,2.2l0.8-1.8c-0.1,0-0.2-0.1-0.3-0.1
		c-0.4-0.3-0.8-0.6-0.9-1.1c0-0.1,0-0.3,0-0.4c0-0.5,0.2-1,0.8-1c0.1,0,0.1,0,0.2,0l1.9,0.3c1.4,0.3,1.5,2.8,1.5,4
		c0,0.2,0,1.4-0.1,1.6c-1.2,0-2.5,0-3.7,0c-0.5,0-1,0-1.4,0.1l-0.7,1.8l0.2,0.1c0.6-0.1,1.3-0.1,1.9-0.1c0.8,0,1.6,0,2.5,0
		c0.7,0,1.3,0,2-0.1c0,0,0.1,0,0.1,0C344.8,613.8,345,613.4,345,611.5 M343.4,618.7v-1.1h-4v1.1h1.6c0,0.6-0.1,1.3-0.1,1.9v0.9h1.1
		v-0.9c0-0.5-0.1-1.4-0.2-1.9H343.4z M334.7,610.5c0,1.8-0.9,3.6-2.9,3.6c-1.8,0-2.4-1.6-2.4-3.2V608h3.6
		C334.4,608,334.7,609.2,334.7,610.5 M336.2,609.4c0-2.7-1.4-3.4-3.9-3.4h-2.5c-0.8,0-1.9,0.2-2.1-0.8h-0.4l-1,1.9
		c0,0.3,0.6,0.7,0.8,0.8c0.8,0.5,0.7,2.5,0.8,3.4c0.1,2.2,0.8,4.7,3.5,4.7c2.9,0,4.6-3.6,4.7-6.1
		C336.2,609.8,336.2,609.6,336.2,609.4 M333.5,618.7v-1.1h-4v1.1h1.6c0,0.6-0.1,1.3-0.1,1.9v0.9h1.1v-0.9c0-0.5-0.1-1.4-0.2-1.9
		H333.5z M325.4,608.5c0-0.3,0-0.7-0.2-1.1c-0.3-0.9-1-0.9-1.7-1.3c-0.4-0.2-0.4-0.5-0.6-0.9h-0.3l-1,1.9c0.3,0.8,2.3,1,2.3,2.5
		c0,1.5-1.7,2.9-2.9,3.6c-0.1-0.9-0.3-1.7-0.4-2.6c-0.2-1.1-0.3-2.3-0.6-3.4c-0.1-0.6-0.9-0.8-1.4-1.1c-0.5-0.3-0.6-0.4-0.8-0.9
		h-0.4l-1,1.8c0.4,0.7,1.1,0.9,1.7,1.3c0.5,0.3,0.8,2,0.9,2.5l0.5,3.4c-0.7,0.5-1.4,0.9-2.2,1.3l-0.2,1.8l0.2,0.1
		c0.2-0.1,1-0.5,1.3-0.7c1.6-0.9,4.3-2.7,5.3-4.1C324.8,611.6,325.4,609.8,325.4,608.5"/>
	<path class="st0" d="M543,582.7v-0.2c0-0.4,0-0.7-0.1-1.1c-0.1-0.8-0.2-1.6-0.2-2.4c0-0.8,0.1-1.6,0.1-2.4c0-2-0.5-1.9-2.2-2.6
		c-0.3-0.1-0.5-0.3-0.6-0.5c0-0.1,0-0.1-0.1-0.2h-0.4l-0.9,2c0.1,0.1,0.1,0.1,0.2,0.2c0.2,0.2,0.4,0.3,0.6,0.4
		c0.4,0.2,0.9,0.4,1.3,0.6c0.8,0.4,0.8,2.4,0.8,3.2c0,0.8,0,1.7,0,2.5c0,0.6,0,1.3,0.1,1.9h0.3L543,582.7z M541.8,588.1
		c0-0.4-0.3-0.7-0.7-0.7c-0.4,0-0.7,0.3-0.7,0.7c0,0.4,0.3,0.7,0.7,0.7C541.5,588.8,541.8,588.4,541.8,588.1 M541.8,586.2
		c0-0.4-0.3-0.7-0.7-0.7c-0.4,0-0.7,0.3-0.7,0.7c0,0.4,0.3,0.7,0.7,0.7C541.5,586.8,541.8,586.5,541.8,586.2 M536,578.5
		c0,1.8-0.9,3.6-2.9,3.6c-1.8,0-2.4-1.6-2.4-3.2V576h3.6C535.6,576,536,577.2,536,578.5 M537.5,577.4c0-2.7-1.4-3.4-3.9-3.4h-2.5
		c-0.8,0-1.9,0.2-2.1-0.8h-0.4l-1,1.9c0,0.3,0.6,0.7,0.8,0.8c0.8,0.5,0.7,2.5,0.8,3.4c0.1,2.2,0.8,4.7,3.5,4.7
		c2.9,0,4.6-3.6,4.7-6.1C537.5,577.8,537.5,577.6,537.5,577.4 M533.5,588.1c0-0.4-0.3-0.7-0.7-0.7c-0.4,0-0.7,0.3-0.7,0.7
		c0,0.4,0.3,0.7,0.7,0.7C533.2,588.8,533.5,588.4,533.5,588.1 M533.4,586.2c0-0.4-0.3-0.7-0.7-0.7c-0.4,0-0.7,0.3-0.7,0.7
		c0,0.4,0.3,0.7,0.7,0.7C533.1,586.8,533.4,586.5,533.4,586.2 M526.3,582.1c0-0.3-0.1-0.6-0.1-0.8c0-0.6-0.1-1.1-0.1-1.7
		c0-1.1,0.1-2.1,0.1-3.2c0-1.6-0.6-1.7-1.9-2.3c-0.3-0.1-0.5-0.3-0.7-0.5c-0.1-0.1-0.2-0.3-0.2-0.3h-0.4l-0.9,2
		c0.1,0.2,0.5,0.5,0.7,0.6c1.1,0.7,1.9,0.4,1.9,2.1l0.1,4h-2.6l-0.4,1.9h4.2C526,583.5,526.3,582.2,526.3,582.1 M518,579.5
		c0-0.4-0.3-0.7-0.7-0.7c-0.4,0-0.7,0.3-0.7,0.7c0,0.4,0.3,0.7,0.7,0.7C517.7,580.2,518,579.8,518,579.5 M520.3,582.7v-0.2
		c0-0.4,0-0.7-0.1-1.1c-0.1-0.8-0.2-1.6-0.2-2.4c0-0.8,0.1-1.6,0.1-2.4c0-2-0.5-1.9-2.2-2.6c-0.3-0.1-0.5-0.3-0.6-0.5
		c0-0.1,0-0.1-0.1-0.2h-0.4l-0.9,2c0.1,0.1,0.1,0.1,0.2,0.2c0.2,0.2,0.4,0.3,0.6,0.4c0.4,0.2,0.9,0.4,1.3,0.6
		c0.8,0.4,0.8,2.4,0.8,3.2c0,0.8,0,1.7,0,2.5c0,0.6,0,1.3,0.1,1.9h0.3L520.3,582.7z M514.5,582.1c0-0.3-0.1-0.6-0.1-0.8
		c0-0.6-0.1-1.1-0.1-1.7c0-1.1,0.1-2.1,0.1-3.2c0-1.6-0.6-1.7-1.9-2.3c-0.3-0.1-0.5-0.3-0.7-0.5c-0.1-0.1-0.2-0.3-0.2-0.3h-0.4
		l-0.9,2c0.1,0.2,0.5,0.5,0.7,0.6c1.1,0.7,1.9,0.4,1.9,2.1l0.1,4h-2.6l-0.4,1.9h4.2C514.2,583.5,514.5,582.2,514.5,582.1
		 M513.3,586.2c0-0.4-0.3-0.7-0.7-0.7c-0.4,0-0.7,0.3-0.7,0.7c0,0.4,0.3,0.7,0.7,0.7C513,586.9,513.3,586.6,513.3,586.2 M508.9,576
		c0-1.5-1.1-1.5-2.1-2.1c-0.2-0.1-0.5-0.2-0.6-0.5c0-0.1-0.1-0.2-0.1-0.3h-0.4l-0.8,2c0.5,1,2.3,0.6,2.3,2c0,0.9-0.5,2.1-0.9,2.8
		c0,0.1-0.2,0.4-0.2,0.4l0.4,0.2c0.4-0.2,1.3-1.2,1.6-1.6C508.4,578.2,508.9,577,508.9,576 M503.2,582.1c0-1.3-0.3-2.7-0.3-4
		c0-0.6,0.1-1.2,0.1-1.8c0-0.4,0-1-0.3-1.4c-0.5-0.6-1.1-0.9-1.8-0.9h-4c-0.7,0-1.6,0.1-1.8-0.8h-0.3l-0.9,2.2
		c0.2,0.3,0.5,0.5,0.9,0.7c0.6,0.2,0.7,1.3,0.8,1.9c0.2,1.3,0.3,2.5,0.3,3.8c-0.6,0-1.1,0-1.7,0.1l-0.5,1.9c1.1-0.1,2.2,0,3.3-0.1
		l0.4-1.7c0,0-0.1-0.8-0.1-0.8c-0.1-0.7-0.2-1.4-0.3-2.1c-0.1-1-0.1-2.1-0.1-3.1h2.6c0.7,0,1.4,0.1,1.8,0.7c0.3,0.4,0.3,1.5,0.3,2.1
		v2.9c0,0.8,0,1.6,0.2,2.3h0.3l1.2-1.3C503.2,582.5,503.2,582.3,503.2,582.1 M486.8,576c0-1.6-1.9-1.5-1.8-2.8h-0.4l-1.1,1.7
		c0.2,0.7,1,1,1.5,1.5c0.1,0.1,0.1,0.2,0.1,0.3c0,0.6-0.9,1.5-1.3,1.9c0,0.1-0.2,0.2-0.3,0.3c-0.5-0.7-1.1-1.4-1.5-2.2
		c-0.3-0.8-0.5-1.7-1.2-2.3c-0.3-0.3-0.6-0.7-0.7-1.1h-0.4l-1.1,1.7c0,0.5,1.1,1.2,1.4,1.4c0.4,0.3,1,1.7,1.3,2.2
		c0.2,0.3,0.4,0.6,0.6,0.9c0.7,0.8,1.5,1.5,2.2,2.2c0,0,0.1,0.1,0.1,0.1h-4.2c-0.3,0-0.6,0-0.9,0.1l-0.4,1.8c0,0,0.1,0.1,0.1,0.1
		c0.2,0,0.4,0,0.5,0c0.4,0,0.8,0,1.2,0h5.3l0.3-2.1l-0.1-0.1c-0.3-0.3-1.9-1.7-1.9-1.9l0.1-0.1c0.3-0.2,0.5-0.5,0.7-0.7
		C485.8,578.2,486.8,577,486.8,576 M484.9,586.7v-1.1h-4v1.1h1.6c0,0.6-0.1,1.3-0.1,1.9v0.9h1.1v-0.9c0-0.5-0.1-1.4-0.2-1.9H484.9z
		 M477.6,576.2c0-1.9-1-2.2-2.7-2.2h-1.7c-0.5,0-1.3,0.1-1.3-0.6c0-0.7,0.2-1.4,0.2-2c0-0.2-0.1-1.6-0.3-1.6h-0.3l-1.4,1.7
		c0,0.2,0.2,0.4,0.3,0.6c0.2,0.4,0.2,0.9,0.2,1.4c0,0.4,0,0.8,0,1.2c0,1,0.4,1.5,1.4,1.5c1,0,1.9,0,2.9,0s1.1,0.8,1.1,1.6v0.3
		c-0.1,1.6-2.4,3.2-3.8,3.9l-0.3,2l0.3,0.1c1.2-0.8,2.4-1.7,3.3-2.7C476.8,580.1,477.6,577.9,477.6,576.2 M473.6,588
		c0-0.4-0.3-0.7-0.7-0.7c-0.4,0-0.7,0.3-0.7,0.7c0,0.4,0.3,0.7,0.7,0.7C473.3,588.7,473.6,588.3,473.6,588 M477,586.2
		c0-0.4-0.3-0.7-0.7-0.7c-0.4,0-0.7,0.3-0.7,0.7c0,0.4,0.3,0.7,0.7,0.7C476.7,586.8,477,586.5,477,586.2 M477,588.1
		c0-0.4-0.3-0.7-0.7-0.7c-0.4,0-0.7,0.3-0.7,0.7c0,0.4,0.3,0.7,0.7,0.7C476.7,588.8,477,588.5,477,588.1 M474.7,586.1
		c0-0.4-0.3-0.7-0.7-0.7c-0.4,0-0.7,0.3-0.7,0.7c0,0.4,0.3,0.7,0.7,0.7C474.4,586.8,474.7,586.5,474.7,586.1 M472.5,586.2
		c0-0.4-0.3-0.7-0.7-0.7c-0.4,0-0.7,0.3-0.7,0.7c0,0.4,0.3,0.7,0.7,0.7C472.2,586.8,472.5,586.5,472.5,586.2 M469.1,576.2
		c0-1.9-1-2.2-2.7-2.2h-1.7c-0.5,0-1.3,0.1-1.3-0.6c0-0.7,0.2-1.4,0.2-2c0-0.2-0.1-1.6-0.3-1.6H463l-1.4,1.7c0,0.2,0.2,0.4,0.3,0.6
		c0.2,0.4,0.2,0.9,0.2,1.4c0,0.4,0,0.8,0,1.2c0,1,0.4,1.5,1.4,1.5c1,0,1.9,0,2.9,0s1.1,0.8,1.1,1.6v0.3c-0.1,1.6-2.4,3.2-3.8,3.9
		l-0.3,2l0.3,0.1c1.2-0.8,2.4-1.7,3.3-2.7C468.3,580.1,469.1,577.9,469.1,576.2 M467.6,585.6h-4v1.1h4V585.6z M454.4,577.6h-0.3
		l-1.1,1.2c-0.1,0.9-0.1,1.7-0.1,2.6c0,0.9,0,1.7,0.1,2.6h0.3l1-1.1c0-0.9,0-1.9,0-2.8C454.3,579.2,454.3,578.4,454.4,577.6
		 M460.2,582.8c0-1.2-0.2-2.2-0.2-3.3c0-1,0.1-1.9,0.1-2.9c0-0.5,0-1.2-0.3-1.6c-0.5-0.6-1.1-0.9-1.8-0.9h-2.7
		c-0.7,0-1.7,0.1-1.8-0.8h-0.3l-0.9,2.1c0.4,0.6,0.9,0.7,1.6,0.7h3.4c1.4,0,1.5,0.9,1.6,2.1c0,0.9,0.1,1.7,0.1,2.6
		c0,0.5,0,0.9,0,1.4c0,0.6,0.1,1.3,0.2,1.9h0.2L460.2,582.8z M445.1,576.2c0-1.9-1-2.2-2.7-2.2h-1.7c-0.5,0-1.3,0.1-1.3-0.6
		c0-0.7,0.2-1.4,0.2-2c0-0.2-0.1-1.6-0.3-1.6H439l-1.4,1.7c0,0.2,0.2,0.4,0.3,0.6c0.2,0.4,0.2,0.9,0.2,1.4c0,0.4,0,0.8,0,1.2
		c0,1,0.4,1.5,1.4,1.5c1,0,1.9,0,2.9,0c1,0,1.1,0.8,1.1,1.6v0.3c-0.1,1.6-2.4,3.2-3.8,3.9l-0.3,2l0.3,0.1c1.2-0.8,2.4-1.7,3.3-2.7
		C444.2,580.1,445.1,577.9,445.1,576.2 M443.5,586.7v-1.1h-4v1.1h1.6c0,0.6-0.1,1.3-0.1,1.9v0.9h1.1v-0.9c0-0.5-0.1-1.4-0.2-1.9
		H443.5z M430.3,577.6H430l-1.1,1.2c-0.1,0.9-0.1,1.7-0.1,2.6c0,0.9,0,1.7,0.1,2.6h0.3l1-1.1c0-0.9,0-1.9,0-2.8
		C430.2,579.2,430.3,578.4,430.3,577.6 M436.2,582.8c0-1.2-0.2-2.2-0.2-3.3c0-1,0.1-1.9,0.1-2.9c0-0.5,0-1.2-0.3-1.6
		c-0.5-0.6-1.1-0.9-1.8-0.9h-2.7c-0.7,0-1.7,0.1-1.8-0.8H429l-0.9,2.1c0.4,0.6,0.9,0.7,1.6,0.7h3.4c1.4,0,1.5,0.9,1.6,2.1
		c0,0.9,0.1,1.7,0.1,2.6c0,0.5,0,0.9,0,1.4c0,0.6,0.1,1.3,0.2,1.9h0.2L436.2,582.8z M417.5,578.7c0-0.4-0.3-0.7-0.7-0.7
		c-0.4,0-0.7,0.3-0.7,0.7c0,0.4,0.3,0.7,0.7,0.7C417.2,579.4,417.5,579.1,417.5,578.7 M421,578.5c0-2.3-1-4.5-3.6-4.5
		c-0.6,0-1.6,0.1-2.1-0.3c-0.2-0.1-0.3-0.4-0.3-0.6h-0.4l-0.8,2.2c-0.1,0.1,0.4,0.4,0.5,0.5c0.5,0.3,1.3,0.2,1.8,0.2
		c2,0,3.3,0.4,3.3,2.6c0,0.6,0,3.1-0.9,3.1h-0.6c-0.6,0-1.3,0-1.9,0c-0.5,0-1.1,0-1.6,0.1l-0.5,1.9l0.2,0.1c0.6-0.1,1.2-0.1,1.8-0.1
		c1,0,1.9,0,2.9,0c0.4,0,0.7-0.3,0.9-0.6C420.4,581.8,421,580,421,578.5 M418.3,588.1c0-0.4-0.3-0.7-0.7-0.7c-0.4,0-0.7,0.3-0.7,0.7
		c0,0.4,0.3,0.7,0.7,0.7C418,588.8,418.3,588.4,418.3,588.1 M418.2,586.2c0-0.4-0.3-0.7-0.7-0.7c-0.4,0-0.7,0.3-0.7,0.7
		c0,0.4,0.3,0.7,0.7,0.7C417.9,586.8,418.2,586.5,418.2,586.2 M412.7,577c0-1.2-0.3-1.9-1.2-2.6c-0.6-0.5-0.5-0.6-0.7-1.2h-0.3
		l-1.1,1.9c0.2,0.5,0.7,0.9,1.1,1.2c0.4,0.3,0.5,0.9,0.5,1.4c0,1.9-1.3,4.5-3.5,4.5c-2.2,0-2.7-1.9-2.7-3.7c0-0.5,0-1.1,0-1.6
		c0-0.3,0-0.7-0.1-1c-0.3-1.6-1.7-1.3-1.9-2.7h-0.3l-0.9,1.9c0.1,0.1,0.2,0.2,0.3,0.3c0.3,0.3,0.6,0.5,0.9,0.7
		c1,0.7,0.8,2.3,0.9,3.3c0,0.6,0.1,1.2,0.2,1.9c0.3,1.7,1.6,2.8,3.4,2.8c2.6,0,4.4-2.7,5.2-4.9C412.4,578.6,412.7,577.7,412.7,577
		 M408.6,576.2c0-1.1-0.5-1.4-1.2-2.1c-0.4-0.4-0.3-0.5-0.4-0.9h-0.3l-1.1,2c0.4,0.6,1.4,0.9,1.4,1.7c0,0.3-0.1,0.6-0.1,0.8
		c-0.1,0.4-0.9,2.6-1.1,2.8l0.3,0.3c0.1-0.1,0.5-0.4,0.5-0.5c0.9-0.9,1.7-2.2,2-3.4C408.6,576.6,408.6,576.5,408.6,576.2
		 M407.9,588.1c0-0.4-0.3-0.7-0.7-0.7c-0.4,0-0.7,0.3-0.7,0.7c0,0.4,0.3,0.7,0.7,0.7C407.6,588.8,407.9,588.4,407.9,588.1
		 M407.9,586.2c0-0.4-0.3-0.7-0.7-0.7c-0.4,0-0.7,0.3-0.7,0.7c0,0.4,0.3,0.7,0.7,0.7C407.6,586.8,407.9,586.5,407.9,586.2
		 M413.4,571.1c0-0.4-0.3-0.7-0.7-0.7c-0.4,0-0.7,0.3-0.7,0.7c0,0.4,0.3,0.7,0.7,0.7C413.1,571.8,413.4,571.5,413.4,571.1
		 M396.3,578.8c0-0.4-0.3-0.7-0.7-0.7c-0.4,0-0.7,0.3-0.7,0.7c0,0.4,0.3,0.7,0.7,0.7C396,579.4,396.3,579.1,396.3,578.8
		 M400.6,581.7c-0.1,0-0.2,0-0.3,0c-0.9,0-1.1-0.9-1.1-1.6c0-0.5,0.1-1,0.1-1.5c0-0.7,0.1-1.4,0.1-2.1c0-0.6-0.1-1.2-0.4-1.7
		c-0.6-0.7-1.3-0.7-2.2-0.7c-0.6,0-2.2,0.1-2.7-0.3c-0.2-0.1-0.3-0.3-0.3-0.5h-0.3l-0.8,2.1c0.1,0.2,0.3,0.4,0.5,0.5
		c0.4,0.2,1,0.2,1.5,0.2h1.7c1.1,0,1.5,0.6,1.5,1.6v4h-1.5c-0.5,0-1,0-1.5,0c-0.6,0-1.1,0-1.7,0.1l-0.5,1.9l0.2,0.1
		c0.3-0.1,1.6-0.1,1.9-0.1c1.8,0,3.7,0,5.5,0L400.6,581.7z M398.7,586.7v-1.1h-4v1.1h1.6c0,0.6-0.1,1.3-0.1,1.9v0.9h1.1v-0.9
		c0-0.5-0.1-1.4-0.2-1.9H398.7z M391.6,582.5c-0.6-1-1.3-2-2.2-2.9c0.7-0.9,1.9-2.2,1.9-3.5c0-1.1-0.9-1.3-1.5-2
		c-0.2-0.3-0.3-0.6-0.4-0.9h-0.4l-1.1,1.9c0.2,0.2,0.3,0.4,0.5,0.6c0.4,0.3,1,0.5,1,1.1s-0.6,1.5-0.9,1.9c-0.8-0.7-1.5-1.5-2.2-2.2
		c-0.7-0.7-1.4-1.5-2.1-2.3c-0.2-0.3-0.3-0.6-0.4-1h-0.4l-1,1.5c0.6,0.9,1.4,1.7,1.4,2.8c0,1.6-1.1,3.1-1.1,4.7c0,1.2,1,1.5,2,1.5
		c0.1,0,0.9,0,0.9-0.2l0.5-1.8c-0.2,0.1-0.4,0.1-0.6,0.1c-0.7,0-1.4-0.5-1.4-1.2c0-0.5,0.7-2.3,1-2.8c1.7,1.5,3.3,3,4.6,4.9
		c0.3,0.4,0.4,0.8,0.6,1.2h0.3L391.6,582.5z M375.6,576.2c0-1.9-1-2.2-2.7-2.2h-1.7c-0.5,0-1.3,0.1-1.3-0.6c0-0.7,0.2-1.4,0.2-2
		c0-0.2-0.1-1.6-0.3-1.6h-0.3l-1.4,1.7c0,0.2,0.2,0.4,0.3,0.6c0.2,0.4,0.2,0.9,0.2,1.4c0,0.4,0,0.8,0,1.2c0,1,0.4,1.5,1.4,1.5
		c1,0,1.9,0,2.9,0c1,0,1.1,0.8,1.1,1.6v0.3c-0.1,1.6-2.4,3.2-3.8,3.9l-0.3,2l0.3,0.1c1.2-0.8,2.4-1.7,3.3-2.7
		C374.7,580.1,375.6,577.9,375.6,576.2 M374,586.7v-1.1h-4v1.1h1.6c0,0.6-0.1,1.3-0.1,1.9v0.9h1.1v-0.9c0-0.5-0.1-1.4-0.2-1.9H374z
		 M360.8,577.6h-0.3l-1.1,1.2c-0.1,0.9-0.1,1.7-0.1,2.6c0,0.9,0,1.7,0.1,2.6h0.3l1-1.1c0-0.9,0-1.9,0-2.8
		C360.7,579.2,360.8,578.4,360.8,577.6 M366.7,582.8c0-1.2-0.2-2.2-0.2-3.3c0-1,0.1-1.9,0.1-2.9c0-0.5,0-1.2-0.3-1.6
		c-0.5-0.6-1.1-0.9-1.8-0.9h-2.7c-0.7,0-1.7,0.1-1.8-0.8h-0.3l-0.9,2.1c0.4,0.6,0.9,0.7,1.6,0.7h3.4c1.4,0,1.5,0.9,1.6,2.1
		c0,0.9,0.1,1.7,0.1,2.6c0,0.5,0,0.9,0,1.4c0,0.6,0.1,1.3,0.2,1.9h0.2L366.7,582.8z M351.5,576.2c0-1.9-1-2.2-2.7-2.2h-1.7
		c-0.5,0-1.3,0.1-1.3-0.6c0-0.7,0.2-1.4,0.2-2c0-0.2-0.1-1.6-0.3-1.6h-0.3l-1.4,1.7c0,0.2,0.2,0.4,0.3,0.6c0.2,0.4,0.2,0.9,0.2,1.4
		c0,0.4,0,0.8,0,1.2c0,1,0.4,1.5,1.4,1.5c1,0,1.9,0,2.9,0c1,0,1.1,0.8,1.1,1.6v0.3c-0.1,1.6-2.4,3.2-3.8,3.9l-0.3,2l0.3,0.1
		c1.2-0.8,2.4-1.7,3.3-2.7C350.7,580.1,351.5,577.9,351.5,576.2 M348.6,586.2c0-0.4-0.3-0.7-0.7-0.7c-0.4,0-0.7,0.3-0.7,0.7
		c0,0.4,0.3,0.7,0.7,0.7C348.3,586.9,348.6,586.6,348.6,586.2 M343,577c0-1.2-0.3-1.9-1.2-2.6c-0.6-0.5-0.5-0.6-0.7-1.2h-0.3
		l-1.1,1.9c0.2,0.5,0.7,0.9,1.1,1.2c0.4,0.3,0.5,0.9,0.5,1.4c0,1.9-1.3,4.5-3.5,4.5c-2.2,0-2.7-1.9-2.7-3.7c0-0.5,0-1.1,0-1.6
		c0-0.3,0-0.7-0.1-1c-0.3-1.6-1.7-1.3-1.9-2.7h-0.3l-0.9,1.9c0.1,0.1,0.2,0.2,0.3,0.3c0.3,0.3,0.6,0.5,0.9,0.7
		c1,0.7,0.8,2.3,0.9,3.3c0,0.6,0.1,1.2,0.2,1.9c0.3,1.7,1.6,2.8,3.4,2.8c2.6,0,4.4-2.7,5.2-4.9C342.8,578.6,343,577.7,343,577
		 M338.9,576.2c0-1.1-0.5-1.4-1.2-2.1c-0.4-0.4-0.3-0.5-0.4-0.9H337l-1.1,2c0.4,0.6,1.4,0.9,1.4,1.7c0,0.3-0.1,0.6-0.1,0.8
		c-0.1,0.4-0.9,2.6-1.1,2.8l0.3,0.3c0.1-0.1,0.5-0.4,0.5-0.5c0.9-0.9,1.7-2.2,2-3.4C338.9,576.6,338.9,576.5,338.9,576.2
		 M338.2,588.1c0-0.4-0.3-0.7-0.7-0.7c-0.4,0-0.7,0.3-0.7,0.7c0,0.4,0.3,0.7,0.7,0.7C338,588.8,338.2,588.4,338.2,588.1
		 M338.2,586.2c0-0.4-0.3-0.7-0.7-0.7c-0.4,0-0.7,0.3-0.7,0.7c0,0.4,0.3,0.7,0.7,0.7C337.9,586.8,338.2,586.5,338.2,586.2
		 M343.7,571.1c0-0.4-0.3-0.7-0.7-0.7c-0.4,0-0.7,0.3-0.7,0.7c0,0.4,0.3,0.7,0.7,0.7C343.4,571.8,343.7,571.5,343.7,571.1
		 M327.1,578.9c0-0.4-0.3-0.7-0.7-0.7c-0.4,0-0.7,0.3-0.7,0.7c0,0.4,0.3,0.7,0.7,0.7C326.8,579.6,327.1,579.2,327.1,578.9
		 M330.3,582.1c0-1.3-0.3-2.7-0.3-4c0-0.6,0.1-1.2,0.1-1.8c0-0.4,0-1-0.3-1.4c-0.5-0.6-1.1-0.9-1.8-0.9h-4c-0.7,0-1.6,0.1-1.8-0.8
		h-0.3l-0.9,2.2c0.2,0.3,0.5,0.5,0.9,0.7c0.6,0.2,0.7,1.3,0.8,1.9c0.2,1.3,0.3,2.5,0.3,3.8c-0.6,0-1.1,0-1.7,0.1l-0.5,1.9
		c1.1-0.1,2.2,0,3.3-0.1l0.4-1.7c0,0-0.1-0.8-0.1-0.8c-0.1-0.7-0.2-1.4-0.3-2.1c-0.1-1-0.1-2.1-0.1-3.1h2.6c0.7,0,1.4,0.1,1.8,0.7
		c0.3,0.4,0.3,1.5,0.3,2.1v2.9c0,0.8,0,1.6,0.2,2.3h0.3l1.2-1.3C330.3,582.5,330.3,582.3,330.3,582.1 M318.3,571.7
		c0-0.4-0.3-0.7-0.7-0.7c-0.4,0-0.7,0.3-0.7,0.7c0,0.4,0.3,0.7,0.7,0.7C318,572.4,318.3,572.1,318.3,571.7 M319.3,582.7v-0.2
		c0-0.4,0-0.7-0.1-1.1c-0.1-0.8-0.2-1.6-0.2-2.4c0-0.8,0.1-1.6,0.1-2.4c0-2-0.5-1.9-2.2-2.6c-0.3-0.1-0.5-0.3-0.6-0.5
		c0-0.1,0-0.1-0.1-0.2h-0.4l-0.9,2c0.1,0.1,0.1,0.1,0.2,0.2c0.2,0.2,0.4,0.3,0.6,0.4c0.4,0.2,0.9,0.4,1.3,0.6
		c0.8,0.4,0.8,2.4,0.8,3.2c0,0.8,0,1.7,0,2.5c0,0.6,0,1.3,0.1,1.9h0.3L319.3,582.7z M313.4,582.1c0-1.3-0.3-2.7-0.3-4
		c0-0.6,0.1-1.2,0.1-1.8c0-0.4,0-1-0.3-1.4c-0.5-0.6-1.1-0.9-1.8-0.9h-4c-0.7,0-1.6,0.1-1.8-0.8h-0.3l-0.9,2.2
		c0.2,0.3,0.5,0.5,0.9,0.7c0.6,0.2,0.7,1.3,0.8,1.9c0.2,1.3,0.3,2.5,0.3,3.8c-0.6,0-1.1,0-1.7,0.1l-0.5,1.9c1.1-0.1,2.2,0,3.3-0.1
		l0.4-1.7c0,0-0.1-0.8-0.1-0.8c-0.1-0.7-0.2-1.4-0.3-2.1c-0.1-1-0.1-2.1-0.1-3.1h2.6c0.7,0,1.4,0.1,1.8,0.7c0.3,0.4,0.3,1.5,0.3,2.1
		v2.9c0,0.8,0,1.6,0.2,2.3h0.3l1.2-1.3C313.4,582.5,313.4,582.3,313.4,582.1"/>
	<path class="st0" d="M543.2,547.2c0-0.4,0-0.8,0-1.2c-0.1-1.7-1-4.2-3.1-4.2c-0.9,0-1.8,0.3-2.3,1.1c-0.3,0.4-0.4,0.8-0.6,1.1
		c0,0-0.1,0.1-0.1,0.1c-0.1,0-0.2-0.4-0.2-0.4c-0.2-0.9-1-1.4-1.2-2.5h-0.4l-1.1,1.8c0.6,1.1,1.5,1.7,1.5,3c0,0.7-0.3,1.4-0.5,2.1
		c-0.2,0.6-0.3,1.3-0.4,1.9c-0.1,0.6-0.1,1.3-0.1,2h0.3l1.3-1.5c0,0,0-0.9,0-1c0-0.7,0.1-1.4,0.2-2.1c0.3-1.4,1.1-3.7,2.9-3.7
		c2.2,0,2.4,3,2.4,4.6c0,0.3,0,0.7,0,1c0,0,0,0.3-0.1,0.3c-1.1,0-2.5,0-3.6,0.1l-0.5,1.7l0.2,0.2c0.9-0.1,1.8-0.1,2.7-0.1h1.9
		l0.6-1.9C543.1,549.6,543.2,547.5,543.2,547.2 M540.8,554.7v-1.1h-4v1.1h1.6c0,0.6-0.1,1.3-0.1,1.9v0.9h1.1v-0.9
		c0-0.5-0.1-1.4-0.2-1.9H540.8z M532.5,550.8v-0.1c0-0.4,0-0.7-0.1-1.1c0-0.7,0-1.3,0-2c0-0.9,0.1-1.8,0.1-2.7c0-0.6,0-1.6-0.3-2
		c-0.5-0.7-1.1-0.9-1.9-0.9h-3.8c-0.7,0-1.5,0.1-1.8-0.8h-0.4l-1,2c0.2,0.2,0.8,0.7,1,0.9c0.4,0.4,0.4,1.8,0.4,2.3
		c0,1.1-0.1,2.2-0.1,3.2c0,0.8,0.1,1.6,0.1,2.3h0.3l1.2-1.3v-0.1c0-0.4,0-0.8-0.1-1.2c-0.1-0.8-0.1-1.6-0.1-2.4c0-1,0-2,0.1-3h2.8
		c2,0,2.1,0.9,2.1,2.6c0,1-0.1,2.1-0.1,3.1c0,0.8,0.1,1.5,0.1,2.3h0.3L532.5,550.8z M528.8,556.1c0-0.4-0.3-0.7-0.7-0.7
		c-0.4,0-0.7,0.3-0.7,0.7c0,0.4,0.3,0.7,0.7,0.7C528.5,556.8,528.8,556.4,528.8,556.1 M528.8,554.2c0-0.4-0.3-0.7-0.7-0.7
		c-0.4,0-0.7,0.3-0.7,0.7c0,0.4,0.3,0.7,0.7,0.7C528.5,554.8,528.8,554.5,528.8,554.2 M521.7,550.3c0-1.1-0.2-2.3-0.2-3.4
		c0-0.7,0.1-1.5,0.1-2.2c0-1.5-0.4-2.7-2.2-2.7h-1.8c-0.6,0-1.6,0-1.7-0.8h-0.4l-0.9,2c0.1,0.2,0.3,0.5,0.6,0.6
		c0.4,0.2,2,0.2,2.5,0.2c2,0,2.5,0.1,2.5,2.3v3.3c0,0.8,0,1.6,0.1,2.3h0.3l1.1-1.2C521.7,550.7,521.7,550.5,521.7,550.3
		 M513.2,550.7v-0.2c0-0.4,0-0.7-0.1-1.1c-0.1-0.8-0.2-1.6-0.2-2.4c0-0.8,0.1-1.6,0.1-2.4c0-2-0.5-1.9-2.2-2.6
		c-0.3-0.1-0.5-0.3-0.6-0.5c0-0.1,0-0.1-0.1-0.2h-0.4l-0.9,2c0.1,0.1,0.1,0.1,0.2,0.2c0.2,0.2,0.4,0.3,0.6,0.4
		c0.4,0.2,0.9,0.4,1.3,0.6c0.8,0.4,0.8,2.4,0.8,3.2c0,0.8,0,1.7,0,2.5c0,0.6,0,1.3,0.1,1.9h0.3L513.2,550.7z M509.8,539
		c0-0.4-0.3-0.7-0.7-0.7c-0.4,0-0.7,0.3-0.7,0.7c0,0.4,0.3,0.7,0.7,0.7C509.5,539.6,509.8,539.3,509.8,539 M508,542.5
		c-0.6-0.1-2.4-0.4-2.8-0.6c-0.3-0.2-0.4-0.4-0.6-0.7h-0.4l-0.9,1.9c0.2,0.2,0.4,0.5,0.7,0.6c0.5,0.3,1.1,0.5,1.1,1.1
		c0,0.7-0.7,1.5-0.7,2.6s0.5,3.5,0.9,4.5h0.4l1-1.3c-0.3-1-0.8-2.8-0.8-3.8c0-0.9,0.3-1.7,0.6-2.5c0.2,0,0.4,0.1,0.6,0.1
		c0.2,0,0.3,0,0.5,0.1L508,542.5z M505.1,554.2c0-0.4-0.3-0.7-0.7-0.7c-0.4,0-0.7,0.3-0.7,0.7c0,0.4,0.3,0.7,0.7,0.7
		C504.8,554.9,505.1,554.5,505.1,554.2 M507.4,554.2c0-0.4-0.3-0.7-0.7-0.7c-0.4,0-0.7,0.3-0.7,0.7c0,0.4,0.3,0.7,0.7,0.7
		C507.1,554.9,507.4,554.5,507.4,554.2 M506.3,556c0-0.4-0.3-0.7-0.7-0.7c-0.4,0-0.7,0.3-0.7,0.7c0,0.4,0.3,0.7,0.7,0.7
		C506,556.7,506.3,556.4,506.3,556 M501.6,550.1c0-1.3-0.3-2.7-0.3-4c0-0.6,0.1-1.2,0.1-1.8c0-0.4,0-1-0.3-1.4
		c-0.5-0.6-1.1-0.9-1.8-0.9h-4c-0.7,0-1.6,0.1-1.8-0.8h-0.3l-0.9,2.2c0.2,0.3,0.5,0.5,0.9,0.7c0.6,0.2,0.7,1.3,0.8,1.9
		c0.2,1.3,0.3,2.5,0.3,3.8c-0.6,0-1.1,0-1.7,0.1l-0.5,1.9c1.1-0.1,2.2,0,3.3-0.1l0.4-1.7c0,0-0.1-0.8-0.1-0.8
		c-0.1-0.7-0.2-1.4-0.3-2.1c-0.1-1-0.1-2.1-0.1-3.1h2.6c0.7,0,1.4,0.1,1.8,0.7c0.3,0.4,0.3,1.5,0.3,2.1v2.9c0,0.8,0,1.6,0.2,2.3h0.3
		l1.2-1.3C501.6,550.5,501.6,550.3,501.6,550.1 M479,545.6h-0.3l-1.1,1.2c-0.1,0.9-0.1,1.7-0.1,2.6c0,0.9,0,1.7,0.1,2.6h0.3l1-1.1
		c0-0.9,0-1.9,0-2.8C478.9,547.2,478.9,546.4,479,545.6 M484.8,550.8c0-1.2-0.2-2.2-0.2-3.3c0-1,0.1-1.9,0.1-2.9
		c0-0.5,0-1.2-0.3-1.6c-0.5-0.6-1.1-0.9-1.8-0.9h-2.7c-0.7,0-1.7,0.1-1.8-0.8h-0.3l-0.9,2.1c0.4,0.6,0.9,0.7,1.6,0.7h3.4
		c1.4,0,1.5,0.9,1.6,2.1c0,0.9,0.1,1.7,0.1,2.6c0,0.5,0,0.9,0,1.4c0,0.6,0.1,1.3,0.2,1.9h0.2L484.8,550.8z M475,550.7v-0.2
		c0-0.4,0-0.7-0.1-1.1c-0.1-0.8-0.2-1.6-0.2-2.4c0-0.8,0.1-1.6,0.1-2.4c0-2-0.5-1.9-2.2-2.6c-0.3-0.1-0.5-0.3-0.6-0.5
		c0-0.1,0-0.1-0.1-0.2h-0.4l-0.9,2c0.1,0.1,0.1,0.1,0.2,0.2c0.2,0.2,0.4,0.3,0.6,0.4c0.4,0.2,0.9,0.4,1.3,0.6
		c0.8,0.4,0.8,2.4,0.8,3.2c0,0.8,0,1.7,0,2.5c0,0.6,0,1.3,0.1,1.9h0.3L475,550.7z M471.6,539c0-0.4-0.3-0.7-0.7-0.7
		c-0.4,0-0.7,0.3-0.7,0.7c0,0.4,0.3,0.7,0.7,0.7C471.3,539.6,471.6,539.3,471.6,539 M469.3,547.5c0-1.2-0.1-4-1.3-4.7
		c-0.8-0.5-1.5-0.6-2.3-0.7c-0.2,0-0.5-0.1-0.7-0.2c-0.3-0.1-0.5-0.3-0.6-0.6H464c-0.7,1.1-2,3.5-2,4.8c0,1.3,0.9,1.8,1.9,2.2
		l0.8-1.8c-0.1,0-0.2-0.1-0.3-0.1c-0.4-0.3-0.8-0.6-0.9-1.1c0-0.1,0-0.3,0-0.4c0-0.5,0.2-1,0.8-1c0.1,0,0.1,0,0.2,0l1.9,0.3
		c1.4,0.3,1.5,2.8,1.5,4c0,0.2,0,1.4-0.1,1.6c-1.2,0-2.5,0-3.7,0c-0.5,0-1,0-1.4,0.1l-0.7,1.8l0.2,0.1c0.6-0.1,1.3-0.1,1.9-0.1
		c0.8,0,1.6,0,2.5,0c0.7,0,1.3,0,2-0.1c0,0,0.1,0,0.1,0C469.2,549.8,469.3,549.4,469.3,547.5 M466.4,554.2c0-0.4-0.3-0.7-0.7-0.7
		c-0.4,0-0.7,0.3-0.7,0.7c0,0.4,0.3,0.7,0.7,0.7C466.1,554.9,466.4,554.6,466.4,554.2 M460.6,544c0-1.5-1.1-1.5-2.1-2.1
		c-0.2-0.1-0.5-0.2-0.6-0.5c0-0.1-0.1-0.2-0.1-0.3h-0.4l-0.8,2c0.5,1,2.3,0.6,2.3,2c0,0.9-0.5,2.1-0.9,2.8c0,0.1-0.2,0.4-0.2,0.4
		l0.4,0.2c0.4-0.2,1.3-1.2,1.6-1.6C460,546.2,460.6,545,460.6,544 M455.2,544.5c0-0.3,0-0.7-0.2-1.1c-0.3-0.9-1-0.9-1.7-1.3
		c-0.4-0.2-0.4-0.5-0.6-0.9h-0.3l-1,1.9c0.3,0.8,2.3,1,2.3,2.5c0,1.5-1.7,2.9-2.9,3.6c-0.1-0.9-0.3-1.7-0.4-2.6
		c-0.2-1.1-0.3-2.3-0.6-3.4c-0.1-0.6-0.9-0.8-1.4-1.1c-0.5-0.3-0.6-0.4-0.8-0.9h-0.4l-1,1.8c0.4,0.7,1.1,0.9,1.7,1.3
		c0.5,0.3,0.8,2,0.9,2.5l0.5,3.4c-0.7,0.5-1.4,0.9-2.2,1.3l-0.2,1.8l0.2,0.1c0.2-0.1,1-0.5,1.3-0.7c1.6-0.9,4.3-2.7,5.3-4.1
		C454.7,547.6,455.2,545.8,455.2,544.5 M452.9,554.7v-1.1h-4v1.1h1.6c0,0.6-0.1,1.3-0.1,1.9v0.9h1.1v-0.9c0-0.5-0.1-1.4-0.2-1.9
		H452.9z M439,545.6h-0.3l-1.1,1.2c-0.1,0.9-0.1,1.7-0.1,2.6c0,0.9,0,1.7,0.1,2.6h0.3l1-1.1c0-0.9,0-1.9,0-2.8
		C438.9,547.2,439,546.4,439,545.6 M444.9,550.8c0-1.2-0.2-2.2-0.2-3.3c0-1,0.1-1.9,0.1-2.9c0-0.5,0-1.2-0.3-1.6
		c-0.5-0.6-1.1-0.9-1.8-0.9h-2.7c-0.7,0-1.7,0.1-1.8-0.8h-0.3l-0.9,2.1c0.4,0.6,0.9,0.7,1.6,0.7h3.4c1.4,0,1.5,0.9,1.6,2.1
		c0,0.9,0.1,1.7,0.1,2.6c0,0.5,0,0.9,0,1.4c0,0.6,0.1,1.3,0.2,1.9h0.2L444.9,550.8z M435.4,550.9c0-0.4-0.1-0.7-0.4-0.9l-0.9-0.9
		H434l-1.3,1.3v0.2c0.5,0.4,1,0.7,1,1.4c0,0.7-0.5,1.7-1,2.3l0.3,0.1c0.2-0.1,0.4-0.1,0.6-0.3C434.3,553.5,435.4,551.8,435.4,550.9
		 M422.9,547.1c0-0.4-0.3-0.7-0.7-0.7c-0.4,0-0.7,0.3-0.7,0.7c0,0.4,0.3,0.7,0.7,0.7C422.6,547.8,422.9,547.4,422.9,547.1
		 M425.4,547.5c0-1.2-0.1-4-1.3-4.7c-0.8-0.5-1.5-0.6-2.3-0.7c-0.2,0-0.5-0.1-0.7-0.2c-0.3-0.1-0.5-0.3-0.6-0.6h-0.4
		c-0.7,1.1-2,3.5-2,4.8c0,1.3,0.9,1.8,1.9,2.2l0.8-1.8c-0.1,0-0.2-0.1-0.3-0.1c-0.4-0.3-0.8-0.6-0.9-1.1c0-0.1,0-0.3,0-0.4
		c0-0.5,0.2-1,0.8-1c0.1,0,0.1,0,0.2,0l1.9,0.3c1.4,0.3,1.5,2.8,1.5,4c0,0.2,0,1.4-0.1,1.6c-1.2,0-2.5,0-3.7,0c-0.5,0-1,0-1.4,0.1
		l-0.7,1.8l0.2,0.1c0.6-0.1,1.3-0.1,1.9-0.1c0.8,0,1.6,0,2.5,0c0.7,0,1.3,0,2-0.1c0,0,0.1,0,0.1,0
		C425.2,549.8,425.4,549.4,425.4,547.5 M422.5,556.1c0-0.4-0.3-0.7-0.7-0.7c-0.4,0-0.7,0.3-0.7,0.7c0,0.4,0.3,0.7,0.7,0.7
		C422.2,556.8,422.5,556.4,422.5,556.1 M422.4,554.2c0-0.4-0.3-0.7-0.7-0.7c-0.4,0-0.7,0.3-0.7,0.7c0,0.4,0.3,0.7,0.7,0.7
		C422.1,554.8,422.4,554.5,422.4,554.2 M416.2,550.1c0-0.3-0.1-0.6-0.1-0.8c0-0.6-0.1-1.1-0.1-1.7c0-1.1,0.1-2.1,0.1-3.2
		c0-1.6-0.6-1.7-1.9-2.3c-0.3-0.1-0.5-0.3-0.7-0.5c-0.1-0.1-0.2-0.3-0.2-0.3H413l-0.9,2c0.1,0.2,0.5,0.5,0.7,0.6
		c1.1,0.7,1.9,0.4,1.9,2.1l0.1,4h-2.6l-0.4,1.9h4.2C416,551.5,416.2,550.2,416.2,550.1 M415,554.2c0-0.4-0.3-0.7-0.7-0.7
		c-0.4,0-0.7,0.3-0.7,0.7c0,0.4,0.3,0.7,0.7,0.7C414.7,554.9,415,554.6,415,554.2 M410.7,544c0-1.5-1.1-1.5-2.1-2.1
		c-0.2-0.1-0.5-0.2-0.6-0.5c0-0.1-0.1-0.2-0.1-0.3h-0.4l-0.8,2c0.5,1,2.3,0.6,2.3,2c0,0.9-0.5,2.1-0.9,2.8c0,0.1-0.2,0.4-0.2,0.4
		l0.4,0.2c0.4-0.2,1.3-1.2,1.6-1.6C410.1,546.2,410.7,545,410.7,544 M404.9,550.1c0-0.3-0.1-0.6-0.1-0.8c0-0.6-0.1-1.1-0.1-1.7
		c0-1.1,0.1-2.1,0.1-3.2c0-1.6-0.6-1.7-1.9-2.3c-0.3-0.1-0.5-0.3-0.7-0.5c-0.1-0.1-0.2-0.3-0.2-0.3h-0.4l-0.9,2
		c0.1,0.2,0.5,0.5,0.7,0.6c1.1,0.7,1.9,0.4,1.9,2.1l0.1,4h-2.6l-0.4,1.9h4.2C404.7,551.5,404.9,550.2,404.9,550.1 M403.7,554.2
		c0-0.4-0.3-0.7-0.7-0.7c-0.4,0-0.7,0.3-0.7,0.7c0,0.4,0.3,0.7,0.7,0.7C403.4,554.9,403.7,554.6,403.7,554.2 M399.4,544
		c0-1.5-1.1-1.5-2.1-2.1c-0.2-0.1-0.5-0.2-0.6-0.5c0-0.1-0.1-0.2-0.1-0.3h-0.4l-0.8,2c0.5,1,2.3,0.6,2.3,2c0,0.9-0.5,2.1-0.9,2.8
		c0,0.1-0.2,0.4-0.2,0.4l0.4,0.2c0.4-0.2,1.3-1.2,1.6-1.6C398.8,546.2,399.4,545,399.4,544 M392.2,546.4c0,1.1,0,2.3-0.1,3.4h-4.8
		c0-0.6-0.1-1.3-0.1-1.9c0-1.3,0-2.6,0.1-3.9h3.5C392,544,392.2,545.4,392.2,546.4 M393.6,549.7c0-0.8-0.1-1.7-0.1-2.5
		c0-0.7,0-1.4,0-2.1c0-2.3-0.6-3.1-3-3.1h-0.4h-2.6c-0.7,0-1.7,0-1.9-0.9h-0.4l-0.9,2.1c0.2,0.4,0.5,0.7,0.9,1
		c0.5,0.4,0.5,1.5,0.5,2.2c0,1.1-0.1,2.2-0.1,3.3c0,0.7,0.1,1.3,0.1,2h7.2C393.2,551.3,393.6,550.1,393.6,549.7 M377.3,544.2
		c0-1.9-1-2.2-2.7-2.2h-1.7c-0.5,0-1.3,0.1-1.3-0.6c0-0.7,0.2-1.4,0.2-2c0-0.2-0.1-1.6-0.3-1.6h-0.3l-1.4,1.7c0,0.2,0.2,0.4,0.3,0.6
		c0.2,0.4,0.2,0.9,0.2,1.4c0,0.4,0,0.8,0,1.2c0,1,0.4,1.5,1.4,1.5c1,0,1.9,0,2.9,0c1,0,1.1,0.8,1.1,1.6v0.3
		c-0.1,1.6-2.4,3.2-3.8,3.9l-0.3,2l0.3,0.1c1.2-0.8,2.4-1.7,3.3-2.7C376.4,548.1,377.3,545.9,377.3,544.2 M375.7,554.7v-1.1h-4v1.1
		h1.6c0,0.6-0.1,1.3-0.1,1.9v0.9h1.1v-0.9c0-0.5-0.1-1.4-0.2-1.9H375.7z M362.5,545.6h-0.3l-1.1,1.2c-0.1,0.9-0.1,1.7-0.1,2.6
		c0,0.9,0,1.7,0.1,2.6h0.3l1-1.1c0-0.9,0-1.9,0-2.8C362.4,547.2,362.4,546.4,362.5,545.6 M368.4,550.8c0-1.2-0.2-2.2-0.2-3.3
		c0-1,0.1-1.9,0.1-2.9c0-0.5,0-1.2-0.3-1.6c-0.5-0.6-1.1-0.9-1.8-0.9h-2.7c-0.7,0-1.7,0.1-1.8-0.8h-0.3l-0.9,2.1
		c0.4,0.6,0.9,0.7,1.6,0.7h3.4c1.4,0,1.5,0.9,1.6,2.1c0,0.9,0.1,1.7,0.1,2.6c0,0.5,0,0.9,0,1.4c0,0.6,0.1,1.3,0.2,1.9h0.2
		L368.4,550.8z M350.6,539.7c0-0.4-0.3-0.7-0.7-0.7c-0.4,0-0.7,0.3-0.7,0.7c0,0.4,0.3,0.7,0.7,0.7
		C350.3,540.4,350.6,540.1,350.6,539.7 M353.2,545c0-1.2-0.3-1.9-1.2-2.6c-0.6-0.5-0.5-0.6-0.7-1.2H351l-1.1,1.9
		c0.2,0.5,0.7,0.9,1.1,1.2c0.4,0.3,0.5,0.9,0.5,1.4c0,1.9-1.3,4.5-3.5,4.5c-2.2,0-2.7-1.9-2.7-3.7c0-0.5,0-1.1,0-1.6
		c0-0.3,0-0.7-0.1-1c-0.3-1.6-1.7-1.3-1.9-2.7h-0.3l-0.9,1.9c0.1,0.1,0.2,0.2,0.3,0.3c0.3,0.3,0.6,0.5,0.9,0.7
		c1,0.7,0.8,2.3,0.9,3.3c0,0.6,0.1,1.2,0.2,1.9c0.3,1.7,1.6,2.8,3.4,2.8c2.6,0,4.4-2.7,5.2-4.9C352.9,546.6,353.2,545.7,353.2,545
		 M349.1,544.2c0-1.1-0.5-1.4-1.2-2.1c-0.4-0.4-0.3-0.5-0.4-0.9h-0.3l-1.1,2c0.4,0.6,1.4,0.9,1.4,1.7c0,0.3-0.1,0.6-0.1,0.8
		c-0.1,0.4-0.9,2.6-1.1,2.8l0.3,0.3c0.1-0.1,0.5-0.4,0.5-0.5c0.9-0.9,1.7-2.2,2-3.4C349.1,544.6,349.1,544.5,349.1,544.2
		 M348.4,556.1c0-0.4-0.3-0.7-0.7-0.7c-0.4,0-0.7,0.3-0.7,0.7c0,0.4,0.3,0.7,0.7,0.7C348.1,556.8,348.4,556.4,348.4,556.1
		 M348.4,554.2c0-0.4-0.3-0.7-0.7-0.7c-0.4,0-0.7,0.3-0.7,0.7c0,0.4,0.3,0.7,0.7,0.7C348.1,554.8,348.4,554.5,348.4,554.2
		 M340.5,550.8v-0.1c0-0.4,0-0.7-0.1-1.1c0-0.7,0-1.3,0-2c0-0.9,0.1-1.8,0.1-2.7c0-0.6,0-1.6-0.3-2c-0.5-0.7-1.1-0.9-1.9-0.9h-3.8
		c-0.7,0-1.5,0.1-1.8-0.8h-0.4l-1,2c0.2,0.2,0.8,0.7,1,0.9c0.4,0.4,0.4,1.8,0.4,2.3c0,1.1-0.1,2.2-0.1,3.2c0,0.8,0.1,1.6,0.1,2.3
		h0.3l1.2-1.3v-0.1c0-0.4,0-0.8-0.1-1.2c-0.1-0.8-0.1-1.6-0.1-2.4c0-1,0-2,0.1-3h2.8c2,0,2.1,0.9,2.1,2.6c0,1-0.1,2.1-0.1,3.1
		c0,0.8,0.1,1.5,0.1,2.3h0.3L340.5,550.8z M336.9,546.5c0-0.4-0.3-0.7-0.7-0.7c-0.4,0-0.7,0.3-0.7,0.7c0,0.4,0.3,0.7,0.7,0.7
		C336.6,547.2,336.9,546.8,336.9,546.5 M329.8,550.7v-0.2c0-0.4,0-0.7-0.1-1.1c-0.1-0.8-0.2-1.6-0.2-2.4c0-0.8,0.1-1.6,0.1-2.4
		c0-2-0.5-1.9-2.2-2.6c-0.3-0.1-0.5-0.3-0.6-0.5c0-0.1,0-0.1-0.1-0.2h-0.4l-0.9,2c0.1,0.1,0.1,0.1,0.2,0.2c0.2,0.2,0.4,0.3,0.6,0.4
		c0.4,0.2,0.9,0.4,1.3,0.6c0.8,0.4,0.8,2.4,0.8,3.2c0,0.8,0,1.7,0,2.5c0,0.6,0,1.3,0.1,1.9h0.3L329.8,550.7z M326.3,539
		c0-0.4-0.3-0.7-0.7-0.7c-0.4,0-0.7,0.3-0.7,0.7c0,0.4,0.3,0.7,0.7,0.7C326,539.6,326.3,539.3,326.3,539 M323.9,550.3
		c0-1.1-0.2-2.3-0.2-3.4c0-0.7,0.1-1.5,0.1-2.2c0-1.5-0.4-2.7-2.2-2.7h-1.8c-0.6,0-1.6,0-1.7-0.8h-0.4l-0.9,2
		c0.1,0.2,0.3,0.5,0.6,0.6c0.4,0.2,2,0.2,2.5,0.2c2,0,2.5,0.1,2.5,2.3v3.3c0,0.8,0,1.6,0.1,2.3h0.3l1.1-1.2
		C323.9,550.7,323.9,550.5,323.9,550.3 M315.4,550.7v-0.2c0-0.4,0-0.7-0.1-1.1c-0.1-0.8-0.2-1.6-0.2-2.4c0-0.8,0.1-1.6,0.1-2.4
		c0-2-0.5-1.9-2.2-2.6c-0.3-0.1-0.5-0.3-0.6-0.5c0-0.1,0-0.1-0.1-0.2H312l-0.9,2c0.1,0.1,0.1,0.1,0.2,0.2c0.2,0.2,0.4,0.3,0.6,0.4
		c0.4,0.2,0.9,0.4,1.3,0.6c0.8,0.4,0.8,2.4,0.8,3.2c0,0.8,0,1.7,0,2.5c0,0.6,0,1.3,0.1,1.9h0.3L315.4,550.7z M312,539
		c0-0.4-0.3-0.7-0.7-0.7c-0.4,0-0.7,0.3-0.7,0.7c0,0.4,0.3,0.7,0.7,0.7C311.7,539.6,312,539.3,312,539 M309.6,550.1
		c0-1.3-0.3-2.7-0.3-4c0-0.6,0.1-1.2,0.1-1.8c0-0.4,0-1-0.3-1.4c-0.5-0.6-1.1-0.9-1.8-0.9h-4c-0.7,0-1.6,0.1-1.8-0.8h-0.3l-0.9,2.2
		c0.2,0.3,0.5,0.5,0.9,0.7c0.6,0.2,0.7,1.3,0.8,1.9c0.2,1.3,0.3,2.5,0.3,3.8c-0.6,0-1.1,0-1.7,0.1l-0.5,1.9c1.1-0.1,2.2,0,3.3-0.1
		l0.4-1.7c0,0-0.1-0.8-0.1-0.8c-0.1-0.7-0.2-1.4-0.3-2.1c-0.1-1-0.1-2.1-0.1-3.1h2.6c0.7,0,1.4,0.1,1.8,0.7c0.3,0.4,0.3,1.5,0.3,2.1
		v2.9c0,0.8,0,1.6,0.2,2.3h0.3l1.2-1.3C309.6,550.5,309.6,550.3,309.6,550.1"/>
</g>
</svg>
